<svg width="17" height="28" fill="none" xmlns="http://www.w3.org/2000/svg"><path d="M2.126 27.545c-.482 0-.862-.14-1.141-.418-.28-.28-.419-.647-.419-1.104 0-.482.14-.85.419-1.103.279-.254.66-.38 1.141-.38h4.795V3.65h1.826L3.192 7.228c-.355.229-.698.33-1.028.305a1.566 1.566 0 01-.799-.38 1.693 1.693 0 01-.456-.8 1.603 1.603 0 01.038-.913c.127-.33.38-.596.76-.8L6.96 1.217c.38-.229.735-.406 1.065-.533A2.603 2.603 0 019.051.455c.38 0 .71.114.99.342.279.228.418.596.418 1.103v22.64h4.414c.507 0 .888.126 1.141.38.28.254.419.621.419 1.103s-.14.863-.419 1.142c-.253.254-.634.38-1.141.38H2.126z" fill="#045C6F"/></svg>