<svg width="19" height="28" fill="none" xmlns="http://www.w3.org/2000/svg"><path d="M2.797 27.566c-.608 0-1.064-.14-1.368-.418-.278-.304-.418-.71-.418-1.216 0-.304.076-.608.228-.912.152-.304.38-.608.684-.912l8.322-8.93c1.267-1.343 2.179-2.584 2.736-3.724.558-1.14.836-2.293.836-3.458 0-1.47-.456-2.584-1.368-3.344-.886-.785-2.191-1.178-3.914-1.178-1.064 0-2.09.177-3.078.532-.962.33-1.912.849-2.85 1.558-.354.253-.684.367-.988.342a1.338 1.338 0 01-.798-.342 2.34 2.34 0 01-.456-.76 1.742 1.742 0 01.038-.95c.102-.33.317-.608.646-.836 1.039-.81 2.242-1.444 3.61-1.9A13.253 13.253 0 018.877.434c1.824 0 3.357.291 4.598.874 1.267.557 2.23 1.38 2.888 2.47.659 1.064.988 2.369.988 3.914a9.703 9.703 0 01-.532 3.154c-.354 1.013-.886 2.052-1.596 3.116-.684 1.064-1.57 2.166-2.66 3.306L4.66 25.59v-1.026h12.464c.507 0 .887.127 1.14.38.279.253.418.62.418 1.102 0 .481-.14.861-.418 1.14-.253.253-.633.38-1.14.38H2.797z" fill="#045C6F"/></svg>