<svg width="19" height="28" fill="none" xmlns="http://www.w3.org/2000/svg"><path d="M9.473 27.858a16.65 16.65 0 01-4.447-.614c-1.482-.409-2.773-1.022-3.872-1.84-.357-.255-.6-.55-.728-.881-.128-.333-.166-.64-.115-.92.077-.307.23-.563.46-.767.23-.204.511-.32.843-.345.333-.051.69.038 1.074.268 1.099.716 2.185 1.24 3.258 1.572a12.62 12.62 0 003.412.46c1.252 0 2.312-.179 3.181-.537.87-.383 1.52-.933 1.955-1.648.46-.741.69-1.623.69-2.645 0-1.533-.498-2.683-1.495-3.45-.996-.792-2.453-1.188-4.37-1.188H6.636c-.537 0-.946-.128-1.227-.384-.28-.28-.421-.651-.421-1.111 0-.486.14-.856.421-1.112.281-.256.69-.383 1.227-.383h2.377c1.124 0 2.082-.192 2.875-.575.792-.41 1.405-.971 1.84-1.687.46-.716.69-1.585.69-2.607 0-1.38-.448-2.428-1.342-3.143-.895-.741-2.185-1.112-3.872-1.112a9.528 9.528 0 00-3.105.499c-.97.306-1.955.83-2.951 1.571-.333.23-.665.345-.997.345a1.393 1.393 0 01-.843-.345 1.613 1.613 0 01-.422-.728 1.758 1.758 0 01.038-.958c.103-.333.333-.627.69-.882 1.048-.818 2.25-1.444 3.604-1.878 1.38-.46 2.798-.69 4.255-.69 1.763 0 3.27.28 4.523.843 1.278.562 2.249 1.367 2.913 2.415.665 1.022.997 2.262.997 3.718 0 1.1-.204 2.109-.613 3.029a6.454 6.454 0 01-1.764 2.3c-.74.613-1.648 1.047-2.721 1.303v-.422c1.865.332 3.31 1.112 4.331 2.339 1.048 1.2 1.572 2.709 1.572 4.523 0 1.559-.383 2.926-1.15 4.102-.741 1.15-1.802 2.031-3.182 2.645-1.38.613-3.015.92-4.906.92z" fill="#045C6F"/></svg>