<svg width="32" height="32" fill="none" xmlns="http://www.w3.org/2000/svg"><path d="M5.94 32H24.5a3.43 3.43 0 003.43-3.432v-15.22c3.22-.128 5.146-3.7 3.426-6.476l-1.004-1.62a4.24 4.24 0 00-3.604-2.008h-2.87V1.972A1.972 1.972 0 0021.906 0a4.89 4.89 0 00-4.888 4.892v6.912c-2.556.252-4.486 1.46-5.904 3.164-1.564 1.88-2.486 4.33-3.034 6.684-.552 2.364-.746 4.716-.806 6.464A39.266 39.266 0 007.258 30H5.94a3.941 3.941 0 01-2.88-6.634l1.84-1.974a7.178 7.178 0 00-.172-9.968L2.922 9.618a1 1 0 10-1.414 1.414l1.806 1.806a5.174 5.174 0 01.124 7.19l-1.84 1.974A5.946 5.946 0 005.94 32zM21.88 2v2.244a1 1 0 001 1h3.868c.776 0 1.496.4 1.904 1.06l1.006 1.622a2.243 2.243 0 01-1.906 3.426h-.82a1 1 0 00-1 1v16.216c0 .79-.64 1.432-1.432 1.432h-1.432v-1.432a5.864 5.864 0 00-5.86-5.866H15.18a1 1 0 000 2h2.026a3.864 3.864 0 013.864 3.866V30H9.258c-.01-.468-.01-1.088.014-1.818.056-1.672.24-3.88.754-6.076.514-2.208 1.34-4.318 2.624-5.86 1.254-1.502 2.956-2.49 5.368-2.49a1 1 0 001-1V4.892A2.891 2.891 0 0121.88 2z" fill="#0B0A0A"/></svg>