<svg width="26" height="32" fill="none" xmlns="http://www.w3.org/2000/svg"><path d="M13.287 31H8.001c-3.144 0-4.714 0-5.69-.977-.977-.976-.977-2.546-.977-5.69V7.667c0-3.144 0-4.714.977-5.69C3.287 1 4.857 1 8 1h10c3.143 0 4.713 0 5.69.977.976.976.976 2.546.976 5.69V19.62c0 .68 0 1.022-.126 1.328-.127.305-.367.547-.85 1.029l-8.047 8.046c-.483.484-.723.724-1.028.85-.307.127-.649.127-1.329.127z" stroke="#070707" stroke-width="2"/><path d="M13 31v-7.778c0-1.833 0-2.75.57-3.318.568-.57 1.485-.57 3.318-.57h7.779" stroke="#070707" stroke-width="2"/></svg>