<svg width="40" height="50" fill="none" xmlns="http://www.w3.org/2000/svg"><path d="M8.75 50c-2.417 0-4.48-.854-6.188-2.563C.855 45.73 0 43.667 0 41.25V8.75c0-2.417.854-4.48 2.563-6.188C4.27.855 6.332 0 8.75 0H40v37.5c-1.042 0-1.927.365-2.655 1.095-.728.73-1.093 1.615-1.095 2.655 0 1.042.365 1.928 1.095 2.657.73.73 1.615 1.095 2.655 1.093v5H8.75zM10 32.5h5V5h-5v27.5zM8.75 45h23.313a11.093 11.093 0 01-.593-1.78 8.51 8.51 0 01-.22-1.97c0-.667.063-1.313.188-1.938a7.19 7.19 0 01.625-1.812H8.75c-1.083 0-1.98.365-2.688 1.095C5.354 39.325 5 40.21 5 41.25c0 1.083.354 1.98 1.063 2.688C6.77 44.645 7.667 45 8.75 45z" fill="#D11F2A"/></svg>