<svg xmlns="http://www.w3.org/2000/svg" width="24" height="24" viewBox="0 0 256 256">
    <g transform="translate(1.4065934065934016 1.4065934065934016) scale(2.81 2.81)">
        <path d="M 3 90 c -0.768 0 -1.536 -0.293 -2.121 -0.879 c -1.172 -1.171 -1.172 -3.071 0 -4.242 l 84 -84 c 1.172 -1.172 3.07 -1.172 4.242 0 c 1.172 1.171 1.172 3.071 0 4.242 l -84 84 C 4.536 89.707 3.768 90 3 90 z"
              fill="#000000"/>
        <path d="M 87 90 c -0.768 0 -1.535 -0.293 -2.121 -0.879 l -84 -84 c -1.172 -1.171 -1.172 -3.071 0 -4.242 c 1.171 -1.172 3.071 -1.172 4.242 0 l 84 84 c 1.172 1.171 1.172 3.071 0 4.242 C 88.535 89.707 87.768 90 87 90 z"
              fill="#000000"/>
    </g>
</svg>