<svg width="28" height="33" fill="none" xmlns="http://www.w3.org/2000/svg"><path d="M20.462 1.077l.596-.896L20.787 0h-.325v1.077zm6.461 4.308H28v-.578l-.48-.318-.597.896zM24.77 25.846H7.54V28h17.23v-2.154zM6.462 24.77V3.231H4.308v21.538h2.154zM7.538 2.154h12.924V0H7.538v2.154zm18.308 3.23V24.77H28V5.385h-2.154zm-5.981-3.411l6.462 4.308 1.193-1.792L21.058.18l-1.193 1.792zM7.538 25.846a1.077 1.077 0 01-1.076-1.077H4.308A3.23 3.23 0 007.538 28v-2.154zM24.77 28A3.23 3.23 0 0028 24.77h-2.154a1.077 1.077 0 01-1.077 1.076V28zM6.462 3.23a1.077 1.077 0 011.076-1.076V0a3.23 3.23 0 00-3.23 3.23h2.154zM0 7.539v21.539h2.154V7.538H0zm3.23 24.77h17.232v-2.154H3.23v2.154zm0-25.846h2.155V4.308H3.23v2.154zm20.462 22.615v-2.154h-2.154v2.154h2.154zm-3.23 3.23a3.23 3.23 0 003.23-3.23h-2.154a1.077 1.077 0 01-1.076 1.077v2.154zM0 29.078a3.23 3.23 0 003.23 3.23v-2.153a1.077 1.077 0 01-1.076-1.077H0zm2.154-21.54A1.077 1.077 0 013.23 6.462V4.308A3.23 3.23 0 000 7.538h2.154z" fill="#0B0A0A"/></svg>