<svg width="20" height="20" fill="none" xmlns="http://www.w3.org/2000/svg"><mask id="a" style="mask-type:alpha" maskUnits="userSpaceOnUse" x="0" y="0" width="20" height="20"><circle cx="10" cy="10" r="10" fill="#D9D9D9"/></mask><g mask="url(#a)"><path d="M18.182-.454C10.974-2.082 6.3.248-1.091 2.72c-.402-.088-.727.136-.727.527v13.796c0 .39.325.799.727.891 7.208 1.628 12.251 4.496 19.727 1.611.402.093 2.628-2.107 2.628-2.497V3.25c0-.395-2.68-3.613-3.082-3.705z" fill="#045C6F"/><path d="M19.003 4.584c0-.313-.26-.64-.583-.714-.036-.007-.076-.018-.112-.025l-6.436 3.81V-.8c-1.413.166-2.825.391-4.238.556v7.855L2.133 4.355a12.222 12.222 0 01-1.047-.193c-.322-.07-.583.109-.583.422v.733L5.139 8.06H-.406v4.12h5.758l-4.85 2.869v.606c0 .313.262.64.584.714.109.025.217.046.322.067l6.223-3.686v7.375c1.412-.166 2.825.518 4.237.353v-7.774l5.32 3.155c.41.053.819.123 1.228.218.323.074.583-.106.583-.419v-.648l-4.777-2.827h6.464v-4.12h-6.25l4.563-2.7c.004-.265.004-.522.004-.779z" fill="#D11F2A"/><path d="M15.456 12.517l3.546 2.094v.823l-4.937-2.917h-1.858l5.951 3.518c0 .288.31.558-.291.512l-5.67-3.211v6.794c-.218.025-.435.05-.652.078v-8.32h8.3v.633h-4.389v-.004zM7.307 19.85c.217-.024.435.86.652.832v-8.797h-9.275v.632H4.12L.502 14.654v.822l5.009-2.959h1.796v.035l-6.381 3.77c.05.025.105.046.159.06.286.064.572.12.858.165l5.364-3.169v6.472zM-1.316 7.773v.633h9.275v-8.76c-.217.029-.435.053-.652.078v7.318L1.363 3.637c-.623-.053.381.714-.242.573l6.03 3.563H5.293L.502 4.941v.822l3.404 2.01h-5.222zM12.197 0c-.218.025-.435.05-.652.078v8.328h8.3v-.633H15.67l3.875-2.318-.543-.472-4.723 2.79h-1.858l6.291-3.717a.72.72 0 00-.293-.148c-.214-.05-.424-.088-.638-.126l-5.584 3.3V0z" fill="#fff"/></g></svg>