<svg width="36" height="36" fill="none" xmlns="http://www.w3.org/2000/svg"><mask id="a" style="mask-type:alpha" maskUnits="userSpaceOnUse" x="0" y="0" width="36" height="36"><circle cx="18" cy="18" r="18" fill="#D9D9D9"/></mask><g mask="url(#a)"><path d="M33-1.025C20.026-3.955 11.613.239-1.69 4.689c-.724-.158-1.31.245-1.31.948v24.834c0 .703.586 1.438 1.31 1.603 12.973 2.93 22.052 8.094 35.508 2.9.724.167 4.73-3.792 4.73-4.495V5.645c0-.711-4.824-6.504-5.548-6.67z" fill="#0B67B2"/><path d="M34.478 8.045c0-.564-.47-1.153-1.05-1.286-.065-.013-.137-.032-.202-.045L21.64 13.572V-1.645c-2.542.298-5.085.704-7.627 1.002v14.139L4.11 7.633a22.298 22.298 0 01-1.884-.348c-.58-.127-1.05.196-1.05.76v1.318l8.345 4.938h-9.98v7.415H9.907l-8.73 5.165v1.09c0 .564.47 1.154 1.05 1.287.196.044.391.082.58.12l11.2-6.635v13.275c2.543-.297 5.085.933 7.628.635V22.66l9.576 5.679a22.43 22.43 0 012.21.393c.58.133 1.05-.19 1.05-.754V26.81l-8.599-5.089h11.635v-7.415h-11.25l8.214-4.861c.007-.475.007-.938.007-1.4z" fill="#FF473E"/><path d="M28.095 22.323l6.382 3.77v1.48l-8.885-5.25h-3.345l10.711 6.332c0 .518.558 1.005-.524.923l-10.206-5.78v12.23c-.392.043-.783.088-1.174.138V21.191h14.941v1.139h-7.9v-.007zm-14.668 13.2c.39-.044.782 1.548 1.173 1.497V21.185H-2.096v1.138H7.69L1.177 26.17v1.48l9.016-5.326h3.234v.064L1.94 29.173c.091.045.189.083.287.108.515.114 1.03.215 1.545.297l9.655-5.705v11.65zM-2.096 13.785v1.138H14.6V-.844c-.391.05-.782.095-1.173.14v13.173l-10.7-6.13c-1.12-.095.686 1.285-.435 1.032l10.854 6.414H9.802L1.177 8.687v1.48l6.128 3.618h-9.4zM22.228-.207c-.392.045-.783.089-1.174.14v14.99h14.941v-1.138H28.48l6.975-4.174-.978-.848-8.5 5.022h-3.345l11.324-6.692a1.296 1.296 0 00-.528-.266A24.542 24.542 0 0032.28 6.6l-10.052 5.94V-.207z" fill="#E8E8E8"/></g></svg>