<svg width="14" height="14" fill="none" xmlns="http://www.w3.org/2000/svg"><path fill-rule="evenodd" clip-rule="evenodd" d="M5.041.276a7.036 7.036 0 00-3.466 2.275A6.99 6.99 0 000 6.375h3.213A15.715 15.715 0 015.04.275l.001.001zM3.213 7.625H0a6.99 6.99 0 001.575 3.825 7.037 7.037 0 003.465 2.275 15.715 15.715 0 01-1.827-6.1zm3.438 6.367a14.437 14.437 0 01-2.18-6.367h5.056a14.437 14.437 0 01-2.179 6.367 7.25 7.25 0 01-.697 0zm2.309-.268a7.036 7.036 0 003.465-2.275A6.99 6.99 0 0014 7.625h-3.213a15.714 15.714 0 01-1.827 6.1v-.001zm1.827-7.349H14a6.99 6.99 0 00-1.575-3.825A7.037 7.037 0 008.96.275a15.713 15.713 0 011.827 6.1zM6.651.01c.232-.012.466-.012.698 0a14.437 14.437 0 012.178 6.366H4.473A14.417 14.417 0 016.65.01z" fill="#fff"/></svg>