<svg width="24" height="32" fill="none" xmlns="http://www.w3.org/2000/svg"><path fill-rule="evenodd" clip-rule="evenodd" d="M12 .69a6.558 6.558 0 00-6.558 6.558v.773H1.08L.016 24.037a6.904 6.904 0 006.89 7.373h10.19a6.903 6.903 0 006.889-7.36L22.922 8.036h-4.363v-.787A6.558 6.558 0 0012 .689zm5.178 6.558v.773H6.823v-.773a5.178 5.178 0 1110.355 0zm0 2.154H6.823v.773a5.178 5.178 0 1010.355 0v-.773zm-11.736.773v-.773H2.377l-.994 14.732a5.523 5.523 0 005.523 5.895h10.19a5.521 5.521 0 005.508-5.895l-.98-14.732h-3.065v.773a6.558 6.558 0 01-13.117 0z" fill="#fff"/></svg>