<svg width="38" height="90" fill="none" xmlns="http://www.w3.org/2000/svg"><path d="M11.5 58.5a1.5 1.5 0 003 0h-3zm23-33V27h3v-1.5h-3zm-20 33V21.75h-3V58.5h3zM23 21.75V77h3V21.75h-3zM3 77V18.75H0V77h3zm31.5-58.25v6.75h3v-6.75h-3zM18.75 3c8.698 0 15.75 7.052 15.75 15.75h3C37.5 8.395 29.105 0 18.75 0v3zM3 18.75C3 10.052 10.052 3 18.75 3V0C8.395 0 0 8.395 0 18.75h3zM13 87C7.477 87 3 82.523 3 77H0c0 7.18 5.82 13 13 13v-3zm10-10c0 5.523-4.477 10-10 10v3c7.18 0 13-5.82 13-13h-3zm-4.25-59.5A4.25 4.25 0 0123 21.75h3a7.25 7.25 0 00-7.25-7.25v3zm-4.25 4.25a4.25 4.25 0 014.25-4.25v-3a7.25 7.25 0 00-7.25 7.25h3z" fill="#045C6F"/></svg>