<svg width="101" height="101" fill="none" xmlns="http://www.w3.org/2000/svg"><rect width="101" height="101" rx="20" fill="#045C6F"/><path fill-rule="evenodd" clip-rule="evenodd" d="M25.25 50.5c0-10.086 0-15.13 2.404-18.762a14.476 14.476 0 014.084-4.084c3.633-2.404 8.676-2.404 18.762-2.404s15.13 0 18.762 2.404a14.476 14.476 0 014.085 4.084C75.75 35.37 75.75 40.414 75.75 50.5s0 15.13-2.403 18.762a14.476 14.476 0 01-4.085 4.085C65.63 75.75 60.586 75.75 50.5 75.75s-15.13 0-18.762-2.403a14.476 14.476 0 01-4.084-4.085C25.25 65.629 25.25 60.586 25.25 50.5zm38.322 0c0 7.22-5.853 13.073-13.072 13.073-7.22 0-13.073-5.853-13.073-13.072 0-7.22 5.853-13.073 13.073-13.073 7.22 0 13.072 5.853 13.072 13.073zM50.5 59.15a8.65 8.65 0 100-17.299 8.65 8.65 0 000 17.3zm13.588-19.307a3.072 3.072 0 100-6.143 3.072 3.072 0 000 6.143z" fill="#fff"/></svg>