<svg width="41" height="37" fill="none" xmlns="http://www.w3.org/2000/svg"><path d="M12.463 3.063s-1.034 4.042-5.93 3.946c-2.449-.097-3.624.866-4.114 1.926-.685 1.156-.49 2.6.294 3.66.686 1.06 2.155 2.119 4.799 2.215h2.252" stroke="#045C6F" stroke-width="3.8" stroke-miterlimit="10" stroke-linecap="round" stroke-linejoin="round"/><path d="M9.275 34.845V16.93c.098-3.082 2.84-5.876 5.877-6.839 3.036-.963 5.284-.122 5.284-.122M25.68 35s.085-5.398.172-10.506c0-2.988-1.725-5.398-4.656-5.494h-.69c-2.93.096-4.654 2.41-4.654 5.494 0 5.108.172 10.506.172 10.506m16.463-12.352c0 4.431-.098 7.765-.098 12.196" stroke="#045C6F" stroke-width="3.8" stroke-miterlimit="10" stroke-linecap="round" stroke-linejoin="round"/><path d="M32.616 5.165s1.462 0 2.436.4c.487.2.78-.3 1.072-.7l2.533-2.702c.098-.1.195 0 .195.1v8.708c0 .7-1.559 4.904-6.236 4.904h-.195c-4.677 0-6.235-4.204-6.235-4.904V2.163c0-.1.097-.1.194-.1l2.534 2.702c.39.4.584.9 1.071.8.975-.4 2.436-.4 2.436-.4h.195z" stroke="#045C6F" stroke-width="3.6" stroke-miterlimit="10" stroke-linecap="round" stroke-linejoin="round"/></svg>