<svg width="56" height="56" fill="none" xmlns="http://www.w3.org/2000/svg"><ellipse cx="27.799" cy="28.473" rx="27.783" ry="27.491" fill="#fff"/><path d="M32.24 2.443a1 1 0 001.108 1.28l2.46-.377c-.007.58-.069.976-.15 1.256-.112.385-.27.582-.469.772-.082.078-.152.138-.24.214a15.94 15.94 0 00-.187.162c-.17.15-.37.337-.56.578-.403.506-.692 1.153-.823 2.085-.128.913-.096 1.437-.078 1.723a3.034 3.034 0 01.008.177c0 .098 0 .268-.472 1.23a1.17 1.17 0 00-.012.025c-.47 1.027-.699 1.563-.737 2.181-.013.214-.002.446.008.664l.006.155c.008.186.014.412.011.703-.779.423-1.348.633-1.786.719-.488.096-.837.043-1.182-.091-.37-.143-.728-.371-1.264-.713l-.131-.084c-.584-.371-1.298-.812-2.233-1.206a1 1 0 00-1.334.595c-.33.96-.468 1.715-.273 2.407.097.344.259.61.405.82.064.092.134.185.194.265l.016.021c.068.09.13.173.192.263.428.614 1.146 1.893 1.074 6.28a1 1 0 00.279.71c3.705 3.858 4.234 10.154 1.815 15.55-.614 1.337-1.875 2.984-3.426 4.407-1.56 1.43-3.295 2.526-4.799 2.892a1 1 0 00-.672 1.39c.284.615.89 1.02 1.43 1.29.586.293 1.314.537 2.11.736 1.6.398 3.611.645 5.63.687 2.014.042 4.096-.12 5.822-.578 1.657-.438 3.294-1.231 3.944-2.695h0l.005-.011c1.346-3.137.371-6.96-.97-9.425l-.002-.004a72.69 72.69 0 00-.77-1.36 5.494 5.494 0 00-.12-.208c-.169-.293-.312-.54-.436-.765-.304-.548-.445-.874-.517-1.199-.072-.325-.09-.72-.03-1.419.052-.615.156-1.4.305-2.513l.07-.525a1 1 0 00-.765-1.105c-.927-.216-.997-.266-1.039-.297a2.276 2.276 0 01-.247-.247l-.003-.003c-.087-.092-.19-.202-.321-.335.085-.453.213-.757.347-.989.153-.266.319-.456.55-.723.063-.071.13-.148.203-.234.33-.389.699-.87.969-1.591.165-.44.284-.947.35-1.55l.17.03c.278.047.597.092.895.043.426-.07.673-.3.812-.449l.065-.071a.932.932 0 01.132-.127.967.967 0 00.101-.09c.354.348.546.705.883 1.33.16.298.353.656.611 1.103.555.988.617 1.36.604 1.67-.008.195-.05.414-.133.783l-.037.166c-.075.329-.169.737-.256 1.239a1 1 0 00.331.929c2.226 1.923 2.641 2.651 2.83 3l.04.077c.104.198.26.496.564.782.313.294.755.56 1.405.896a1 1 0 00.243.089c1.376.306 2.253.887 2.83 1.563.588.687.924 1.539 1.098 2.468a1 1 0 001.09.81c-1.023 1.752-2.49 3.57-4.373 5.399l-.003.003c-2.54 2.486-4.476 3.707-7.827 5.002l-.005.002c-10.616 4.175-20.631 1.151-26.925-4.629a.998.998 0 00-.086-.07c-5.653-4.137-8.353-11.83-7.348-19.816 1.001-7.954 5.677-16.08 14.62-20.964a.999.999 0 00.05-.03c1.894-1.184 4.855-2.747 6.834-3.204l.003-.001c.593-.14 2.558-.482 4.536-.794a124.915 124.915 0 013.4-.493.57.57 0 01.001.191 2.264 2.264 0 01-.111.304c-.08.2-.186.47-.307.869zM43.957 26.35l.007.008a.079.079 0 01-.007-.008z" fill="#181A2A" stroke="#181A2A" stroke-width="2" stroke-linejoin="round"/></svg>