<svg width="142.385" height="55.965" fill="none" xmlns="http://www.w3.org/2000/svg"><path d="M1.984 0h50.46v54H1.983z"/><ellipse cx="27.783" cy="28.473" rx="27.783" ry="27.491" fill="#FFF"/><path d="M33.17 2.73c.45-1.44.64-.99.3-2.73-.98 0-7.73 1.09-9 1.39-2.15.49-5.23 2.14-7.14 3.33C-1.15 14.81-2.08 38.38 9.95 47.18c6.55 6.02 16.97 9.15 27.97 4.83 3.47-1.35 5.52-2.64 8.16-5.22 6.56-6.37 8.61-12.98 3.62-17.76-1.27-1.24-5.96-4.57-6.65-2.33 0 1.14 5.53 1.84 7.19 6.16.64 1.69.78 4.68-.59 6.81-.39-2.08-1.56-4.12-4.69-4.82-2.59-1.34-.1-.69-4.65-4.62.4-2.24.88-2.44-.29-4.53-.98-1.69-1.08-2.33-2.44-3.28-.3.15-.49.45-.64.65-.63.49-.05.64-2.4.15 0 4.37-2.2 3.28-2.54 6.66 1.22 1.14.74 1.09 2.45 1.49-.74 5.52-.69 4.43 1.61 8.6 1.27 2.34 2.1 5.82.93 8.56-1.81 4.07-16.04 2.88-17.11.54 3.47-.84 7.53-4.87 8.89-7.85 2.55-5.67 2.06-12.43-2-16.66.15-9-2.93-6.07-1.66-9.75 3.42 1.44 3.66 3.58 7.97 1.05.09-2.44-.34-1.74.63-3.88.98-1.99.35-1.34.64-3.43.44-3.14 2.79-1.3 2.4-6.37l-3.58.55z" fill="#070707" fill-rule="evenodd"/><path d="M33.59.64c-.03-.17-.07-.39-.12-.64-.98 0-7.73 1.09-9 1.39-2.15.49-5.23 2.14-7.14 3.33C-1.15 14.81-2.08 38.38 9.95 47.18c6.55 6.02 16.97 9.15 27.97 4.83 3.47-1.35 5.52-2.64 8.16-5.22 1.8-1.75 3.26-3.52 4.33-5.26.46-.74.84-1.48 1.15-2.21.01-.04.03-.07.04-.1 1.56-3.76 1.11-7.31-1.9-10.19-.82-.8-3.06-2.47-4.73-2.95-.93-.27-1.67-.18-1.92.62 0 .38.62.71 1.51 1.15 1.76.87 4.57 2.14 5.68 5.01.36.95.56 2.31.42 3.7-.1 1.08-.41 2.18-1.01 3.11a8.38 8.38 0 00-.15-.64 5.95 5.95 0 00-.87-1.9c-.73-1.04-1.88-1.88-3.67-2.28-2.59-1.34-.1-.69-4.65-4.62.09-.48.18-.86.25-1.19.28-1.22.39-1.69-.54-3.34-.98-1.69-1.08-2.33-2.44-3.28-.3.15-.49.45-.64.65-.13.1-.21.19-.27.26-.05.05-.09.09-.13.12-.19.14-.47.09-2-.23 0 .84-.08 1.48-.21 1.99-.57 2.13-2.05 1.94-2.33 4.67 1.22 1.14.74 1.09 2.45 1.49-.03.18-.05.36-.07.52-.34 2.5-.47 3.5-.23 4.41.23.89.81 1.68 1.91 3.67 1.27 2.34 2.1 5.82.93 8.56-1.42 3.19-10.47 3.15-14.83 1.86-1.2-.36-2.05-.81-2.28-1.32.69-.17 1.41-.46 2.12-.85 2.86-1.56 5.68-4.62 6.77-7 2.55-5.67 2.06-12.43-2-16.66.08-5.1-.87-6.37-1.48-7.18-.11-.14-.2-.27-.28-.4-.26-.44-.33-.93.1-2.17.72.3 1.29.64 1.8.95.15.1.3.19.44.28 1.62 1.03 2.6 1.66 5.73-.18.03-.75.01-1.2-.01-1.53-.03-.75-.04-.87.64-2.35.61-1.23.6-1.45.57-1.94-.02-.3-.04-.7.07-1.49.18-1.31.7-1.75 1.21-2.19.5-.44 1.01-.87 1.17-2.15.07-.52.08-1.18.02-2.03l-1.33.21-.66.1-1.59.24c.1-.32.19-.56.26-.73.02-.04.03-.07.04-.09.17-.43.23-.58.12-1.27zm-2.33 1.5q-2.52.3-6.33 1.19-2.56.59-6.53 3.08l-.06.04q-.02.01-.05.02-6.87 3.76-10.45 9.54-2.9 4.67-3.66 10.67-1.07 8.54 2.48 14.16 1.7 2.7 4.47 4.73.05.03.09.07.04.03.08.07 2.24 2.05 4.83 3.45 1 .53 2.04.97-.06-.11-.11-.22-.35-.75-.06-1.53t1.04-1.13q.09-.03.18-.07.09-.03.18-.05 1.99-.48 4.36-2.66 2.28-2.09 3.2-4.09 1.19-2.66 1.36-5.39.07-1.21-.06-2.43-.32-3.01-1.81-5.23-.5-.74-1.12-1.39-.28-.28-.42-.65-.15-.37-.14-.76.07-4.42-1.08-5.95-.4-.54-.61-1.14-.5-1.45.14-3.28.27-.78 1.01-1.15.75-.36 1.53-.09l.06.02q.03.02.06.03 1.1.46 2.54 1.38 1.03.66 1.36.68.45.03 1.3-.37v-.24q-.07-1.35.82-3.27 0-.02.01-.03 0-.01.01-.02.37-.76.36-.94-.05-.9.09-1.89.13-.96.55-1.77.48-.92 1.33-1.65.14-.12.24-.3l-1.01.16q-.82.12-1.49-.37-.66-.49-.79-1.31-.04-.22-.02-.45.02-.22.08-.43v-.01zm7.49 47.33q2.17-1.02 4.02-2.45 1-.77 1.91-1.66 2.24-2.18 3.62-4.22-.17-.15-.3-.35-.24-.34-.31-.75-.24-1.29-1-2.09-.8-.84-2.17-1.15-.12-.02-.24-.07-.12-.04-.24-.1-1.76-.92-2.38-2.09-.51-.95-2.65-2.8-.4-.34-.58-.84-.18-.5-.09-1.02.1-.52.27-1.28.05-.22.06-.44.03-.73-.39-1.48-.23-.38-.57-1.03-.14-.26-.29-.49-.47.2-1.12.23-.27 1.09-.81 2.01-.33.55-.75 1.03-.34.39-.53.82.18.06.69.17.75.18 1.19.81.44.64.34 1.4-.02.19-.07.53-.38 2.88-.32 3.44.06.41.87 1.82.55.95.9 1.59 2.33 4.28 1.69 8.06-.2 1.14-.67 2.24-.04.09-.08.16zm69.17-30.51q-.53-.31-1.23-.31-.75 0-1.29.33-.07.04-.14.1-.39.34-.39 1.14 0 .75.38 1.11.07.06.15.12.54.32 1.29.32.69 0 1.21-.29.02-.02.05-.03.1-.06.17-.13.37-.36.37-1.1 0-.79-.38-1.13-.07-.07-.16-.11-.01-.01-.03-.02zM71.7 22.71q.65-.38 1.51-.38.36 0 .72.06.47.06.92.22.81.27 1.6.62l1.06-2.72q-.35-.17-.72-.31-.68-.27-1.41-.43-1.11-.25-2.15-.25-2.2 0-3.72.94-.63.39-1.13.9-.71.73-1.17 1.7-.78 1.65-.78 3.82 0 2.19.69 3.83.43 1.01 1.13 1.75.45.46 1 .82 1.44.92 3.72.92 1.12 0 2.07-.19.95-.18 1.91-.58v-2.88q-.98.36-1.86.59-.51.14-1.03.19-.37.04-.75.04-1.28 0-2.07-.62-.27-.22-.49-.52-.82-1.16-.82-3.33 0-2.12.86-3.34.39-.55.91-.85zm61.05 1.08q-1.18-1-3.31-1-1.33 0-2.47.27-1.14.26-2.04.73l1.02 2.25q.81-.35 1.58-.58.78-.22 1.5-.22.71 0 1.12.34.01.01.01.02.01.01.03.02.38.35.38 1.13v.33l-1.88.05q-2.37.11-3.6.96-.41.28-.68.65-.56.77-.56 1.93 0 1.7.85 2.56l.11.11q.25.22.54.39.81.47 1.88.47 1.36 0 2.14-.4.78-.39 1.48-1.28h.08l.66 1.48h2.34v-7.29q0-1.5-.73-2.45-.2-.25-.45-.47zm-45.05 0q-1.3-.98-3.33-.98-1.6 0-2.79.63-.35.19-.66.43-.72.58-1.19 1.49-.66 1.28-.66 3.22 0 1.91.73 3.16.4.69.98 1.19.46.4 1.04.66 1.29.61 2.95.61 1.34 0 2.25-.2.61-.12 1.18-.35.28-.12.55-.26v-2.5q-.92.44-1.79.64t-1.91.2q-1.15 0-1.8-.57-.04-.03-.08-.07-.14-.14-.26-.3-.4-.57-.43-1.41h6.93v-1.57q0-2.19-1.08-3.44-.13-.15-.28-.28-.17-.16-.35-.3zM98.73 34h3.36V23.01h-8.84q-.17 2.7-.38 4.38-.21 1.68-.47 2.58-.25.89-.54 1.2-.24.25-.51.3-.06.01-.12.01-.5 0-.9-.19v2.58q.68.33 1.71.33 1 0 1.71-.46.26-.17.48-.4.82-.86 1.27-2.76.45-1.91.71-5.05h2.52V34zm9.62 0V23.01h-3.36V34h3.36zm6.28-6.88v-4.11h-3.38V34h3.38v-4.38h3.65V34h3.35V23.01h-3.35v4.11h-3.65zM83.5 25.38q.41-.22.93-.22.73 0 1.17.35.13.11.23.24.08.1.14.2.33.53.34 1.24h-3.78q.1-1.06.61-1.54.17-.16.36-.27zm44.29 4.1q.5-.41 1.76-.45l1.02-.03v.87q0 .6-.27 1.03-.12.2-.31.37-.19.16-.41.28-.45.22-1.01.22-.52 0-.87-.24-.02-.02-.05-.03-.05-.04-.09-.09-.27-.28-.27-.81 0-.44.19-.76.12-.2.31-.36z" fill="#070707" fill-rule="evenodd"/></svg>