<svg width="176" height="162" fill="none" xmlns="http://www.w3.org/2000/svg"><path d="M113.775 94.003c-9.289-6.616-17.933-9.925-25.933-9.925-6.034 0-12.576 2.002-19.627 6.006a83.234 83.234 0 00-19.068 14.863 87.252 87.252 0 00-14.186 19.596c-3.797 7.16-5.695 13.658-5.695 19.494 0 9.909 6.203 14.863 18.61 14.863 5.017 0 11.814-1.51 20.39-4.53 8.576-3.02 15.102-4.53 19.576-4.53 4.272 0 10.458 1.527 18.56 4.581 8.102 3.054 14.457 4.581 19.068 4.581 2.915 0 5.491-.187 7.729-.56a25.78 25.78 0 006.559-2.036c2.136-.984 3.78-2.511 4.932-4.581 1.153-2.07 1.729-4.666 1.729-7.788 0-7.804-3.119-16.44-9.356-25.907-6.237-9.468-14-17.51-23.288-24.127z" fill="#045C6F" stroke="#045C6F" stroke-width="5.862"/><path class="paw-1" d="M168.734 58.28c-2.847-4.037-6.881-6.056-12.101-6.056-5.153 0-9.95 1.883-14.39 5.65-4.441 3.766-7.848 8.313-10.221 13.64-2.373 5.328-3.559 10.503-3.559 15.525 0 5.429 1.424 10.145 4.271 14.15 2.848 4.004 6.882 6.006 12.102 6.006 5.152 0 9.949-1.884 14.39-5.65 4.441-3.767 7.847-8.297 10.22-13.59 2.373-5.294 3.56-10.451 3.56-15.474 0-5.429-1.424-10.162-4.272-14.2z" fill="#fff" stroke="#045C6F" stroke-width="5.862"/><path class="paw-2" d="M101.788 58.989c2.983 2.647 6.543 3.97 10.678 3.97 5.153 0 9.831-1.951 14.034-5.853 4.204-3.903 7.322-8.5 9.356-13.794 2.034-5.293 3.051-10.417 3.051-15.371 0-4.072-.644-7.924-1.932-11.554-1.288-3.631-3.424-6.77-6.407-9.417C127.585 4.323 124.026 3 119.89 3c-5.22 0-9.915 1.951-14.085 5.853-4.169 3.903-7.271 8.484-9.305 13.743-2.034 5.26-3.05 10.4-3.05 15.423 0 4.072.643 7.923 1.931 11.554 1.289 3.63 3.424 6.77 6.407 9.416z" fill="#fff" stroke="#045C6F" stroke-width="5.862"/><path class="paw-3" d="M78.63 49.573c1.287-3.631 1.931-7.483 1.931-11.554 0-5.023-1.017-10.163-3.05-15.423-2.034-5.26-5.136-9.84-9.306-13.743C64.035 4.951 59.341 3 54.121 3c-4.136 0-7.695 1.323-10.678 3.97-2.983 2.647-5.12 5.786-6.407 9.417-1.288 3.63-1.933 7.482-1.933 11.553 0 4.955 1.017 10.079 3.051 15.372 2.034 5.294 5.153 9.892 9.356 13.794 4.204 3.902 8.882 5.853 14.034 5.853 4.136 0 7.695-1.323 10.678-3.97 2.984-2.647 5.12-5.785 6.407-9.416z" fill="#fff" stroke="#045C6F" stroke-width="5.862"/><path class="paw-4" d="M47.543 87.039c0 5.429-1.424 10.145-4.271 14.15-2.848 4.004-6.882 6.006-12.102 6.006-5.153 0-9.95-1.884-14.39-5.65-4.441-3.767-7.848-8.297-10.22-13.59C4.185 82.66 3 77.504 3 72.48c0-5.429 1.424-10.162 4.271-14.2 2.848-4.038 6.882-6.057 12.102-6.057 5.153 0 9.95 1.883 14.39 5.65 4.44 3.766 7.847 8.313 10.22 13.64 2.373 5.328 3.56 10.503 3.56 15.525z" stroke="#045C6F" stroke-width="5.862"/></svg>