<svg width="18" height="17" fill="none" xmlns="http://www.w3.org/2000/svg"><path d="M11.73 9.834c-.984-.678-1.9-1.018-2.747-1.018-.638 0-1.331.206-2.078.616a8.965 8.965 0 00-3.521 3.534c-.402.735-.603 1.401-.603 2 0 1.016.657 1.524 1.97 1.524.532 0 1.252-.154 2.16-.464.908-.31 1.599-.465 2.072-.465.453 0 1.108.157 1.966.47.857.313 1.53.47 2.019.47.308 0 .581-.02.818-.058.237-.038.468-.108.694-.208.227-.101.4-.258.523-.47.122-.213.183-.479.183-.799 0-.8-.33-1.686-.99-2.657a9.429 9.429 0 00-2.467-2.475zm5.817-3.664c-.301-.414-.728-.621-1.281-.621-.546 0-1.054.193-1.524.58-.47.386-.83.852-1.082 1.398-.251.547-.377 1.078-.377 1.593 0 .556.151 1.04.452 1.45.302.412.73.617 1.282.617.545 0 1.053-.193 1.524-.58.47-.386.83-.85 1.082-1.393.25-.543.377-1.072.377-1.587 0-.557-.151-1.043-.453-1.457zm-7.087.072c.315.272.692.408 1.13.408.545 0 1.04-.2 1.486-.6.445-.4.775-.873.99-1.415a4.264 4.264 0 00.323-1.577c0-.418-.068-.813-.204-1.185a2.304 2.304 0 00-.679-.966A1.677 1.677 0 0012.376.5c-.553 0-1.05.2-1.492.6-.441.4-.77.87-.985 1.41a4.25 4.25 0 00-.323 1.582c0 .417.068.812.205 1.185.136.372.362.694.678.965zm-2.453-.965c.136-.373.205-.768.205-1.185a4.25 4.25 0 00-.323-1.582 3.768 3.768 0 00-.986-1.41C6.462.7 5.965.5 5.412.5c-.438 0-.815.136-1.13.407a2.304 2.304 0 00-.679.966 3.418 3.418 0 00-.205 1.185c0 .508.108 1.034.323 1.577.216.542.546 1.014.991 1.414.445.4.94.6 1.486.6.438 0 .815-.135 1.13-.407a2.29 2.29 0 00.679-.965zM4.716 9.12c0 .556-.15 1.04-.452 1.45-.301.412-.729.617-1.281.617-.546 0-1.054-.193-1.524-.58A3.91 3.91 0 01.377 9.214C.126 8.67 0 8.142 0 7.627 0 7.07.15 6.584.452 6.17c.302-.414.729-.621 1.282-.621.545 0 1.053.193 1.523.58.47.386.831.852 1.082 1.398.252.547.377 1.078.377 1.593z" fill="#045C6F"/></svg>