<svg width="16" height="15" fill="none" xmlns="http://www.w3.org/2000/svg"><path d="M10.425 8.75c-.875-.637-1.688-.955-2.441-.955-.568 0-1.184.192-1.847.577a7.86 7.86 0 00-1.795 1.43 8.385 8.385 0 00-1.335 1.884c-.358.688-.536 1.313-.536 1.874 0 .953.584 1.43 1.751 1.43.472 0 1.112-.146 1.92-.436.806-.29 1.42-.436 1.842-.436.402 0 .984.147 1.747.44.762.294 1.36.441 1.794.441.275 0 .517-.018.728-.054.21-.036.416-.1.617-.196a.994.994 0 00.464-.44c.109-.199.163-.449.163-.749 0-.75-.294-1.58-.88-2.49a8.627 8.627 0 00-2.193-2.32zm5.174-3.435c-.268-.388-.648-.583-1.14-.583-.484 0-.935.182-1.354.544-.417.362-.738.8-.961 1.311a3.724 3.724 0 00-.335 1.493c0 .522.134.976.402 1.36.268.386.647.578 1.139.578.485 0 .936-.181 1.354-.543.418-.362.739-.798.962-1.307A3.688 3.688 0 0016 6.68c0-.522-.134-.977-.402-1.365zm-6.302.069c.28.254.615.381 1.005.381.485 0 .925-.187 1.32-.563.396-.375.69-.817.881-1.326a4.189 4.189 0 00.287-1.478c0-.391-.06-.762-.182-1.11a2.165 2.165 0 00-.603-.906A1.446 1.446 0 0011 0c-.491 0-.933.188-1.325.563a3.54 3.54 0 00-.876 1.321c-.192.506-.287 1-.287 1.483 0 .392.06.762.182 1.111.12.35.322.651.603.906zm-2.179-.906a3.37 3.37 0 00.182-1.11c0-.484-.096-.978-.287-1.484A3.54 3.54 0 006.137.563C5.745.188 5.303 0 4.811 0c-.389 0-.724.127-1.005.382-.28.254-.481.556-.603.905-.12.35-.182.72-.182 1.111 0 .476.096.97.288 1.478.191.51.485.951.88 1.326.396.376.836.563 1.321.563.39 0 .724-.127 1.005-.381.28-.255.482-.557.603-.906zM4.192 8.08c0 .522-.134.976-.402 1.36-.268.386-.647.578-1.139.578-.485 0-.936-.181-1.354-.543a3.646 3.646 0 01-.962-1.307A3.69 3.69 0 010 6.68c0-.522.134-.977.402-1.365s.648-.583 1.139-.583c.485 0 .936.182 1.354.544.418.362.739.8.962 1.311.224.513.335 1.01.335 1.493z" fill="#fff"/></svg>