<svg width="43" height="28" fill="none" xmlns="http://www.w3.org/2000/svg"><path d="M30.791 4.5c-3.168-2.29-6.118-3.436-8.847-3.436-2.059 0-4.29.693-6.696 2.08a28.458 28.458 0 00-6.506 5.144 30.196 30.196 0 00-4.84 6.784c-1.295 2.478-1.943 4.727-1.943 6.748 0 3.43 2.116 5.144 6.35 5.144 1.711 0 4.03-.522 6.956-1.568 2.926-1.045 5.152-1.568 6.679-1.568 1.457 0 3.568.529 6.332 1.586s4.933 1.585 6.506 1.585c.994 0 1.873-.064 2.637-.193a8.69 8.69 0 002.237-.705 3.63 3.63 0 001.683-1.586c.393-.716.59-1.615.59-2.695 0-2.702-1.064-5.691-3.192-8.969a31.151 31.151 0 00-7.946-8.35z" fill="#D11F2A" stroke="#D11F2A" stroke-width="2"/></svg>