<svg width="19" height="23" fill="none" xmlns="http://www.w3.org/2000/svg"><path d="M4.703 20.38c1.017.917 2.232 1.375 3.643 1.375 1.758 0 3.354-.675 4.788-2.026a12.619 12.619 0 003.192-4.775c.694-1.832 1.04-3.606 1.04-5.32 0-1.41-.22-2.743-.659-4a7.788 7.788 0 00-2.186-3.26C13.505 1.458 12.29 1 10.878 1c-1.78 0-3.382.675-4.805 2.026a12.74 12.74 0 00-3.175 4.757c-.694 1.82-1.04 3.6-1.04 5.339 0 1.41.22 2.742.659 4a7.788 7.788 0 002.186 3.259z" fill="#fff" stroke="#D11F2A" stroke-width="2"/></svg>