<svg width="53" height="51" fill="none" xmlns="http://www.w3.org/2000/svg"><path d="M25 10.5a10 10 0 11-20 0 10 10 0 0120 0zM45 13a7.5 7.5 0 11-15 0 7.5 7.5 0 0115 0zM0 31.125A5.625 5.625 0 015.625 25.5h18.75c.79 0 1.543.163 2.225.457a16.187 16.187 0 00-4.1 10.793 16.248 16.248 0 00.695 4.718C21.145 42.4 18.475 43 15 43 0 43 0 31.75 0 31.75v-.625zm38.752 19.38a13.753 13.753 0 10-12.03-7.083l-1.665 5.466a1.25 1.25 0 001.56 1.562l5.468-1.665a13.687 13.687 0 006.667 1.72zm-5-15a1.251 1.251 0 010-2.503h10a1.25 1.25 0 010 2.5l-10 .003zm5 5h-5a1.25 1.25 0 010-2.5h5a1.25 1.25 0 010 2.5z" fill="#D11F2A"/></svg>