<svg width="53" height="44" fill="none" xmlns="http://www.w3.org/2000/svg"><path d="M16.25 20a9.75 9.75 0 100-19.5 9.75 9.75 0 000 19.5zM23 30.5a7.5 7.5 0 015.121-7.113A5.982 5.982 0 0026 23H6.5a6 6 0 00-6 6s0 12 15.75 12c2.691 0 4.92-.351 6.771-.93A7.635 7.635 0 0123 39.5v-9zm24-18a7.5 7.5 0 11-15 0 7.5 7.5 0 0115 0zm-21 18a4.5 4.5 0 014.5-4.5h18a4.5 4.5 0 014.5 4.5v9a4.5 4.5 0 01-4.5 4.5h-18a4.5 4.5 0 01-4.5-4.5v-9zm3 0v3a4.5 4.5 0 004.5-4.5h-3a1.5 1.5 0 01-1.5 1.5zm21 3v-3a1.5 1.5 0 01-1.5-1.5h-3a4.5 4.5 0 004.5 4.5zM45.5 41h3a1.5 1.5 0 011.5-1.5v-3a4.5 4.5 0 00-4.5 4.5zM29 36.5v3a1.5 1.5 0 011.5 1.5h3a4.5 4.5 0 00-4.5-4.5zm10.5 3a4.5 4.5 0 100-9 4.5 4.5 0 000 9z" fill="#D11F2A"/></svg>