<svg width="16" height="16" fill="none" xmlns="http://www.w3.org/2000/svg"><path d="M10.425 9.632c-.875-.636-1.688-.954-2.441-.954-.568 0-1.184.192-1.847.577a7.86 7.86 0 00-1.795 1.43 8.388 8.388 0 00-1.335 1.884c-.358.688-.536 1.313-.536 1.874 0 .953.584 1.43 1.751 1.43.472 0 1.112-.146 1.92-.436.806-.29 1.42-.436 1.842-.436.402 0 .984.147 1.747.44.762.294 1.36.44 1.794.44.275 0 .517-.017.728-.053a2.38 2.38 0 00.617-.196.999.999 0 00.464-.44c.109-.2.163-.449.163-.749 0-.75-.294-1.58-.88-2.491a8.627 8.627 0 00-2.193-2.32zm5.174-3.434c-.268-.389-.648-.583-1.14-.583-.484 0-.935.181-1.354.543a3.65 3.65 0 00-.961 1.312 3.724 3.724 0 00-.335 1.493c0 .522.134.975.402 1.36.268.385.647.578 1.139.578.485 0 .936-.181 1.354-.543a3.65 3.65 0 00.962-1.307A3.688 3.688 0 0016 7.563c0-.522-.134-.977-.402-1.365zm-6.302.068c.28.255.615.382 1.005.382.485 0 .925-.188 1.32-.563.396-.375.69-.817.881-1.326a4.189 4.189 0 00.287-1.478c0-.392-.06-.762-.182-1.111a2.165 2.165 0 00-.603-.905A1.446 1.446 0 0011 .883c-.491 0-.933.187-1.325.563a3.54 3.54 0 00-.876 1.321c-.192.506-.287 1-.287 1.483 0 .392.06.762.182 1.11.12.35.322.652.603.906zM7.118 5.36c.121-.348.182-.718.182-1.11 0-.483-.096-.977-.287-1.483a3.54 3.54 0 00-.876-1.321C5.745 1.07 5.303.883 4.811.883c-.389 0-.724.127-1.005.382-.28.254-.481.556-.603.905a3.4 3.4 0 00-.182 1.11c0 .477.096.97.288 1.479.191.509.485.951.88 1.326.396.375.836.563 1.321.563.39 0 .724-.127 1.005-.382.28-.254.482-.556.603-.905zM4.192 8.963c0 .522-.134.975-.402 1.36-.268.385-.647.578-1.139.578-.485 0-.936-.181-1.354-.543A3.646 3.646 0 01.335 9.05 3.69 3.69 0 010 7.563c0-.522.134-.977.402-1.365.268-.389.648-.583 1.139-.583.485 0 .936.181 1.354.543.418.363.739.8.962 1.312.224.512.335 1.01.335 1.493z" fill="#D11F2A"/></svg>