<svg width="61" height="60" fill="none" xmlns="http://www.w3.org/2000/svg"><path d="M14.045 15.48l1.62 6.9-1.62 6.87 6.03 3.72 3.69 6.03 6.9-1.62 6.9 1.62 3.69-6.03 6.03-3.72-1.62-6.87 1.62-6.9-6-3.72-3.72-6.03-6.9 1.65-6.87-1.62-3.75 6-6 3.72zm16.65 19.02a12 12 0 010-24c6.6 0 11.97 5.37 11.97 11.97 0 6.66-5.37 12.03-11.97 12.03zm-.06-3c-4.98 0-8.97-4.02-8.97-9 0-4.95 3.99-9 8.97-9s9.03 4.05 9.03 9c0 4.98-4.05 9-9.03 9zm11.52 3.3l-3.84 6.72-6.24-1.41 7.59 17.49 4.2-6.6h7.5l-9.21-16.2zm-23.1.21l3.75 6.75 6.39-1.53-7.53 17.37-4.2-6.6h-7.5l9.09-15.99z" fill="#D11F2A"/></svg>