<svg width="61" height="60" fill="none" xmlns="http://www.w3.org/2000/svg"><path d="M20.75 27a9.75 9.75 0 100-19.5 9.75 9.75 0 000 19.5zm6.75 10.5a7.5 7.5 0 015.121-7.113A5.982 5.982 0 0030.5 30H11a6 6 0 00-6 6s0 12 15.75 12c2.691 0 4.92-.351 6.771-.93a7.635 7.635 0 01-.021-.57v-9zm24-18a7.5 7.5 0 11-15 0 7.5 7.5 0 0115 0zm-21 18A4.5 4.5 0 0135 33h18a4.5 4.5 0 014.5 4.5v9A4.5 4.5 0 0153 51H35a4.5 4.5 0 01-4.5-4.5v-9zm3 0v3A4.5 4.5 0 0038 36h-3a1.5 1.5 0 01-1.5 1.5zm21 3v-3A1.5 1.5 0 0153 36h-3a4.5 4.5 0 004.5 4.5zM50 48h3a1.5 1.5 0 011.5-1.5v-3A4.5 4.5 0 0050 48zm-16.5-4.5v3A1.5 1.5 0 0135 48h3a4.5 4.5 0 00-4.5-4.5zm10.5 3a4.5 4.5 0 100-9 4.5 4.5 0 000 9z" fill="#D11F2A"/></svg>