<svg width="61" height="54" fill="none" xmlns="http://www.w3.org/2000/svg"><path d="M33.835 20h1.781a13.317 13.317 0 0011.552 6.667c1.146 0 2.27-.146 3.333-.417V50a3.33 3.33 0 01-3.333 3.333A3.33 3.33 0 0143.835 50V35.333L29.668 46.667h5.833A3.33 3.33 0 0138.835 50a3.33 3.33 0 01-3.334 3.333h-15c-5.52 0-10-4.479-10-10v-23.28a3.34 3.34 0 00-2.916-3.313l-.823-.105a3.337 3.337 0 01-2.896-3.718 3.337 3.337 0 013.719-2.896l.823.104c5 .625 8.76 4.875 8.76 9.927v8.886C20.751 23.552 26.876 20 33.835 20zM50.5 22.76a10.009 10.009 0 01-11.823-4.135 9.99 9.99 0 01-1.51-5.292V1.115c0-.615.49-1.105 1.104-1.115h.021c.344 0 .667.167.875.438v.01l1.333 1.77L43.335 6l.5.667H50.5L51 6l2.834-3.781L55.168.448v-.01A1.11 1.11 0 0156.043 0h.02c.615.01 1.105.5 1.105 1.115v12.218a9.98 9.98 0 01-6.667 9.427zm-5-9.427a1.667 1.667 0 10-3.334 0 1.667 1.667 0 003.334 0zm5 1.667a1.666 1.666 0 100-3.333 1.666 1.666 0 000 3.333z" fill="#D11F2A"/></svg>