<svg width="60" height="60" fill="none" xmlns="http://www.w3.org/2000/svg"><path d="M18.75 55c-2.417 0-4.48-.854-6.188-2.563C10.854 50.73 10 48.667 10 46.25v-32.5c0-2.417.854-4.48 2.563-6.188C14.27 5.854 16.332 5 18.75 5H50v37.5c-1.042 0-1.927.365-2.655 1.095-.728.73-1.093 1.615-1.095 2.655 0 1.042.365 1.928 1.095 2.657.73.73 1.615 1.095 2.655 1.093v5H18.75zM20 37.5h5V10h-5v27.5zM18.75 50h23.313a11.093 11.093 0 01-.593-1.78 8.51 8.51 0 01-.22-1.97c0-.667.063-1.313.188-1.938a7.19 7.19 0 01.624-1.812H18.75c-1.083 0-1.98.365-2.688 1.095-.708.73-1.062 1.615-1.062 2.655 0 1.083.354 1.98 1.063 2.688.708.708 1.604 1.062 2.687 1.062z" fill="#D11F2A"/></svg>