<svg width="17" height="18" fill="none" xmlns="http://www.w3.org/2000/svg"><path fill-rule="evenodd" clip-rule="evenodd" d="M11.186 3.6h4.236a.6.6 0 010 1.2h-1.5v12a.6.6 0 01-.6.6h-10.2a.594.594 0 01-.6-.6v-12h-1.5a.6.6 0 010-1.2h4.236a3.672 3.672 0 01.72-1.98C6.494.984 7.262.6 8.222.6c.96 0 1.728.384 2.244 1.02a3.68 3.68 0 01.72 1.98zM8.222 1.8c-.612 0-1.032.228-1.308.576-.228.288-.372.72-.432 1.224h3.48c-.072-.504-.192-.936-.432-1.224-.288-.348-.696-.576-1.308-.576zm-4.5 14.4h9V4.8h-9v11.4zm2.336-9.724a.6.6 0 011.024.424v7.2a.6.6 0 11-1.2 0V6.9a.6.6 0 01.176-.424zm3.48 0a.6.6 0 011.024.424v7.2a.6.6 0 01-1.2 0V6.9a.6.6 0 01.176-.424z" fill="#070707"/></svg>