<svg aria-hidden="true" style="position:absolute;width:0;height:0" xmlns="http://www.w3.org/2000/svg" overflow="hidden"><defs><symbol id="icon-burger" viewBox="0 0 50 32"><path d="M0 2.643A2.358 2.358 0 012.357.286h45.571a2.358 2.358 0 110 4.714H2.357A2.358 2.358 0 010 2.643zM0 16a2.358 2.358 0 012.357-2.357h45.571a2.358 2.358 0 110 4.714H2.357A2.358 2.358 0 010 16zm2.357 11a2.358 2.358 0 100 4.714h45.571a2.358 2.358 0 100-4.714H2.357z"/></symbol><symbol id="icon-globus" viewBox="0 0 32 32"><path fill="var(--color1, #fff)" d="M11.523.632c-3.106.9-5.867 2.711-7.922 5.198s-3.31 5.533-3.6 8.742h7.344A35.92 35.92 0 0111.522.63l.002.002zM7.344 17.429H0c.289 3.208 1.544 6.255 3.599 8.742s4.816 4.299 7.921 5.2a35.92 35.92 0 01-4.177-13.942zm7.857 14.552a33.003 33.003 0 01-4.98-14.552h11.555a33.003 33.003 0 01-4.98 14.552c-.531.026-1.064.026-1.595 0zm5.279-.613c3.105-.9 5.866-2.712 7.921-5.199s3.31-5.533 3.6-8.741h-7.344A35.92 35.92 0 0120.48 31.37v-.002zm4.176-16.796H32c-.289-3.208-1.544-6.255-3.599-8.742s-4.816-4.299-7.922-5.2a35.92 35.92 0 014.177 13.942zM15.201.019a16.359 16.359 0 011.597 0 33.004 33.004 0 014.978 14.552H10.223A32.988 32.988 0 0115.201.019z"/></symbol><symbol id="icon-arrow" viewBox="0 0 32 32"><path fill="none" stroke="var(--color2, #045c6f)" stroke-linejoin="round" stroke-linecap="round" stroke-width="5.714" d="M3.07 28.932l25.86-25.86m0 0v19.395m0-19.395H9.535"/></symbol><symbol id="icon-google" viewBox="0 0 37 32"><path fill="var(--color2, #045c6f)" d="M11.048 2.526L0 21.894l5.777 10.105 11.032-19.368zm3.402 19.369L8.673 32H30.77l5.777-10.105zm21.137-1.685L24.033 0H12.496L24.05 20.21h11.537z"/></symbol><symbol id="icon-home" viewBox="0 0 32 32"><path fill="none" stroke="var(--color2, #045c6f)" stroke-linejoin="round" stroke-linecap="round" stroke-width="3" d="M2.5 16l3-3m0 0L16 2.5 26.5 13m-21 0v15A1.5 1.5 0 007 29.5h4.5m15-16.5l3 3m-3-3v15a1.5 1.5 0 01-1.5 1.5h-4.5m-9 0A1.5 1.5 0 0013 28v-6a1.5 1.5 0 011.5-1.5h3A1.5 1.5 0 0119 22v6a1.5 1.5 0 001.5 1.5m-9 0h9"/></symbol><symbol id="icon-clock" viewBox="0 0 32 32"><path fill="none" stroke="var(--color2, #045c6f)" stroke-linejoin="round" stroke-linecap="round" stroke-width="3.2" d="M16 9.6V16l4.8 4.8m9.6-4.8c0 7.953-6.447 14.4-14.4 14.4S1.6 23.953 1.6 16 8.047 1.6 16 1.6 30.4 8.047 30.4 16z"/></symbol><symbol id="icon-calendar" viewBox="0 0 32 32"><path fill="none" stroke="var(--color2, #045c6f)" stroke-linejoin="round" stroke-linecap="round" stroke-width="3.2" d="M9.6 8V1.6M22.4 8V1.6M8 14.4h16m-19.2 16h22.4a3.2 3.2 0 003.2-3.2V8a3.2 3.2 0 00-3.2-3.2H4.8A3.2 3.2 0 001.6 8v19.2a3.2 3.2 0 003.2 3.2z"/></symbol><symbol id="icon-paw" viewBox="0 0 34 32"><path fill="var(--color1, #fff)" d="M22.239 18.665c-1.865-1.357-3.601-2.036-5.207-2.036-1.212 0-2.525.411-3.941 1.232s-2.692 1.838-3.829 3.049c-1.137 1.211-2.086 2.551-2.848 4.02s-1.143 2.802-1.143 3.999c0 2.032 1.246 3.049 3.737 3.049 1.007 0 2.372-.31 4.094-.929s3.032-.929 3.931-.929c.858 0 2.1.313 3.726.94s2.903.94 3.829.94c.585 0 1.103-.038 1.552-.115s.888-.216 1.317-.418.759-.515.99-.94c.231-.425.347-.957.347-1.597 0-1.601-.626-3.372-1.879-5.314s-2.811-3.592-4.676-4.949zm11.038-7.327c-.572-.828-1.382-1.242-2.43-1.242-1.035 0-1.998.386-2.889 1.159s-1.576 1.705-2.052 2.798-.715 2.154-.715 3.184c0 1.114.286 2.081.858 2.903s1.382 1.232 2.43 1.232c1.034 0 1.998-.386 2.889-1.159s1.576-1.702 2.052-2.788c.477-1.086.715-2.144.715-3.174 0-1.114-.286-2.085-.858-2.913zm-13.444.147c.599.543 1.314.814 2.144.814 1.034 0 1.974-.4 2.818-1.201s1.47-1.744 1.879-2.829c.408-1.086.612-2.137.612-3.153 0-.835-.129-1.625-.388-2.37S26.21 1.357 25.612.814C25.013.271 24.298 0 23.468 0c-1.048 0-1.991.4-2.828 1.201s-1.46 1.74-1.868 2.819-.613 2.133-.613 3.164c0 .835.129 1.625.388 2.37s.687 1.389 1.286 1.932zm-4.648-1.932a7.166 7.166 0 00.388-2.37c0-1.03-.204-2.085-.613-3.164S13.929 2 13.092 1.2c-.837-.8-1.78-1.201-2.828-1.201-.83 0-1.545.271-2.144.814S7.092 2 6.834 2.745a7.166 7.166 0 00-.388 2.37c0 1.016.204 2.067.613 3.153s1.035 2.029 1.879 2.829c.844.8 1.783 1.201 2.818 1.201.83 0 1.545-.271 2.144-.814s1.028-1.187 1.286-1.932zm-6.242 7.684c0 1.114-.286 2.081-.858 2.903s-1.382 1.232-2.43 1.232c-1.035 0-1.998-.386-2.889-1.159S1.19 18.511.714 17.425c-.476-1.086-.715-2.144-.715-3.174 0-1.114.286-2.085.858-2.913s1.382-1.242 2.43-1.242c1.035 0 1.998.386 2.889 1.159s1.576 1.705 2.052 2.798.715 2.154.715 3.184z"/></symbol><symbol id="icon-profile_light" viewBox="0 0 32 32"><path stroke-linejoin="round" stroke-width="2.133" d="M1.777 26.665a7.108 7.108 0 017.111-7.111H23.11a7.108 7.108 0 017.111 7.111 3.553 3.553 0 01-3.555 3.555H5.333a3.553 3.553 0 01-3.555-3.555z"/><path stroke-width="2.133" d="M16 12.444a5.333 5.333 0 100-10.667 5.333 5.333 0 000 10.667z"/></symbol><symbol id="icon-blank_alt" viewBox="0 0 26 32"><path stroke-width="2" d="M13.287 31H8c-3.143 0-4.713 0-5.69-.977s-.977-2.547-.977-5.69V7.666c0-3.143 0-4.713.977-5.69S4.857.999 8 .999h10c3.143 0 4.713 0 5.69.977s.977 2.547.977 5.69v11.953c0 .68 0 1.022-.127 1.328-.127.305-.367.547-.85 1.028l-8.047 8.047c-.483.483-.723.723-1.028.85-.307.127-.648.127-1.328.127z"/><path stroke-width="2" d="M13 31.001v-7.778c0-1.833 0-2.75.57-3.318.568-.57 1.485-.57 3.318-.57h7.778"/></symbol><symbol id="icon-bi_people" viewBox="0 0 43 32"><path d="M40 32s2.667 0 2.667-2.667S40 18.666 29.334 18.666c-10.667 0-13.333 8-13.333 10.667S18.668 32 18.668 32h21.333zm-21.275-2.667l-.059-.011c.003-.704.445-2.747 2.027-4.587 1.472-1.725 4.059-3.403 8.64-3.403 4.579 0 7.165 1.68 8.64 3.403 1.581 1.84 2.021 3.885 2.027 4.587l-.021.005-.037.005H18.726zm10.608-16a5.332 5.332 0 100-10.665 5.332 5.332 0 000 10.665zm8-5.333a7.995 7.995 0 01-4.938 7.39 8.002 8.002 0 01-8.717-1.734 8.002 8.002 0 010-11.313A8 8 0 0137.335 8zM18.496 19.413a16.017 16.017 0 00-3.28-.659 18.792 18.792 0 00-1.883-.088C2.666 18.666 0 26.666 0 29.333 0 31.111.889 32 2.667 32H13.91a5.98 5.98 0 01-.576-2.667c0-2.693 1.005-5.445 2.907-7.744a14.139 14.139 0 012.256-2.176zm-5.376 1.92a14.665 14.665 0 00-2.453 8h-8c0-.693.437-2.747 2.027-4.597 1.453-1.696 3.979-3.349 8.427-3.4v-.003zM4 9.333a8 8 0 1116 0 8 8 0 01-16 0zM12 4a5.332 5.332 0 100 10.665A5.332 5.332 0 0012 4z"/></symbol><symbol id="icon-quill_paper" viewBox="0 0 25 32"><path stroke-linejoin="round" stroke-linecap="round" stroke-width="1.778" d="M5.778 8.222h4.444M5.778 16h13.333M5.778 20.444h13.333M5.778 24.889h4.444m-6.666 5.555h17.778a2.22 2.22 0 002.222-2.222V3.778a2.22 2.22 0 00-2.222-2.222H3.556a2.22 2.22 0 00-2.222 2.222v24.444a2.22 2.22 0 002.222 2.222z"/></symbol><symbol id="icon-animal_cat_20" viewBox="0 0 32 32"><path d="M5.94 32H24.5a3.43 3.43 0 003.43-3.432v-15.22c3.22-.128 5.146-3.7 3.426-6.476l-1.004-1.62a4.248 4.248 0 00-3.604-2.008h-2.87V1.972a1.978 1.978 0 00-.577-1.395A1.973 1.973 0 0021.906 0a4.884 4.884 0 00-4.516 3.021 4.906 4.906 0 00-.372 1.871v6.912c-2.556.252-4.486 1.46-5.904 3.164-1.564 1.88-2.486 4.33-3.034 6.684-.552 2.364-.746 4.716-.806 6.464A39.266 39.266 0 007.258 30H5.94a3.942 3.942 0 01-2.88-6.634l1.84-1.974a7.178 7.178 0 00-.172-9.968L2.922 9.618a1 1 0 10-1.413 1.413l1.806 1.806a5.172 5.172 0 01.124 7.19l-1.84 1.974a5.943 5.943 0 00-1.103 6.421A5.954 5.954 0 005.941 32zM21.88 2v2.244a.997.997 0 001 1h3.868c.776 0 1.496.4 1.904 1.06l1.006 1.622a2.237 2.237 0 01.054 2.273 2.242 2.242 0 01-1.96 1.153h-.82a.997.997 0 00-1 1v16.216c0 .79-.64 1.432-1.432 1.432h-1.432v-1.432a5.86 5.86 0 00-5.86-5.866H15.18a.997.997 0 00-1 1 .997.997 0 001 1h2.026a3.864 3.864 0 013.864 3.866V30H9.258c-.01-.468-.01-1.088.014-1.818.056-1.672.24-3.88.754-6.076.514-2.208 1.34-4.318 2.624-5.86 1.254-1.502 2.956-2.49 5.368-2.49a.997.997 0 001-1V4.892A2.891 2.891 0 0121.88 2z"/></symbol><symbol id="icon-documents_outline" viewBox="0 0 27 32"><path d="M19.841 1.044l.579-.869L20.157 0h-.315v1.044zm6.266 4.177h1.044v-.56l-.466-.309-.579.869zm-2.088 19.842H7.31v2.089h16.709v-2.089zM6.266 24.019V3.133H4.177v20.886h2.089zM7.31 2.089h12.531V0H7.31v2.089zm17.753 3.132v18.797h2.089V5.221h-2.089zm-5.8-3.308l6.266 4.177 1.157-1.738L20.42.175l-1.157 1.738zM7.31 25.063a1.041 1.041 0 01-1.044-1.044H4.177a3.135 3.135 0 003.133 3.133v-2.089zm16.709 2.088a3.135 3.135 0 003.133-3.133h-2.089a1.041 1.041 0 01-1.044 1.044v2.089zM6.266 3.133A1.041 1.041 0 017.31 2.089V0a3.135 3.135 0 00-3.133 3.133h2.089zM0 7.31v20.886h2.089V7.31H0zm3.133 24.019h16.709V29.24H3.133v2.089zm0-25.063h2.089V4.177H3.133v2.089zm19.841 21.93v-2.089h-2.089v2.089h2.089zm-3.133 3.133a3.135 3.135 0 003.133-3.133h-2.089a1.041 1.041 0 01-1.044 1.044v2.089zM0 28.196a3.135 3.135 0 003.133 3.133V29.24a1.041 1.041 0 01-1.044-1.044H0zM2.089 7.31a1.041 1.041 0 011.044-1.044V4.177A3.135 3.135 0 000 7.31h2.089z"/></symbol><symbol id="icon-arrow_left_up" viewBox="0 0 32 32"><path fill="var(--color3, #8000ff)" d="M31.555 2.668A2.22 2.22 0 0029.333.446H11.555a2.22 2.22 0 00-2.222 2.222 2.22 2.22 0 002.222 2.222h12.413L1.857 27.001a2.22 2.22 0 003.142 3.142L27.11 8.032v12.413a2.22 2.22 0 002.222 2.222 2.22 2.22 0 002.222-2.222V2.667z"/></symbol><symbol id="icon-play_arrow" viewBox="0 0 25 32"><path d="M.445.445v31.111l24.444-15.555L.445.445z"/></symbol><symbol id="icon-mdi_smiley" viewBox="0 0 32 32"><path d="M16 0C7.152 0 0 7.2 0 16a16.003 16.003 0 0016 16 16.003 16.003 0 0016-16A16.002 16.002 0 0016 0zm5.6 9.6a2.401 2.401 0 11-.001 4.802A2.401 2.401 0 0121.6 9.6zm-11.2 0a2.401 2.401 0 11-.001 4.802A2.401 2.401 0 0110.4 9.6zM16 24.8c-3.728 0-6.896-2.336-8.176-5.6h16.352c-1.296 3.264-4.448 5.6-8.176 5.6z"/></symbol><symbol id="icon-smile" viewBox="0 0 32 32"><path fill="var(--color4, #d11f2a)" d="M16 0C7.152 0 0 7.2 0 16a16.004 16.004 0 009.877 14.782A16.002 16.002 0 0032 16 16.002 16.002 0 0016 0zm5.6 9.6a2.4 2.4 0 110 4.799 2.4 2.4 0 010-4.799zm-11.2 0a2.4 2.4 0 110 4.799 2.4 2.4 0 010-4.799zM16 24.8c-3.728 0-6.896-2.336-8.176-5.6h16.352c-1.296 3.264-4.448 5.6-8.176 5.6z"/></symbol><symbol id="icon-awards" viewBox="0 0 25 32"><path fill="var(--color4, #d11f2a)" d="M2.645 6.328l.978 4.166-.978 4.148 3.641 2.246 2.228 3.641 4.166-.978 4.166.978 2.228-3.641 3.641-2.246-.978-4.148.978-4.166-3.623-2.246L16.846.441l-4.166.996L8.532.459 6.268 4.082 2.645 6.328zm10.053 11.484A7.243 7.243 0 017.575 5.444a7.245 7.245 0 015.123-2.122c3.985 0 7.227 3.242 7.227 7.227 0 4.021-3.242 7.263-7.227 7.263zM12.662 16a5.411 5.411 0 01-5.416-5.434c0-2.989 2.409-5.434 5.416-5.434s5.452 2.445 5.452 5.434c0 3.007-2.445 5.434-5.452 5.434zm6.955 1.993l-2.319 4.057-3.768-.851 4.583 10.56 2.536-3.985h4.528l-5.561-9.781zM5.67 18.12l2.264 4.075 3.858-.924-4.546 10.488-2.536-3.985H.182L5.67 18.12z"/></symbol><symbol id="icon-people_money" viewBox="0 0 39 32"><path fill="var(--color4, #d11f2a)" d="M11.818 14.545a7.09 7.09 0 100-14.18 7.09 7.09 0 000 14.18zm4.909 7.637a5.456 5.456 0 013.725-5.173 4.35 4.35 0 00-1.543-.281H4.727a4.36 4.36 0 00-4.364 4.364s0 8.727 11.455 8.727c1.957 0 3.578-.255 4.924-.676a5.733 5.733 0 01-.015-.415v-6.545zM34.182 9.091a5.454 5.454 0 11-10.908 0 5.454 5.454 0 0110.908 0zM18.909 22.182a3.272 3.272 0 013.273-3.273h13.091a3.272 3.272 0 013.273 3.273v6.545A3.272 3.272 0 0135.273 32H22.182a3.272 3.272 0 01-3.273-3.273v-6.545zm2.182 0v2.182a3.272 3.272 0 003.273-3.273h-2.182a1.094 1.094 0 01-1.091 1.091zm15.273 2.182v-2.182a1.088 1.088 0 01-1.09-1.091h-2.182a3.272 3.272 0 003.273 3.273zm-3.273 5.454h2.182a1.092 1.092 0 011.09-1.091v-2.182a3.272 3.272 0 00-3.273 3.273zm-12-3.273v2.182a1.094 1.094 0 011.091 1.091h2.182a3.272 3.272 0 00-3.273-3.273zm7.636 2.182a3.272 3.272 0 100-6.544 3.272 3.272 0 000 6.544z"/></symbol><symbol id="icon-cat" viewBox="0 0 32 32"><path fill="var(--color4, #d11f2a)" d="M17.975 11.852h1.056a7.892 7.892 0 006.846 3.951c.679 0 1.346-.086 1.975-.247V29.63c0 1.093-.883 1.975-1.975 1.975s-1.975-.883-1.975-1.975v-8.691l-8.395 6.716h3.457c1.093 0 1.975.883 1.975 1.975s-.883 1.975-1.975 1.975h-8.889a5.927 5.927 0 01-5.926-5.926V11.883c0-.994-.741-1.84-1.728-1.963l-.488-.062C.853 9.722.081 8.735.217 7.654S1.34 5.802 2.421 5.938L2.909 6A5.926 5.926 0 018.1 11.883v5.265a11.843 11.843 0 019.877-5.296zm9.877 1.636a5.932 5.932 0 01-7.006-2.451 5.92 5.92 0 01-.895-3.136V.66a.66.66 0 01.654-.66h.012a.66.66 0 01.519.259v.006l.79 1.049 1.975 2.636h3.951L30.617.265V.259A.656.656 0 0131.136 0h.012a.66.66 0 01.654.66v7.241a5.91 5.91 0 01-.778 2.938 5.94 5.94 0 01-3.173 2.648zm-2.963-5.587a.987.987 0 10-1.974 0 .987.987 0 001.974 0zm2.963.988a.987.987 0 100-1.974.987.987 0 000 1.974z"/></symbol><symbol id="icon-people" viewBox="0 0 33 32"><path fill="var(--color4, #d11f2a)" d="M15.686 6.588a6.275 6.275 0 11-12.55 0 6.275 6.275 0 0112.55 0zm12.549 1.569a4.702 4.702 0 01-4.706 4.706 4.702 4.702 0 01-4.706-4.706 4.702 4.702 0 014.706-4.706 4.704 4.704 0 014.706 4.706zM0 19.529a3.53 3.53 0 013.53-3.53h11.765c.496 0 .968.102 1.396.287a10.16 10.16 0 00-2.573 6.772c-.001 1.003.146 2 .436 2.96-1.286.585-2.962.962-5.142.962C0 26.98 0 19.921 0 19.921v-.392zm24.315 12.16a8.624 8.624 0 008.324-6.361 8.624 8.624 0 00-3.948-9.704A8.632 8.632 0 0018.29 16.88a8.632 8.632 0 00-1.524 10.365l-1.045 3.429c-.042.136-.046.281-.011.419s.106.264.206.365a.79.79 0 00.784.196l3.431-1.045a8.585 8.585 0 004.184 1.079zm-3.137-9.411a.786.786 0 010-1.57h6.274a.786.786 0 010 1.57l-6.274.002zm3.137 3.137h-3.137a.786.786 0 010-1.57h3.137a.786.786 0 010 1.57z"/></symbol><symbol id="icon-book" viewBox="0 0 26 32"><path fill="var(--color4, #d11f2a)" d="M5.6 32c-1.547 0-2.867-.547-3.96-1.64S0 27.947 0 26.4V5.6c0-1.547.547-2.867 1.64-3.96S4.053 0 5.6 0h20v24c-.667 0-1.233.234-1.699.701s-.7 1.034-.701 1.699c0 .667.234 1.234.701 1.701s1.034.7 1.699.699V32h-20zm.8-11.2h3.2V3.2H6.4v17.6zm-.8 8h14.92c-.16-.373-.286-.753-.379-1.139s-.14-.806-.141-1.261c0-.427.04-.84.12-1.24s.213-.787.4-1.16H5.6c-.693 0-1.267.234-1.72.701S3.2 25.735 3.2 26.4c0 .693.227 1.267.68 1.72s1.027.68 1.72.68z"/></symbol><symbol id="icon-triangle" viewBox="0 0 61 32"><path d="M60.316.563H.36L30.338 31.44 60.316.563z"/></symbol><symbol id="icon-paw5" viewBox="0 0 26 32"><path stroke="#d11f2a" stroke-width="2.909" d="M22.607 4.561c-1.413-2.033-3.415-3.05-6.006-3.05-2.557 0-4.937.948-7.141 2.845s-3.894 4.186-5.072 6.868c-1.178 2.682-1.766 5.288-1.766 7.816 0 2.734.707 5.108 2.12 7.125s3.415 3.024 6.006 3.024c2.557 0 4.937-.948 7.141-2.845s3.894-4.177 5.072-6.843c1.178-2.665 1.766-5.262 1.766-7.791 0-2.734-.706-5.117-2.12-7.15z"/></symbol><symbol id="icon-paw4" viewBox="0 0 26 32"><path stroke="#d11f2a" stroke-width="2.783" d="M6.543 28.356c1.416 1.275 3.106 1.912 5.069 1.912 2.446 0 4.666-.94 6.662-2.819s3.476-4.094 4.441-6.643c.965-2.549 1.448-5.017 1.448-7.403 0-1.961-.306-3.816-.917-5.565s-1.625-3.26-3.041-4.535c-1.416-1.275-3.106-1.912-5.069-1.912-2.478 0-4.707.94-6.686 2.819s-3.451 4.086-4.417 6.619c-.965 2.533-1.448 5.009-1.448 7.428 0 1.961.306 3.816.917 5.565s1.625 3.26 3.041 4.535z"/></symbol><symbol id="icon-paw3" viewBox="0 0 26 32"><path stroke="#d11f2a" stroke-width="2.783" d="M23.373 23.821c.611-1.749.917-3.603.917-5.565 0-2.419-.483-4.894-1.448-7.428s-2.438-4.739-4.417-6.619C16.446 2.33 14.217 1.39 11.739 1.39c-1.963 0-3.653.637-5.069 1.912S4.24 6.088 3.629 7.837c-.611 1.749-.917 3.603-.917 5.565 0 2.386.483 4.854 1.448 7.403s2.446 4.764 4.441 6.643 4.216 2.819 6.662 2.819c1.963 0 3.653-.637 5.069-1.912s2.43-2.786 3.041-4.535z"/></symbol><symbol id="icon-paw2" viewBox="0 0 26 32"><path stroke="#d11f2a" stroke-width="2.909" d="M23.559 19.041c0 2.734-.706 5.108-2.12 7.125s-3.415 3.024-6.006 3.024c-2.557 0-4.937-.948-7.141-2.845s-3.894-4.177-5.072-6.843c-1.178-2.665-1.766-5.262-1.766-7.791 0-2.734.707-5.117 2.12-7.15s3.415-3.05 6.006-3.05c2.557 0 4.937.948 7.141 2.845s3.894 4.186 5.072 6.868c1.178 2.682 1.766 5.288 1.766 7.816z"/></symbol><symbol id="icon-paw1" viewBox="0 0 49 32"><path fill="var(--color4, #d11f2a)" stroke="var(--color4, #d11f2a)" stroke-width="2.286" d="M35.19 5.143c-3.622-2.618-6.992-3.926-10.111-3.926-2.353 0-4.904.792-7.653 2.376s-5.228 3.544-7.435 5.88-4.051 4.92-5.532 7.752-2.221 5.403-2.221 7.712c0 3.92 2.419 5.88 7.256 5.88 1.956 0 4.606-.597 7.95-1.792s5.888-1.792 7.633-1.792c1.665 0 4.078.604 7.237 1.812s5.637 1.812 7.435 1.812c1.137 0 2.141-.074 3.014-.221s1.725-.416 2.558-.805c.833-.389 1.474-.993 1.923-1.812s.674-1.846.674-3.081c0-3.087-1.216-6.504-3.648-10.249s-5.459-6.927-9.08-9.544z"/></symbol><symbol id="icon-remove" viewBox="0 0 160 32"><path fill="var(--color1, #fff)" d="M5.328 26.661V5.328h149.333v21.333H5.328z"/></symbol><symbol id="icon-logo_icon" viewBox="0 0 32 32"><path fill="var(--color1, #fff)" d="M31.761 16.27c0 8.676-7.108 15.709-15.876 15.709S.009 24.946.009 16.27C.009 7.594 7.117.561 15.885.561S31.761 7.594 31.761 16.27z"/><path fill="var(--color5, #181a2a)" stroke="var(--color5, #181a2a)" stroke-linejoin="round" stroke-width="1.143" d="M18.423 1.396a.57.57 0 00.633.732l1.406-.216c-.004.331-.04.558-.086.717a.89.89 0 01-.268.441c-.047.045-.087.079-.137.122l-.107.092a2.61 2.61 0 00-.32.33c-.23.29-.395.659-.47 1.192a4.506 4.506 0 00-.045.984c.002.04.004.072.004.097v.004c0 .056 0 .153-.27.703l-.007.014c-.269.587-.399.894-.421 1.247-.008.122-.002.255.004.379l.004.088c.004.106.008.236.006.402-.445.242-.77.362-1.021.411a1.135 1.135 0 01-.675-.052c-.211-.082-.416-.212-.722-.407l-.075-.048a8.233 8.233 0 00-1.276-.689.571.571 0 00-.762.34c-.189.548-.268.98-.156 1.375.055.197.148.349.231.468.037.053.077.106.111.152l.009.012c.039.051.074.099.11.15.244.351.654 1.082.614 3.589a.575.575 0 00.159.405c2.117 2.205 2.42 5.803 1.037 8.887-.351.764-1.071 1.705-1.958 2.518-.891.818-1.883 1.443-2.742 1.652a.57.57 0 00-.384.794c.162.352.508.583.817.738.334.168.75.307 1.206.42.914.227 2.063.369 3.217.393 1.151.024 2.341-.069 3.327-.33.947-.251 1.883-.704 2.254-1.54h0l.003-.006c.769-1.793.212-3.977-.554-5.386l-.001-.002a37.32 37.32 0 00-.44-.777l-.069-.119c-.097-.168-.179-.309-.25-.437-.174-.314-.254-.5-.296-.685s-.051-.411-.017-.811c.03-.352.09-.801.175-1.436l.04-.3a.571.571 0 00-.437-.632c-.529-.123-.569-.152-.594-.17a1.378 1.378 0 01-.141-.141l-.002-.002a15.953 15.953 0 00-.183-.191 1.75 1.75 0 01.198-.565c.088-.152.182-.261.315-.413l.116-.134c.189-.222.4-.497.554-.909.094-.252.162-.541.201-.886l.097.017c.158.027.341.052.511.024a.786.786 0 00.464-.257l.038-.041c.029-.032.041-.046.075-.072a.567.567 0 00.058-.052c.202.199.312.403.505.761.091.17.202.375.349.63.317.564.352.777.345.954a2.597 2.597 0 01-.076.447l-.022.095c-.043.188-.096.421-.146.708a.571.571 0 00.189.531c1.272 1.099 1.509 1.515 1.617 1.715l.023.044c.059.113.148.284.322.447.179.168.431.319.802.512.044.023.091.04.139.05.787.175 1.288.507 1.618.893.336.392.528.88.627 1.41a.573.573 0 00.623.463c-.584 1.001-1.423 2.04-2.499 3.085l-.002.002c-1.451 1.421-2.558 2.118-4.472 2.859l-.003.001c-6.066 2.385-11.789.658-15.386-2.645a.612.612 0 00-.049-.04c-3.23-2.364-4.773-6.76-4.199-11.323.572-4.545 3.244-9.188 8.354-11.979a.275.275 0 00.029-.017c1.082-.677 2.774-1.57 3.905-1.831h.002c.338-.079 1.462-.275 2.592-.454.56-.088 1.113-.171 1.558-.232.144-.02.273-.036.384-.05.008.076.003.096.001.109a1.247 1.247 0 01-.064.174 5.573 5.573 0 00-.175.497zm6.695 13.661l.004.004-.004-.004z"/></symbol><symbol id="icon-La_cat" viewBox="0 0 35 32"><path fill="none" stroke="var(--color2, #045c6f)" stroke-linejoin="round" stroke-linecap="round" stroke-miterlimit="10" stroke-width="3.287" d="M10.779 2.649S9.885 6.145 5.65 6.062c-2.118-.083-3.134.75-3.558 1.666-.593 1-.424 2.249.254 3.165.593.916 1.863 1.833 4.15 1.916h1.948"/><path fill="none" stroke="var(--color2, #045c6f)" stroke-linejoin="round" stroke-linecap="round" stroke-miterlimit="10" stroke-width="3.287" d="M8.022 30.136V14.642c.085-2.666 2.456-5.081 5.082-5.914s4.57-.106 4.57-.106m4.535 21.648s.075-4.668.149-9.086c0-2.584-1.491-4.668-4.026-4.752h-.596c-2.535.083-4.026 2.084-4.026 4.752 0 4.418.149 9.086.149 9.086m14.238-10.682c0 3.832-.085 6.716-.085 10.547"/><path fill="none" stroke="var(--color2, #045c6f)" stroke-linejoin="round" stroke-linecap="round" stroke-miterlimit="10" stroke-width="3.114" d="M28.209 4.467s1.264 0 2.107.346c.421.173.674-.26.927-.606l2.191-2.337c.084-.087.169 0 .169.087v7.531c0 .606-1.348 4.242-5.393 4.242h-.169c-4.045 0-5.393-3.636-5.393-4.242V1.87c0-.087.084-.087.169-.087l2.191 2.337c.337.346.506.779.927.692.843-.346 2.107-.346 2.107-.346h.169z"/></symbol><symbol id="icon-to-right" viewBox="0 0 21 32"><path fill="var(--color1, #fff)" d="M13.445 16.002L1.712 4.269 5.064.917l15.085 15.085L5.064 31.087l-3.352-3.352 11.733-11.733z"/></symbol><symbol id="icon-to-left" viewBox="0 0 21 32"><path fill="var(--color1, #fff)" d="M7.888 16.002L19.621 4.269 16.269.917 1.184 16.002l15.085 15.085 3.352-3.352L7.888 16.002z"/></symbol></defs></svg>