<svg aria-hidden="true" style="position: absolute; width: 0; height: 0; overflow: hidden;" version="1.1" xmlns="http://www.w3.org/2000/svg" xmlns:xlink="http://www.w3.org/1999/xlink">
<defs>
<symbol id="icon-burger" viewBox="0 0 50 32">
<path d="M0 2.643c0-0.625 0.248-1.225 0.69-1.667s1.042-0.69 1.667-0.69h45.571c0.625 0 1.225 0.248 1.667 0.69s0.69 1.042 0.69 1.667c0 0.625-0.248 1.225-0.69 1.667s-1.042 0.69-1.667 0.69h-45.571c-0.625 0-1.225-0.248-1.667-0.69s-0.69-1.042-0.69-1.667zM0 16c0-0.625 0.248-1.225 0.69-1.667s1.042-0.69 1.667-0.69h45.571c0.625 0 1.225 0.248 1.667 0.69s0.69 1.042 0.69 1.667c0 0.625-0.248 1.225-0.69 1.667s-1.042 0.69-1.667 0.69h-45.571c-0.625 0-1.225-0.248-1.667-0.69s-0.69-1.042-0.69-1.667zM2.357 27c-0.625 0-1.225 0.248-1.667 0.69s-0.69 1.042-0.69 1.667c0 0.625 0.248 1.225 0.69 1.667s1.042 0.69 1.667 0.69h45.571c0.625 0 1.225-0.248 1.667-0.69s0.69-1.042 0.69-1.667c0-0.625-0.248-1.225-0.69-1.667s-1.042-0.69-1.667-0.69h-45.571z"></path>
</symbol>
<symbol id="icon-globus" viewBox="0 0 32 32">
<path fill="#fff" style="fill: var(--color1, #fff)" d="M11.523 0.632c-3.106 0.9-5.867 2.711-7.922 5.198s-3.31 5.533-3.6 8.742h7.344c0.426-4.882 1.847-9.626 4.177-13.942l0.002 0.002zM7.344 17.429h-7.344c0.289 3.208 1.544 6.255 3.599 8.742s4.816 4.299 7.921 5.2c-2.33-4.316-3.751-9.060-4.177-13.942zM15.201 31.981c-2.784-4.394-4.49-9.379-4.98-14.552h11.555c-0.49 5.173-2.196 10.158-4.98 14.552-0.531 0.026-1.064 0.026-1.595 0zM20.48 31.368c3.105-0.9 5.866-2.712 7.921-5.199s3.31-5.533 3.6-8.741h-7.344c-0.426 4.882-1.847 9.626-4.177 13.942v-0.002zM24.656 14.572h7.344c-0.289-3.208-1.544-6.255-3.599-8.742s-4.816-4.299-7.922-5.2c2.33 4.316 3.751 9.060 4.177 13.942zM15.201 0.019c0.532-0.026 1.065-0.026 1.597 0 2.783 4.394 4.489 9.38 4.978 14.552h-11.553c0.498-5.204 2.208-10.194 4.978-14.552z"></path>
</symbol>
<symbol id="icon-arrow" viewBox="0 0 32 32">
<path fill="none" stroke="#045c6f" style="stroke: var(--color2, #045c6f)" stroke-linejoin="round" stroke-linecap="round" stroke-miterlimit="4" stroke-width="5.7143" d="M3.070 28.932l25.86-25.86M28.93 3.072v19.395M28.93 3.072h-19.395"></path>
</symbol>
<symbol id="icon-google" viewBox="0 0 37 32">
<path fill="currentColor" d="M11.048 2.526l-11.048 19.368 5.777 10.105 11.032-19.368zM14.45 21.895l-5.777 10.105h22.097l5.777-10.105zM35.587 20.21l-11.554-20.21h-11.537l11.554 20.21h11.537z"></path>
</symbol>
<symbol id="icon-home" viewBox="0 0 32 32">
<path fill="none" stroke="#045c6f" style="stroke: var(--color2, #045c6f)" stroke-linejoin="round" stroke-linecap="round" stroke-miterlimit="4" stroke-width="3" d="M2.5 16l3-3M5.5 13l10.5-10.5 10.5 10.5M5.5 13v15c0 0.828 0.672 1.5 1.5 1.5h4.5M26.5 13l3 3M26.5 13v15c0 0.828-0.672 1.5-1.5 1.5h-4.5M11.5 29.5c0.828 0 1.5-0.672 1.5-1.5v-6c0-0.828 0.672-1.5 1.5-1.5h3c0.828 0 1.5 0.672 1.5 1.5v6c0 0.828 0.672 1.5 1.5 1.5M11.5 29.5h9"></path>
</symbol>
<symbol id="icon-clock" viewBox="0 0 32 32">
<path fill="currentColor" d="M16 9.6v6.4l4.8 4.8M30.4 16c0 7.953-6.447 14.4-14.4 14.4s-14.4-6.447-14.4-14.4c0-7.953 6.447-14.4 14.4-14.4s14.4 6.447 14.4 14.4z"></path>
</symbol>
<symbol id="icon-calendar" viewBox="0 0 32 32">
<path fill="none" stroke="#045c6f" style="stroke: var(--color2, #045c6f)" stroke-linejoin="round" stroke-linecap="round" stroke-miterlimit="4" stroke-width="3.2" d="M9.6 8v-6.4M22.4 8v-6.4M8 14.4h16M4.8 30.4h22.4c1.767 0 3.2-1.433 3.2-3.2v-19.2c0-1.767-1.433-3.2-3.2-3.2h-22.4c-1.767 0-3.2 1.433-3.2 3.2v19.2c0 1.767 1.433 3.2 3.2 3.2z"></path>
</symbol>
<symbol id="icon-paw" viewBox="0 0 34 32">
<path fill="currentColor" d="M22.239 18.665c-1.865-1.357-3.601-2.036-5.207-2.036-1.212 0-2.525 0.411-3.941 1.232s-2.692 1.838-3.829 3.049c-1.137 1.211-2.086 2.551-2.848 4.020s-1.143 2.802-1.143 3.999c0 2.032 1.246 3.049 3.737 3.049 1.007 0 2.372-0.31 4.094-0.929s3.032-0.929 3.931-0.929c0.858 0 2.1 0.313 3.726 0.94s2.903 0.94 3.829 0.94c0.585 0 1.103-0.038 1.552-0.115s0.888-0.216 1.317-0.418 0.759-0.515 0.99-0.94c0.231-0.425 0.347-0.957 0.347-1.597 0-1.601-0.626-3.372-1.879-5.314s-2.811-3.592-4.676-4.949z"></path>
<path fill="currentColor" d="M33.277 11.338c-0.572-0.828-1.382-1.242-2.43-1.242-1.035 0-1.998 0.386-2.889 1.159s-1.576 1.705-2.052 2.798-0.715 2.154-0.715 3.184c0 1.114 0.286 2.081 0.858 2.903s1.382 1.232 2.43 1.232c1.034 0 1.998-0.386 2.889-1.159s1.576-1.702 2.052-2.788c0.477-1.086 0.715-2.144 0.715-3.174 0-1.114-0.286-2.085-0.858-2.913z"></path>
<path fill="currentColor" d="M19.833 11.485c0.599 0.543 1.314 0.814 2.144 0.814 1.034 0 1.974-0.4 2.818-1.201s1.47-1.744 1.879-2.829c0.408-1.086 0.612-2.137 0.612-3.153 0-0.835-0.129-1.625-0.388-2.37s-0.688-1.389-1.286-1.932c-0.599-0.543-1.314-0.814-2.144-0.814-1.048 0-1.991 0.4-2.828 1.201s-1.46 1.74-1.868 2.819-0.613 2.133-0.613 3.164c0 0.835 0.129 1.625 0.388 2.37s0.687 1.389 1.286 1.932z"></path>
<path fill="currentColor" d="M15.185 9.553c0.259-0.745 0.388-1.535 0.388-2.37 0-1.030-0.204-2.085-0.613-3.164s-1.031-2.019-1.868-2.819c-0.837-0.8-1.78-1.201-2.828-1.201-0.83 0-1.545 0.271-2.144 0.814s-1.028 1.187-1.286 1.932c-0.259 0.745-0.388 1.535-0.388 2.37 0 1.016 0.204 2.067 0.613 3.153s1.035 2.029 1.879 2.829c0.844 0.8 1.783 1.201 2.818 1.201 0.83 0 1.545-0.271 2.144-0.814s1.028-1.187 1.286-1.932z"></path>
<path fill="currentColor" d="M8.943 17.237c0 1.114-0.286 2.081-0.858 2.903s-1.382 1.232-2.43 1.232c-1.035 0-1.998-0.386-2.889-1.159s-1.576-1.702-2.052-2.788c-0.476-1.086-0.715-2.144-0.715-3.174 0-1.114 0.286-2.085 0.858-2.913s1.382-1.242 2.43-1.242c1.035 0 1.998 0.386 2.889 1.159s1.576 1.705 2.052 2.798c0.476 1.093 0.715 2.154 0.715 3.184z"></path>
</symbol>
<symbol id="icon-profile_light" viewBox="0 0 32 32">
<path stroke-linejoin="round" stroke-linecap="butt" stroke-miterlimit="4" stroke-width="2.1333" d="M1.777 26.665c0-1.886 0.749-3.695 2.083-5.028s3.142-2.083 5.028-2.083h14.222c1.886 0 3.695 0.749 5.028 2.083s2.083 3.142 2.083 5.028c0 0.943-0.375 1.847-1.041 2.514s-1.571 1.041-2.514 1.041h-21.333c-0.943 0-1.847-0.375-2.514-1.041s-1.041-1.571-1.041-2.514z"></path>
<path stroke-linejoin="miter" stroke-linecap="butt" stroke-miterlimit="4" stroke-width="2.1333" d="M16 12.444c2.945 0 5.333-2.388 5.333-5.333s-2.388-5.333-5.333-5.333c-2.945 0-5.333 2.388-5.333 5.333s2.388 5.333 5.333 5.333z"></path>
</symbol>
<symbol id="icon-blank_alt" viewBox="0 0 26 32">
<path stroke-linejoin="miter" stroke-linecap="butt" stroke-miterlimit="4" stroke-width="2" d="M13.287 31h-5.287c-3.143 0-4.713 0-5.69-0.977s-0.977-2.547-0.977-5.69v-16.667c0-3.143 0-4.713 0.977-5.69s2.547-0.977 5.69-0.977h10c3.143 0 4.713 0 5.69 0.977s0.977 2.547 0.977 5.69v11.953c0 0.68 0 1.022-0.127 1.328-0.127 0.305-0.367 0.547-0.85 1.028l-8.047 8.047c-0.483 0.483-0.723 0.723-1.028 0.85-0.307 0.127-0.648 0.127-1.328 0.127z"></path>
<path stroke-linejoin="miter" stroke-linecap="butt" stroke-miterlimit="4" stroke-width="2" d="M13 31.001v-7.778c0-1.833 0-2.75 0.57-3.318 0.568-0.57 1.485-0.57 3.318-0.57h7.778"></path>
</symbol>
<symbol id="icon-bi_people" viewBox="0 0 43 32">
<path d="M40 32c0 0 2.667 0 2.667-2.667s-2.667-10.667-13.333-10.667c-10.667 0-13.333 8-13.333 10.667s2.667 2.667 2.667 2.667h21.333zM18.725 29.333l-0.059-0.011c0.003-0.704 0.445-2.747 2.027-4.587 1.472-1.725 4.059-3.403 8.64-3.403 4.579 0 7.165 1.68 8.64 3.403 1.581 1.84 2.021 3.885 2.027 4.587l-0.021 0.005-0.037 0.005h-21.216zM29.333 13.333c1.415 0 2.771-0.562 3.771-1.562s1.562-2.357 1.562-3.771-0.562-2.771-1.562-3.771c-1-1-2.357-1.562-3.771-1.562s-2.771 0.562-3.771 1.562c-1 1-1.562 2.357-1.562 3.771s0.562 2.771 1.562 3.771c1 1 2.357 1.562 3.771 1.562zM37.333 8c0 1.051-0.207 2.091-0.609 3.061s-0.991 1.853-1.734 2.595-1.625 1.332-2.595 1.734c-0.971 0.402-2.011 0.609-3.061 0.609s-2.091-0.207-3.061-0.609c-0.971-0.402-1.853-0.991-2.595-1.734s-1.332-1.625-1.734-2.595c-0.402-0.971-0.609-2.011-0.609-3.061 0-2.122 0.843-4.157 2.343-5.657s3.535-2.343 5.657-2.343c2.122 0 4.157 0.843 5.657 2.343s2.343 3.535 2.343 5.657zM18.496 19.413c-1.067-0.334-2.167-0.554-3.28-0.659-0.626-0.061-1.254-0.090-1.883-0.088-10.667 0-13.333 8-13.333 10.667 0 1.778 0.889 2.667 2.667 2.667h11.243c-0.395-0.833-0.592-1.745-0.576-2.667 0-2.693 1.005-5.445 2.907-7.744 0.648-0.784 1.403-1.517 2.256-2.176zM13.12 21.333c-1.577 2.372-2.43 5.152-2.453 8h-8c0-0.693 0.437-2.747 2.027-4.597 1.453-1.696 3.979-3.349 8.427-3.4v-0.003zM4 9.333c0-2.122 0.843-4.157 2.343-5.657s3.535-2.343 5.657-2.343c2.122 0 4.157 0.843 5.657 2.343s2.343 3.535 2.343 5.657c0 2.122-0.843 4.157-2.343 5.657s-3.535 2.343-5.657 2.343c-2.122 0-4.157-0.843-5.657-2.343s-2.343-3.535-2.343-5.657zM12 4c-1.415 0-2.771 0.562-3.771 1.562s-1.562 2.357-1.562 3.771c0 1.415 0.562 2.771 1.562 3.771s2.357 1.562 3.771 1.562 2.771-0.562 3.771-1.562c1-1 1.562-2.357 1.562-3.771s-0.562-2.771-1.562-3.771c-1-1-2.357-1.562-3.771-1.562z"></path>
</symbol>
<symbol id="icon-quill_paper" viewBox="0 0 25 32">
<path stroke-linejoin="round" stroke-linecap="round" stroke-miterlimit="4" stroke-width="1.7778" d="M5.778 8.222h4.444M5.778 16h13.333M5.778 20.444h13.333M5.778 24.889h4.444M3.556 30.444h17.778c0.589 0 1.155-0.234 1.571-0.651s0.651-0.982 0.651-1.571v-24.444c0-0.589-0.234-1.155-0.651-1.571s-0.982-0.651-1.571-0.651h-17.778c-0.589 0-1.155 0.234-1.571 0.651s-0.651 0.982-0.651 1.571v24.444c0 0.589 0.234 1.155 0.651 1.571s0.982 0.651 1.571 0.651z"></path>
</symbol>
<symbol id="icon-animal_cat_20" viewBox="0 0 32 32">
<path d="M5.94 32h18.56c1.894 0 3.43-1.536 3.43-3.432v-15.22c3.22-0.128 5.146-3.7 3.426-6.476l-1.004-1.62c-0.38-0.614-0.911-1.12-1.541-1.472s-1.341-0.536-2.063-0.536h-2.87v-1.272c0-0.259-0.051-0.515-0.15-0.755s-0.244-0.457-0.427-0.64c-0.183-0.183-0.401-0.328-0.64-0.427s-0.496-0.15-0.755-0.15c-0.642 0-1.278 0.127-1.871 0.373s-1.132 0.606-1.586 1.061c-0.454 0.454-0.814 0.993-1.059 1.587s-0.372 1.229-0.372 1.871v6.912c-2.556 0.252-4.486 1.46-5.904 3.164-1.564 1.88-2.486 4.33-3.034 6.684-0.552 2.364-0.746 4.716-0.806 6.464-0.024 0.748-0.024 1.392-0.016 1.884h-1.318c-0.768 0-1.52-0.224-2.163-0.646s-1.148-1.021-1.454-1.726c-0.306-0.705-0.399-1.484-0.268-2.241s0.48-1.46 1.005-2.021l1.84-1.974c1.268-1.36 1.959-3.159 1.927-5.019s-0.785-3.634-2.099-4.949l-1.806-1.806c-0.092-0.095-0.203-0.172-0.325-0.224s-0.253-0.080-0.386-0.081c-0.133-0.001-0.264 0.024-0.387 0.074s-0.235 0.125-0.328 0.218c-0.094 0.094-0.168 0.206-0.218 0.328s-0.076 0.255-0.074 0.387 0.029 0.264 0.081 0.386c0.052 0.122 0.129 0.232 0.224 0.325l1.806 1.806c0.949 0.948 1.492 2.229 1.515 3.57s-0.476 2.639-1.391 3.62l-1.84 1.974c-0.789 0.847-1.313 1.905-1.509 3.046s-0.055 2.313 0.406 3.375c0.461 1.061 1.222 1.965 2.189 2.601s2.099 0.975 3.256 0.977zM21.88 2v2.244c0 0.265 0.105 0.52 0.293 0.707s0.442 0.293 0.707 0.293h3.868c0.776 0 1.496 0.4 1.904 1.060l1.006 1.622c0.211 0.34 0.327 0.73 0.336 1.129s-0.088 0.794-0.282 1.144c-0.194 0.349-0.478 0.64-0.823 0.843s-0.737 0.31-1.137 0.31h-0.82c-0.265 0-0.52 0.105-0.707 0.293s-0.293 0.442-0.293 0.707v16.216c0 0.79-0.64 1.432-1.432 1.432h-1.432v-1.432c0.001-1.555-0.616-3.046-1.715-4.146s-2.59-1.718-4.145-1.72h-2.028c-0.265 0-0.52 0.105-0.707 0.293s-0.293 0.442-0.293 0.707 0.105 0.52 0.293 0.707c0.188 0.188 0.442 0.293 0.707 0.293h2.026c2.134 0 3.864 1.73 3.864 3.866v1.432h-11.812c-0.010-0.468-0.010-1.088 0.014-1.818 0.056-1.672 0.24-3.88 0.754-6.076 0.514-2.208 1.34-4.318 2.624-5.86 1.254-1.502 2.956-2.49 5.368-2.49 0.265 0 0.52-0.105 0.707-0.293s0.293-0.442 0.293-0.707v-7.864c0-1.588 1.28-2.878 2.862-2.892z"></path>
</symbol>
<symbol id="icon-documents_outline" viewBox="0 0 27 32">
<path d="M19.841 1.044l0.579-0.869-0.263-0.175h-0.315v1.044zM26.107 5.221h1.044v-0.56l-0.466-0.309-0.579 0.869zM24.019 25.063h-16.709v2.089h16.709v-2.089zM6.266 24.019v-20.886h-2.089v20.886h2.089zM7.31 2.089h12.531v-2.089h-12.531v2.089zM25.063 5.221v18.797h2.089v-18.797h-2.089zM19.263 1.913l6.266 4.177 1.157-1.738-6.266-4.177-1.157 1.738zM7.31 25.063c-0.277 0-0.543-0.11-0.738-0.306s-0.306-0.461-0.306-0.738h-2.089c0 0.831 0.33 1.628 0.918 2.215s1.384 0.918 2.215 0.918v-2.089zM24.019 27.151c0.831 0 1.628-0.33 2.215-0.918s0.918-1.384 0.918-2.215h-2.089c0 0.277-0.11 0.543-0.306 0.738s-0.461 0.306-0.738 0.306v2.089zM6.266 3.133c0-0.277 0.11-0.543 0.306-0.738s0.461-0.306 0.738-0.306v-2.089c-0.831 0-1.628 0.33-2.215 0.918s-0.918 1.384-0.918 2.215h2.089zM0 7.31v20.886h2.089v-20.886h-2.089zM3.133 31.329h16.709v-2.089h-16.709v2.089zM3.133 6.266h2.089v-2.089h-2.089v2.089zM22.974 28.196v-2.089h-2.089v2.089h2.089zM19.841 31.329c0.831 0 1.628-0.33 2.215-0.918s0.918-1.384 0.918-2.215h-2.089c0 0.277-0.11 0.543-0.306 0.738s-0.461 0.306-0.738 0.306v2.089zM0 28.196c0 0.831 0.33 1.628 0.918 2.215s1.384 0.918 2.215 0.918v-2.089c-0.277 0-0.543-0.11-0.738-0.306s-0.306-0.461-0.306-0.738h-2.089zM2.089 7.31c0-0.277 0.11-0.543 0.306-0.738s0.461-0.306 0.738-0.306v-2.089c-0.831 0-1.628 0.33-2.215 0.918s-0.918 1.384-0.918 2.215h2.089z"></path>
</symbol>
<symbol id="icon-arrow_left_up" viewBox="0 0 32 32">
<path fill="currentColor" style="fill: currentColor" d="M31.555 2.668c0-0.589-0.234-1.155-0.651-1.571s-0.982-0.651-1.571-0.651h-17.778c-0.589 0-1.155 0.234-1.571 0.651s-0.651 0.982-0.651 1.571c0 0.589 0.234 1.155 0.651 1.571s0.982 0.651 1.571 0.651h12.413l-22.111 22.111c-0.405 0.419-0.629 0.98-0.624 1.563s0.239 1.14 0.651 1.552c0.412 0.412 0.969 0.646 1.552 0.651s1.144-0.219 1.563-0.624l22.111-22.111v12.413c0 0.589 0.234 1.155 0.651 1.571s0.982 0.651 1.571 0.651c0.589 0 1.155-0.234 1.571-0.651s0.651-0.982 0.651-1.571v-17.778z"></path>
</symbol>
<symbol id="icon-play_arrow" viewBox="0 0 25 32">
<path d="M0.445 0.445v31.111l24.444-15.555-24.444-15.556z"></path>
</symbol>
<symbol id="icon-mdi_smiley" viewBox="0 0 32 32">
<path d="M16 0c-8.848 0-16 7.2-16 16 0 4.244 1.686 8.313 4.686 11.314 1.486 1.486 3.25 2.664 5.191 3.468s4.022 1.218 6.123 1.218c4.244 0 8.313-1.686 11.314-4.686s4.686-7.070 4.686-11.314c0-2.101-0.414-4.182-1.218-6.123s-1.983-3.705-3.468-5.191-3.25-2.664-5.191-3.468c-1.941-0.804-4.022-1.218-6.123-1.218zM21.6 9.6c0.636 0 1.247 0.253 1.697 0.703s0.703 1.061 0.703 1.697c0 0.636-0.253 1.247-0.703 1.697s-1.061 0.703-1.697 0.703c-0.636 0-1.247-0.253-1.697-0.703s-0.703-1.061-0.703-1.697c0-0.636 0.253-1.247 0.703-1.697s1.061-0.703 1.697-0.703zM10.4 9.6c0.636 0 1.247 0.253 1.697 0.703s0.703 1.061 0.703 1.697c0 0.636-0.253 1.247-0.703 1.697s-1.061 0.703-1.697 0.703c-0.636 0-1.247-0.253-1.697-0.703s-0.703-1.061-0.703-1.697c0-0.636 0.253-1.247 0.703-1.697s1.061-0.703 1.697-0.703zM16 24.8c-3.728 0-6.896-2.336-8.176-5.6h16.352c-1.296 3.264-4.448 5.6-8.176 5.6z"></path>
</symbol>
<symbol id="icon-smile" viewBox="0 0 32 32">
<path fill="#d11f2a" style="fill: var(--color4, #d11f2a)" d="M16 0c-8.848 0-16 7.2-16 16 0 4.243 1.686 8.313 4.686 11.314 1.486 1.486 3.25 2.664 5.191 3.468s4.022 1.218 6.123 1.218c4.243 0 8.313-1.686 11.314-4.686s4.686-7.070 4.686-11.314c0-2.101-0.414-4.182-1.218-6.123s-1.983-3.705-3.468-5.191c-1.486-1.486-3.25-2.664-5.191-3.468s-4.022-1.218-6.123-1.218zM21.6 9.6c0.637 0 1.247 0.253 1.697 0.703s0.703 1.061 0.703 1.697-0.253 1.247-0.703 1.697c-0.45 0.45-1.060 0.703-1.697 0.703s-1.247-0.253-1.697-0.703c-0.45-0.45-0.703-1.061-0.703-1.697s0.253-1.247 0.703-1.697c0.45-0.45 1.061-0.703 1.697-0.703zM10.4 9.6c0.637 0 1.247 0.253 1.697 0.703s0.703 1.061 0.703 1.697-0.253 1.247-0.703 1.697c-0.45 0.45-1.061 0.703-1.697 0.703s-1.247-0.253-1.697-0.703c-0.45-0.45-0.703-1.061-0.703-1.697s0.253-1.247 0.703-1.697c0.45-0.45 1.061-0.703 1.697-0.703zM16 24.8c-3.728 0-6.896-2.336-8.176-5.6h16.352c-1.296 3.264-4.448 5.6-8.176 5.6z"></path>
</symbol>
<symbol id="icon-awards" viewBox="0 0 25 32">
<path fill="#d11f2a" style="fill: var(--color4, #d11f2a)" d="M2.645 6.328l0.978 4.166-0.978 4.148 3.641 2.246 2.228 3.641 4.166-0.978 4.166 0.978 2.228-3.641 3.641-2.246-0.978-4.148 0.978-4.166-3.623-2.246-2.246-3.641-4.166 0.996-4.148-0.978-2.264 3.623-3.623 2.246zM12.698 17.812c-1.922 0-3.764-0.763-5.123-2.122s-2.122-3.202-2.122-5.123 0.763-3.764 2.122-5.123c1.359-1.359 3.202-2.122 5.123-2.122 3.985 0 7.227 3.242 7.227 7.227 0 4.021-3.242 7.263-7.227 7.263zM12.662 16c-3.007 0-5.416-2.427-5.416-5.434 0-2.989 2.409-5.434 5.416-5.434s5.452 2.445 5.452 5.434c0 3.007-2.445 5.434-5.452 5.434zM19.617 17.993l-2.319 4.057-3.768-0.851 4.583 10.56 2.536-3.985h4.528l-5.561-9.781zM5.67 18.12l2.264 4.075 3.858-0.924-4.546 10.488-2.536-3.985h-4.528l5.488-9.654z"></path>
</symbol>
<symbol id="icon-people_money" viewBox="0 0 39 32">
<path fill="#d11f2a" style="fill: var(--color4, #d11f2a)" d="M11.818 14.545c1.881 0 3.684-0.747 5.014-2.077s2.077-3.133 2.077-5.014c0-1.881-0.747-3.684-2.077-5.014s-3.133-2.077-5.014-2.077c-1.881 0-3.684 0.747-5.014 2.077s-2.077 3.133-2.077 5.014c0 1.881 0.747 3.684 2.077 5.014s3.133 2.077 5.014 2.077zM16.727 22.182c-0-1.144 0.36-2.259 1.028-3.187s1.612-1.623 2.697-1.986c-0.493-0.186-1.016-0.282-1.543-0.281h-14.182c-1.157 0-2.267 0.46-3.086 1.278s-1.278 1.928-1.278 3.086c0 0 0 8.727 11.455 8.727 1.957 0 3.578-0.255 4.924-0.676-0.010-0.138-0.015-0.276-0.015-0.415v-6.545zM34.182 9.091c0 1.447-0.575 2.834-1.598 3.857s-2.41 1.598-3.857 1.598c-1.447 0-2.834-0.575-3.857-1.598s-1.598-2.41-1.598-3.857c0-1.447 0.575-2.834 1.598-3.857s2.41-1.598 3.857-1.598c1.447 0 2.834 0.575 3.857 1.598s1.598 2.41 1.598 3.857zM18.909 22.182c0-0.868 0.345-1.7 0.959-2.314s1.446-0.959 2.314-0.959h13.091c0.868 0 1.7 0.345 2.314 0.959s0.959 1.446 0.959 2.314v6.545c0 0.868-0.345 1.7-0.959 2.314s-1.446 0.959-2.314 0.959h-13.091c-0.868 0-1.7-0.345-2.314-0.959s-0.959-1.446-0.959-2.314v-6.545zM21.091 22.182v2.182c0.868 0 1.7-0.345 2.314-0.959s0.959-1.446 0.959-2.314h-2.182c0 0.289-0.115 0.567-0.32 0.771s-0.482 0.32-0.771 0.32zM36.364 24.364v-2.182c-0.289 0-0.567-0.115-0.771-0.32s-0.319-0.482-0.319-0.771h-2.182c0 0.868 0.345 1.7 0.959 2.314s1.446 0.959 2.314 0.959zM33.091 29.818h2.182c0-0.289 0.115-0.567 0.319-0.771s0.482-0.32 0.771-0.32v-2.182c-0.868 0-1.7 0.345-2.314 0.959s-0.959 1.446-0.959 2.314zM21.091 26.545v2.182c0.289 0 0.567 0.115 0.771 0.32s0.32 0.482 0.32 0.771h2.182c0-0.868-0.345-1.7-0.959-2.314s-1.446-0.959-2.314-0.959zM28.727 28.727c0.868 0 1.7-0.345 2.314-0.959s0.959-1.446 0.959-2.314c0-0.868-0.345-1.7-0.959-2.314s-1.446-0.959-2.314-0.959c-0.868 0-1.7 0.345-2.314 0.959s-0.959 1.446-0.959 2.314c0 0.868 0.345 1.7 0.959 2.314s1.446 0.959 2.314 0.959z"></path>
</symbol>
<symbol id="icon-cat" viewBox="0 0 32 32">
<path fill="#d11f2a" style="fill: var(--color4, #d11f2a)" d="M17.975 11.852h1.056c1.364 2.364 3.92 3.951 6.846 3.951 0.679 0 1.346-0.086 1.975-0.247v14.074c0 1.093-0.883 1.975-1.975 1.975s-1.975-0.883-1.975-1.975v-8.691l-8.395 6.716h3.457c1.093 0 1.975 0.883 1.975 1.975s-0.883 1.975-1.975 1.975h-8.889c-3.272 0-5.926-2.654-5.926-5.926v-13.796c0-0.994-0.741-1.84-1.728-1.963l-0.488-0.062c-1.080-0.136-1.852-1.123-1.716-2.204s1.123-1.852 2.204-1.716l0.488 0.062c2.963 0.37 5.191 2.889 5.191 5.883v5.265c2.123-3.191 5.753-5.296 9.877-5.296zM27.852 13.488c-0.617 0.216-1.284 0.339-1.975 0.339-1.753 0-3.333-0.765-4.42-1.975-0.228-0.253-0.432-0.525-0.611-0.815-0.568-0.914-0.895-1.988-0.895-3.136v-7.241c0-0.364 0.29-0.654 0.654-0.66h0.012c0.204 0 0.395 0.099 0.519 0.259v0.006l0.79 1.049 1.975 2.636h3.951l2.765-3.685v-0.006c0.123-0.161 0.315-0.259 0.519-0.259h0.012c0.364 0.006 0.654 0.296 0.654 0.66v7.241c0 1.068-0.284 2.074-0.778 2.938-0.697 1.222-1.827 2.173-3.173 2.648zM24.889 7.901c0-0.262-0.104-0.513-0.289-0.698s-0.436-0.289-0.698-0.289-0.513 0.104-0.698 0.289c-0.185 0.185-0.289 0.436-0.289 0.698s0.104 0.513 0.289 0.698c0.185 0.185 0.436 0.289 0.698 0.289s0.513-0.104 0.698-0.289c0.185-0.185 0.289-0.436 0.289-0.698zM27.852 8.889c0.262 0 0.513-0.104 0.698-0.289s0.289-0.436 0.289-0.698c0-0.262-0.104-0.513-0.289-0.698s-0.436-0.289-0.698-0.289c-0.262 0-0.513 0.104-0.698 0.289s-0.289 0.436-0.289 0.698c0 0.262 0.104 0.513 0.289 0.698s0.436 0.289 0.698 0.289z"></path>
</symbol>
<symbol id="icon-people" viewBox="0 0 33 32">
<path fill="#d11f2a" style="fill: var(--color4, #d11f2a)" d="M15.686 6.588c0 1.664-0.661 3.26-1.838 4.437s-2.773 1.838-4.437 1.838-3.26-0.661-4.437-1.838c-1.177-1.177-1.838-2.773-1.838-4.437s0.661-3.26 1.838-4.437c1.177-1.177 2.773-1.838 4.437-1.838s3.26 0.661 4.437 1.838c1.177 1.177 1.838 2.773 1.838 4.437zM28.235 8.157c0 1.248-0.496 2.445-1.378 3.328s-2.079 1.378-3.328 1.378c-1.248 0-2.445-0.496-3.328-1.378s-1.378-2.079-1.378-3.328c0-1.248 0.496-2.445 1.378-3.328s2.079-1.378 3.328-1.378c1.248 0 2.445 0.496 3.328 1.378s1.378 2.080 1.378 3.328zM0 19.529c0-0.936 0.372-1.834 1.034-2.496s1.56-1.034 2.496-1.034h11.765c0.496 0 0.968 0.102 1.396 0.287-1.661 1.864-2.576 4.275-2.573 6.772-0.001 1.003 0.146 2 0.436 2.96-1.286 0.585-2.962 0.962-5.142 0.962-9.412 0-9.412-7.059-9.412-7.059v-0.392zM24.315 31.689c1.893-0 3.734-0.623 5.238-1.773s2.588-2.762 3.086-4.588c0.498-1.826 0.381-3.766-0.333-5.52s-1.984-3.224-3.615-4.184c-1.631-0.96-3.533-1.358-5.413-1.131s-3.632 1.066-4.988 2.387c-1.356 1.321-2.239 3.052-2.515 4.925s0.073 3.784 0.991 5.44l-1.045 3.429c-0.042 0.136-0.046 0.281-0.011 0.419s0.106 0.264 0.206 0.365c0.101 0.101 0.227 0.172 0.365 0.207s0.283 0.031 0.419-0.011l3.431-1.045c1.239 0.689 2.667 1.079 4.184 1.079zM21.178 22.278c-0.208 0-0.408-0.083-0.555-0.23s-0.23-0.347-0.23-0.555c0-0.208 0.083-0.408 0.23-0.555s0.347-0.23 0.555-0.23h6.274c0.208 0 0.408 0.083 0.555 0.23s0.23 0.347 0.23 0.555c0 0.208-0.083 0.408-0.23 0.555s-0.347 0.23-0.555 0.23l-6.274 0.002zM24.315 25.415h-3.137c-0.208 0-0.408-0.083-0.555-0.23s-0.23-0.347-0.23-0.555c0-0.208 0.083-0.408 0.23-0.555s0.347-0.23 0.555-0.23h3.137c0.208 0 0.408 0.083 0.555 0.23s0.23 0.347 0.23 0.555c0 0.208-0.083 0.408-0.23 0.555s-0.347 0.23-0.555 0.23z"></path>
</symbol>
<symbol id="icon-book" viewBox="0 0 26 32">
<path fill="#d11f2a" style="fill: var(--color4, #d11f2a)" d="M5.6 32c-1.547 0-2.867-0.547-3.96-1.64s-1.64-2.413-1.64-3.96v-20.8c0-1.547 0.547-2.867 1.64-3.96s2.413-1.64 3.96-1.64h20v24c-0.667 0-1.233 0.234-1.699 0.701s-0.7 1.034-0.701 1.699c0 0.667 0.234 1.234 0.701 1.701s1.034 0.7 1.699 0.699v3.2h-20zM6.4 20.8h3.2v-17.6h-3.2v17.6zM5.6 28.8h14.92c-0.16-0.373-0.286-0.753-0.379-1.139s-0.14-0.806-0.141-1.261c0-0.427 0.040-0.84 0.12-1.24s0.213-0.787 0.4-1.16h-14.92c-0.693 0-1.267 0.234-1.72 0.701s-0.68 1.034-0.68 1.699c0 0.693 0.227 1.267 0.68 1.72s1.027 0.68 1.72 0.68z"></path>
</symbol>
<symbol id="icon-triangle" viewBox="0 0 61 32">
<path d="M60.316 0.563h-59.956l29.978 30.877 29.978-30.877z"></path>
</symbol>
<symbol id="icon-paw5" viewBox="0 0 26 32">
<path   stroke="#d11f2a" stroke-linejoin="miter" stroke-linecap="butt" stroke-miterlimit="4" stroke-width="2.9091" d="M22.607 4.561c-1.413-2.033-3.415-3.050-6.006-3.050-2.557 0-4.937 0.948-7.141 2.845s-3.894 4.186-5.072 6.868c-1.178 2.682-1.766 5.288-1.766 7.816 0 2.734 0.707 5.108 2.12 7.125s3.415 3.024 6.006 3.024c2.557 0 4.937-0.948 7.141-2.845s3.894-4.177 5.072-6.843c1.178-2.665 1.766-5.262 1.766-7.791 0-2.734-0.706-5.117-2.12-7.15z"></path>
</symbol>
<symbol id="icon-paw4" viewBox="0 0 26 32">
<path   stroke="#d11f2a" stroke-linejoin="miter" stroke-linecap="butt" stroke-miterlimit="4" stroke-width="2.7826" d="M6.543 28.356c1.416 1.275 3.106 1.912 5.069 1.912 2.446 0 4.666-0.94 6.662-2.819s3.476-4.094 4.441-6.643c0.965-2.549 1.448-5.017 1.448-7.403 0-1.961-0.306-3.816-0.917-5.565s-1.625-3.26-3.041-4.535c-1.416-1.275-3.106-1.912-5.069-1.912-2.478 0-4.707 0.94-6.686 2.819s-3.451 4.086-4.417 6.619c-0.965 2.533-1.448 5.009-1.448 7.428 0 1.961 0.306 3.816 0.917 5.565s1.625 3.26 3.041 4.535z"></path>
</symbol>
<symbol id="icon-paw3" viewBox="0 0 26 32">
<path   stroke="#d11f2a" stroke-linejoin="miter" stroke-linecap="butt" stroke-miterlimit="4" stroke-width="2.7826" d="M23.373 23.821c0.611-1.749 0.917-3.603 0.917-5.565 0-2.419-0.483-4.894-1.448-7.428s-2.438-4.739-4.417-6.619c-1.979-1.879-4.208-2.819-6.686-2.819-1.963 0-3.653 0.637-5.069 1.912s-2.43 2.786-3.041 4.535c-0.611 1.749-0.917 3.603-0.917 5.565 0 2.386 0.483 4.854 1.448 7.403s2.446 4.764 4.441 6.643 4.216 2.819 6.662 2.819c1.963 0 3.653-0.637 5.069-1.912s2.43-2.786 3.041-4.535z"></path>
</symbol>
<symbol id="icon-paw2" viewBox="0 0 26 32">
<path   stroke="#d11f2a" stroke-linejoin="miter" stroke-linecap="butt" stroke-miterlimit="4" stroke-width="2.9091" d="M23.559 19.041c0 2.734-0.706 5.108-2.12 7.125s-3.415 3.024-6.006 3.024c-2.557 0-4.937-0.948-7.141-2.845s-3.894-4.177-5.072-6.843c-1.178-2.665-1.766-5.262-1.766-7.791 0-2.734 0.707-5.117 2.12-7.15s3.415-3.050 6.006-3.050c2.557 0 4.937 0.948 7.141 2.845s3.894 4.186 5.072 6.868c1.178 2.682 1.766 5.288 1.766 7.816z"></path>
</symbol>
<symbol id="icon-paw1" viewBox="0 0 49 32">
<path fill="#d11f2a" style="fill: var(--color4, #d11f2a); stroke: var(--color4, #d11f2a)" stroke="#d11f2a" stroke-linejoin="miter" stroke-linecap="butt" stroke-miterlimit="4" stroke-width="2.2857" d="M35.19 5.143c-3.622-2.618-6.992-3.926-10.111-3.926-2.353 0-4.904 0.792-7.653 2.376s-5.228 3.544-7.435 5.88c-2.207 2.336-4.051 4.92-5.532 7.752s-2.221 5.403-2.221 7.712c0 3.92 2.419 5.88 7.256 5.88 1.956 0 4.606-0.597 7.95-1.792s5.888-1.792 7.633-1.792c1.665 0 4.078 0.604 7.237 1.812s5.637 1.812 7.435 1.812c1.137 0 2.141-0.074 3.014-0.221s1.725-0.416 2.558-0.805c0.833-0.389 1.474-0.993 1.923-1.812s0.674-1.846 0.674-3.081c0-3.087-1.216-6.504-3.648-10.249s-5.459-6.927-9.080-9.544z"></path>
</symbol>
<symbol id="icon-add" viewBox="0 0 20 20">
<path fill="currentColor" d="M8.66602 11.3327H0.666016V8.66602H8.66602V0.666016H11.3327V8.66602H19.3327V11.3327H11.3327V19.3327H8.66602V11.3327Z"/>
</symbol>
<symbol id="icon-remove" viewBox="0 0 160 32">
<path fill="currentColor" d="M5.328 26.661v-21.333h149.333v21.333h-149.333z"></path>
</symbol>
<symbol id="icon-logo_icon" viewBox="0 0 32 32">
<path fill="#fff" style="fill: var(--color1, #fff)" d="M31.761 16.27c0 8.676-7.108 15.709-15.876 15.709s-15.876-7.033-15.876-15.709c0-8.676 7.108-15.709 15.876-15.709s15.876 7.033 15.876 15.709z"></path>
<path fill="#181a2a" style="fill: var(--color5, #181a2a); stroke: var(--color5, #181a2a)" stroke="#181a2a" stroke-linejoin="round" stroke-linecap="butt" stroke-miterlimit="4" stroke-width="1.1429" d="M18.423 1.396c-0.057 0.188-0.014 0.392 0.114 0.541s0.324 0.221 0.519 0.191l1.406-0.216c-0.004 0.331-0.040 0.558-0.086 0.717-0.064 0.22-0.154 0.333-0.268 0.441-0.047 0.045-0.087 0.079-0.137 0.122-0.031 0.026-0.065 0.056-0.107 0.092-0.097 0.086-0.211 0.193-0.32 0.33-0.23 0.29-0.395 0.659-0.47 1.192-0.073 0.521-0.055 0.821-0.045 0.984 0.002 0.040 0.004 0.072 0.004 0.097 0 0.001 0 0.003 0 0.004 0 0.056 0 0.153-0.27 0.703-0.002 0.005-0.005 0.010-0.007 0.014-0.269 0.587-0.399 0.894-0.421 1.247-0.008 0.122-0.002 0.255 0.004 0.379 0.001 0.030 0.003 0.060 0.004 0.088 0.004 0.106 0.008 0.236 0.006 0.402-0.445 0.242-0.77 0.362-1.021 0.411-0.279 0.055-0.478 0.024-0.675-0.052-0.211-0.082-0.416-0.212-0.722-0.407-0.024-0.016-0.050-0.032-0.075-0.048-0.333-0.212-0.741-0.464-1.276-0.689-0.146-0.061-0.31-0.060-0.455 0.005s-0.256 0.186-0.307 0.335c-0.189 0.548-0.268 0.98-0.156 1.375 0.055 0.197 0.148 0.349 0.231 0.468 0.037 0.053 0.077 0.106 0.111 0.152l0.009 0.012c0.039 0.051 0.074 0.099 0.11 0.15 0.244 0.351 0.654 1.082 0.614 3.589-0.002 0.151 0.055 0.296 0.159 0.405 2.117 2.205 2.42 5.803 1.037 8.887-0.351 0.764-1.071 1.705-1.958 2.518-0.891 0.818-1.883 1.443-2.742 1.652-0.166 0.040-0.305 0.153-0.379 0.306s-0.076 0.333-0.005 0.488c0.162 0.352 0.508 0.583 0.817 0.738 0.334 0.168 0.75 0.307 1.206 0.42 0.914 0.227 2.063 0.369 3.217 0.393 1.151 0.024 2.341-0.069 3.327-0.33 0.947-0.251 1.883-0.704 2.254-1.54h0l0.003-0.006c0.769-1.793 0.212-3.977-0.554-5.386l-0.001-0.002c-0.167-0.303-0.313-0.559-0.44-0.777-0.024-0.041-0.047-0.081-0.069-0.119-0.097-0.168-0.179-0.309-0.25-0.437-0.174-0.314-0.254-0.5-0.296-0.685s-0.051-0.411-0.017-0.811c0.030-0.352 0.090-0.801 0.175-1.436 0.013-0.096 0.026-0.195 0.040-0.3 0.039-0.292-0.15-0.565-0.437-0.632-0.529-0.123-0.569-0.152-0.594-0.17-0.020-0.015-0.044-0.038-0.141-0.141l-0.002-0.002c-0.049-0.052-0.109-0.115-0.183-0.191 0.049-0.259 0.122-0.433 0.198-0.565 0.088-0.152 0.182-0.261 0.315-0.413 0.036-0.041 0.074-0.085 0.116-0.134 0.189-0.222 0.4-0.497 0.554-0.909 0.094-0.252 0.162-0.541 0.201-0.886 0.034 0.006 0.067 0.012 0.097 0.017 0.158 0.027 0.341 0.052 0.511 0.024 0.244-0.040 0.385-0.172 0.464-0.257 0.016-0.017 0.028-0.030 0.038-0.041 0.029-0.032 0.041-0.046 0.075-0.072 0.020-0.016 0.040-0.033 0.058-0.052 0.202 0.199 0.312 0.403 0.505 0.761 0.091 0.17 0.202 0.375 0.349 0.63 0.317 0.564 0.352 0.777 0.345 0.954-0.005 0.111-0.028 0.236-0.076 0.447-0.007 0.030-0.014 0.062-0.022 0.095-0.043 0.188-0.096 0.421-0.146 0.708-0.035 0.198 0.037 0.399 0.189 0.531 1.272 1.099 1.509 1.515 1.617 1.715 0.007 0.013 0.015 0.028 0.023 0.044 0.059 0.113 0.148 0.284 0.322 0.447 0.179 0.168 0.431 0.319 0.802 0.512 0.044 0.023 0.091 0.040 0.139 0.050 0.787 0.175 1.288 0.507 1.618 0.893 0.336 0.392 0.528 0.88 0.627 1.41 0.043 0.23 0.223 0.411 0.453 0.456 0.057 0.011 0.114 0.013 0.17 0.007-0.584 1.001-1.423 2.040-2.499 3.085l-0.002 0.002c-1.451 1.421-2.558 2.118-4.472 2.859l-0.003 0.001c-6.066 2.385-11.789 0.658-15.386-2.645-0.016-0.014-0.032-0.028-0.049-0.040-3.23-2.364-4.773-6.76-4.199-11.323 0.572-4.545 3.244-9.188 8.354-11.979 0.010-0.005 0.020-0.011 0.029-0.017 1.082-0.677 2.774-1.57 3.905-1.831l0.002-0c0.338-0.079 1.462-0.275 2.592-0.454 0.56-0.088 1.113-0.171 1.558-0.232 0.144-0.020 0.273-0.036 0.384-0.050 0.008 0.076 0.003 0.096 0.001 0.109-0.005 0.024-0.014 0.049-0.064 0.174-0.046 0.114-0.106 0.269-0.175 0.497zM25.118 15.057c0 0 0.002 0.002 0.004 0.004-0.003-0.003-0.004-0.005-0.004-0.004z"></path>
</symbol>
<symbol id="icon-La_cat" viewBox="0 0 35 32">
<path fill="none" stroke="#045c6f" style="stroke: var(--color2, #045c6f)" stroke-linejoin="round" stroke-linecap="round" stroke-miterlimit="10" stroke-width="3.2865" d="M10.779 2.649c0 0-0.894 3.496-5.129 3.413-2.118-0.083-3.134 0.75-3.558 1.666-0.593 1-0.424 2.249 0.254 3.165 0.593 0.916 1.863 1.833 4.15 1.916 0.169 0 1.779 0 1.948 0"></path>
<path fill="none" stroke="#045c6f" style="stroke: var(--color2, #045c6f)" stroke-linejoin="round" stroke-linecap="round" stroke-miterlimit="10" stroke-width="3.2865" d="M8.022 30.136v-15.494c0.085-2.666 2.456-5.081 5.082-5.914s4.57-0.106 4.57-0.106"></path>
<path fill="none" stroke="#045c6f" style="stroke: var(--color2, #045c6f)" stroke-linejoin="round" stroke-linecap="round" stroke-miterlimit="10" stroke-width="3.2865" d="M22.209 30.27c0 0 0.075-4.668 0.149-9.086 0-2.584-1.491-4.668-4.026-4.752h-0.596c-2.535 0.083-4.026 2.084-4.026 4.752 0 4.418 0.149 9.086 0.149 9.086"></path>
<path fill="none" stroke="#045c6f" style="stroke: var(--color2, #045c6f)" stroke-linejoin="round" stroke-linecap="round" stroke-miterlimit="10" stroke-width="3.2865" d="M28.097 19.588c0 3.832-0.085 6.716-0.085 10.547"></path>
<path fill="none" stroke="#045c6f" style="stroke: var(--color2, #045c6f)" stroke-linejoin="round" stroke-linecap="round" stroke-miterlimit="10" stroke-width="3.1135" d="M28.209 4.467c0 0 1.264 0 2.107 0.346 0.421 0.173 0.674-0.26 0.927-0.606l2.191-2.337c0.084-0.087 0.169 0 0.169 0.087v7.531c0 0.606-1.348 4.242-5.393 4.242h-0.169c-4.045 0-5.393-3.636-5.393-4.242v-7.618c0-0.087 0.084-0.087 0.169-0.087l2.191 2.337c0.337 0.346 0.506 0.779 0.927 0.692 0.843-0.346 2.107-0.346 2.107-0.346h0.169z"></path>
</symbol>
<symbol id="icon-to-right" viewBox="0 0 21 32">
<path fill="currentColor" d="M13.445 16.002l-11.733-11.733 3.352-3.352 15.085 15.085-15.085 15.085-3.352-3.352 11.733-11.733z"></path>
</symbol>
<symbol id="icon-to-left" viewBox="0 0 21 32">
<path fill="currentColor" d="M7.888 16.002l11.733-11.733-3.352-3.352-15.085 15.085 15.085 15.085 3.352-3.352-11.733-11.733z"></path>
</symbol>
<symbol id="icon-star" viewBox="0 0 35 32">
<path fill="#ffe62e" d="M7.284 32l2.737-11.832-9.179-7.958 12.126-1.053 4.716-11.158 4.716 11.158 12.126 1.053-9.179 7.958 2.737 11.832-10.4-6.274-10.4 6.274z"></path>
</symbol>
<symbol id="icon-clip" viewBox="0 0 38 90">
<path d="M11.5 58.5C11.5 59.3284 12.1716 60 13 60C13.8284 60 14.5 59.3284 14.5 58.5H11.5ZM34.5 25.5V27H37.5V25.5H34.5ZM14.5 58.5V21.75H11.5V58.5H14.5ZM23 21.75V77H26V21.75H23ZM3 77V18.75H0V77H3ZM34.5 18.75V25.5H37.5V18.75H34.5ZM18.75 3C27.4485 3 34.5 10.0515 34.5 18.75H37.5C37.5 8.39466 29.1053 0 18.75 0V3ZM3 18.75C3 10.0515 10.0515 3 18.75 3V0C8.39466 0 0 8.39466 0 18.75H3ZM13 87C7.47715 87 3 82.5229 3 77H0C0 84.1797 5.8203 90 13 90V87ZM23 77C23 82.5228 18.5228 87 13 87V90C20.1797 90 26 84.1797 26 77H23ZM18.75 17.5C21.0972 17.5 23 19.4028 23 21.75H26C26 17.7459 22.7541 14.5 18.75 14.5V17.5ZM14.5 21.75C14.5 19.4028 16.4028 17.5 18.75 17.5V14.5C14.7459 14.5 11.5 17.7459 11.5 21.75H14.5Z" fill="#045C6F"></path>
</symbol>
<symbol id="icon-ic_round-arrow-left" viewBox="0 0 30 32">
<path fill="#045c6f" style="fill: var(--color1, #045c6f)" d="M0 20.923v-9.846c0-5.438 4.408-9.846 9.846-9.846h9.846c5.438 0 9.846 4.408 9.846 9.846v9.846c0 5.438-4.408 9.846-9.846 9.846h-9.846c-5.438 0-9.846-4.408-9.846-9.846z"></path>
<path fill="#fff" style="fill: var(--color2, #fff)" d="M7.994 17.205l5.327 5.553c0.19 0.199 0.416 0.356 0.665 0.464s0.516 0.163 0.785 0.163c0.269 0 0.536-0.055 0.785-0.163s0.475-0.265 0.665-0.464l5.327-5.553c1.296-1.351 0.37-3.666-1.46-3.666h-10.655c-1.831 0-2.736 2.316-1.44 3.666z"></path>
</symbol>
<symbol id="wcf-award-dark" width="42" height="53" viewBox="0 0 42 53" fill="none">
<path d="M4.38078 10.48L6.00078 17.38L4.38078 24.25L10.4108 27.97L14.1008 34L21.0008 32.38L27.9008 34L31.5908 27.97L37.6208 24.25L36.0008 17.38L37.6208 10.48L31.6208 6.75998L27.9008 0.72998L21.0008 2.37998L14.1308 0.75998L10.3808 6.75998L4.38078 10.48ZM21.0308 29.5C17.8482 29.5 14.7959 28.2357 12.5455 25.9853C10.2951 23.7348 9.03078 20.6826 9.03078 17.5C9.03078 14.3174 10.2951 11.2651 12.5455 9.0147C14.7959 6.76426 17.8482 5.49998 21.0308 5.49998C27.6308 5.49998 33.0008 10.87 33.0008 17.47C33.0008 24.13 27.6308 29.5 21.0308 29.5ZM20.9708 26.5C15.9908 26.5 12.0008 22.48 12.0008 17.5C12.0008 12.55 15.9908 8.49998 20.9708 8.49998C25.9508 8.49998 30.0008 12.55 30.0008 17.5C30.0008 22.48 25.9508 26.5 20.9708 26.5ZM32.4908 29.8L28.6508 36.52L22.4108 35.11L30.0008 52.6L34.2008 46H41.7008L32.4908 29.8ZM9.39078 30.01L13.1408 36.76L19.5308 35.23L12.0008 52.6L7.80078 46H0.300781L9.39078 30.01Z" fill="#045C6F"/>
</symbol>
<symbol id="wcf-award-light" width="44" height="48" viewBox="0 0 44 48" fill="none">
<path d="M22 0C20.8689 0 19.7449 0.389424 18.7764 1.09615L15.7789 3.23077L12.329 3.69231H12.2725L12.2159 3.75C9.91131 4.27644 8.09447 6.12981 7.57841 8.48077L7.52185 8.53846V8.59615L7.06941 12.1731L4.97686 14.9423L4.92031 15V15.0577C3.65488 17.1202 3.59833 19.7812 4.97686 21.75L7.12596 24.8077L7.69152 27.9808L1.86632 37.0385L0 39.8654H8.65296L10.7455 44.8269L12.0463 48L13.9126 45.1154L19.6247 36.3462C21.1587 36.988 22.8907 37.0457 24.3753 36.3462L30.0874 45.1154L31.9537 48L33.2545 44.8269L35.347 39.8654H44L42.1337 37.0385L36.4781 28.2692L36.9306 24.8077L39.0231 21.75L39.0797 21.6923V21.6346C40.3451 19.5721 40.4017 16.9688 39.0231 15L36.9306 11.9423L36.2519 8.48077H36.3085C36.3014 8.4375 36.259 8.40866 36.2519 8.36539C35.9267 5.94952 34.0533 3.98798 31.671 3.69231H31.6144L28.2211 3.23077L25.2237 1.09615C24.2551 0.389424 23.1311 0 22 0ZM22 3.75C22.4171 3.75 22.8271 3.87981 23.1311 4.09615L26.3548 6.46154L26.7506 6.75L27.2031 6.80769L31.162 7.38462H31.2185C32.0315 7.47836 32.597 8.05529 32.6889 8.88462V9L33.4242 13.0962L33.4807 13.5L33.7635 13.8462L36.0823 17.1346C36.5135 17.7476 36.5701 18.7861 36.0257 19.6731L33.4807 23.3077L33.4242 23.7692L32.8586 27.8077V27.8654C32.8233 28.1683 32.7243 28.4495 32.5758 28.6731L32.4627 28.7308V28.7885C32.2012 29.1058 31.8406 29.3149 31.3882 29.3654H31.2751L27.1465 30.1154L26.6941 30.1731L26.3548 30.4615L23.1311 32.8269C22.5302 33.2668 21.4557 33.3245 20.5861 32.7692L17.6452 30.4615L17.3059 30.1731L16.7969 30.1154L12.838 29.5385H12.7815C12.223 29.4736 11.7918 29.1779 11.5373 28.7308C11.4242 28.5288 11.3393 28.2909 11.3111 28.0385V27.9231L10.5758 23.7115L10.5193 23.25L10.2365 22.9038L7.91774 19.6154C7.4865 19.0024 7.42995 17.9062 7.97429 17.0192L10.2365 14.0192L10.5193 13.6731L10.5758 13.1538L11.0848 9.28846C11.0919 9.25962 11.1343 9.25962 11.1414 9.23077C11.3676 8.32933 12.0675 7.61538 12.9512 7.38462C12.9794 7.3774 12.9794 7.33413 13.0077 7.32692L16.7969 6.80769L17.2494 6.75L17.6452 6.46154L20.8689 4.09615C21.1729 3.87981 21.5829 3.75 22 3.75ZM34.4987 31.8462L37.2699 36.1731H32.9152L32.4627 37.3269L31.2185 40.2692L27.3728 34.2692L28.2211 33.6346L31.7841 33V33.0577C31.8265 33.0505 31.8548 33.0072 31.8972 33C32.8728 32.863 33.7564 32.4447 34.4987 31.8462ZM9.50129 31.9038C10.2719 32.6106 11.2545 33.101 12.329 33.2308C12.3503 33.2308 12.3644 33.2308 12.3856 33.2308L15.8355 33.6923L16.6273 34.3269L12.7815 40.2692L11.5373 37.3269L11.0848 36.1731H6.73008L9.50129 31.9038Z" fill="#045C6F"/>
</symbol>
<symbol id="wcf-mortarboard" width="54" height="36" viewBox="0 0 54 36" fill="none">
<path d="M27 0L26.1932 0.426036L2.95817 12.355L0 13.8462L2.90438 15.284V29.6627C1.87575 30.2552 1.18327 31.3336 1.18327 32.5917C1.18327 34.4756 2.72286 36 4.6255 36C6.52814 36 8.06773 34.4756 8.06773 32.5917C8.06773 31.3336 7.37525 30.2552 6.34661 29.6627V17.0414L9.78885 18.7988V27.4793C9.78885 28.2315 10.1384 28.9105 10.5418 29.3432C10.9452 29.7759 11.436 30.0355 11.9402 30.3018C12.9554 30.8277 14.1589 31.2004 15.6514 31.5266C18.6365 32.1856 22.6165 32.5917 27 32.5917C31.3835 32.5917 35.3635 32.1856 38.3486 31.5266C39.8411 31.2004 41.0446 30.8277 42.0598 30.3018C42.564 30.0355 43.0548 29.7759 43.4582 29.3432C43.8616 28.9105 44.2112 28.2315 44.2112 27.4793V18.7988L51.0418 15.3373L54 13.8462L51.0418 12.355L27.8068 0.426036L27 0ZM27 3.83432L46.4701 13.8462L43.4044 15.3905C43.0144 14.9845 42.5438 14.6849 42.0598 14.432C41.0513 13.9061 39.8411 13.5333 38.3486 13.2071C35.3703 12.5481 31.4036 12.142 27 12.142C22.5964 12.142 18.6297 12.5481 15.6514 13.2071C14.1589 13.5333 12.9487 13.9061 11.9402 14.432C11.4562 14.6849 10.9856 14.9845 10.5956 15.3905L7.52988 13.8462L27 3.83432ZM27 15.5503C31.2019 15.5503 34.9803 15.9297 37.5956 16.5089C38.8999 16.7951 39.9487 17.128 40.5 17.4142C40.6748 17.5074 40.7017 17.574 40.7689 17.6272V24.1243C40.0496 23.8646 39.263 23.6317 38.3486 23.432C35.3635 22.7729 31.3835 22.3669 27 22.3669C22.6165 22.3669 18.6365 22.7729 15.6514 23.432C14.7371 23.6317 13.9504 23.8646 13.2311 24.1243V17.6272C13.2983 17.574 13.3252 17.5074 13.5 17.4142C14.0513 17.128 15.1001 16.7951 16.4044 16.5089C19.0197 15.9297 22.7981 15.5503 27 15.5503ZM27 25.7751C31.1751 25.7751 34.9736 26.1546 37.5956 26.7337C38.6848 26.9734 39.3705 27.2263 39.9622 27.4793C39.3705 27.7323 38.6848 27.9852 37.5956 28.2249C34.9736 28.804 31.1751 29.1834 27 29.1834C22.825 29.1834 19.0264 28.804 16.4044 28.2249C15.3152 27.9852 14.6295 27.7323 14.0378 27.4793C14.6295 27.2263 15.3152 26.9734 16.4044 26.7337C19.0264 26.1546 22.825 25.7751 27 25.7751Z" fill="#045C6F"/>
</symbol>
<symbol id="wcf-smile" width="46" height="46" viewBox="0 0 46 46" fill="none">
<path d="M23 0C10.3182 0 0 10.3182 0 23C0 35.6818 10.3182 46 23 46C35.6818 46 46 35.6818 46 23C46 10.3182 35.6818 0 23 0ZM23 3.53846C33.7304 3.53846 42.4615 12.2696 42.4615 23C42.4615 33.7304 33.7304 42.4615 23 42.4615C12.2696 42.4615 3.53846 33.7304 3.53846 23C3.53846 12.2696 12.2696 3.53846 23 3.53846ZM14.1538 15.9231C10.4491 15.9231 7.76803 18.0586 7.76803 18.0586L9.92428 20.8645C9.92428 20.8645 11.8414 19.4615 14.1573 19.4615C16.4732 19.4615 18.3869 20.8645 18.3869 20.8645L20.5431 18.0586C20.5431 18.0586 17.8586 15.9231 14.1538 15.9231ZM31.8462 15.9231C28.1414 15.9231 25.4603 18.0586 25.4603 18.0586L27.6166 20.8645C27.6166 20.8645 29.5337 19.4615 31.8496 19.4615C34.1655 19.4615 36.0792 20.8645 36.0792 20.8645L38.2354 18.0586C38.2354 18.0586 35.5509 15.9231 31.8462 15.9231ZM10.6154 28.3077C10.6154 28.3077 13.455 37.1538 23 37.1538C32.545 37.1538 35.3846 28.3077 35.3846 28.3077H10.6154Z" fill="#045C6F"/>
</symbol>
<symbol id="arrow-up-right" width="20" height="20" viewBox="0 0 20 20" fill="none">
<path d="M5.28713 14.7141L14.7152 5.28602M14.7152 5.28602V12.3571M14.7152 5.28602H7.64415" stroke="currentColor" stroke-width="2.5" stroke-linecap="round" stroke-linejoin="round"/>
</symbol>
<symbol id="long-arrow-left" viewBox="0 0 94 15" fill="none">
<path d="M1.08189 8.20711C0.69137 7.81658 0.69137 7.18342 1.08189 6.79289L7.44586 0.428932C7.83638 0.0384079 8.46954 0.0384079 8.86007 0.428932C9.25059 0.819456 9.25059 1.45262 8.86007 1.84315L3.20322 7.5L8.86007 13.1569C9.25059 13.5474 9.25059 14.1805 8.86007 14.5711C8.46954 14.9616 7.83638 14.9616 7.44586 14.5711L1.08189 8.20711ZM93.0508 8.5H1.789V6.5H93.0508V8.5Z" fill="#070707"/>
</symbol>
<symbol id="long-arrow-right" viewBox="0 0 93 15" fill="none">
<path d="M92.2697 8.20711C92.6602 7.81658 92.6602 7.18342 92.2697 6.79289L85.9057 0.428932C85.5152 0.0384079 84.882 0.0384079 84.4915 0.428932C84.101 0.819456 84.101 1.45262 84.4915 1.84315L90.1483 7.5L84.4915 13.1569C84.101 13.5474 84.101 14.1805 84.4915 14.5711C84.882 14.9616 85.5152 14.9616 85.9057 14.5711L92.2697 8.20711ZM0.300781 8.5H91.5626V6.5H0.300781V8.5Z" fill="#070707"/>
</symbol>
<symbol id="triangle-down" viewBox="0 0 73 38" fill="none">
<path d="M72.125 0.666992L0.927788 0.666992L36.5264 37.3337L72.125 0.666992Z" fill="#070707"/>
</symbol>
<symbol id="triangle-up" viewBox="0 0 73 38" fill="none">
<path d="M0.929688 37.333L72.1269 37.333L36.5283 0.666336L0.929688 37.333Z" fill="#070707"/>
</symbol>
<symbol id="triangle-right" viewBox="0 0 37 72" fill="none">
<path d="M0.0976562 0.427734L0.0976562 71.6249L36.7643 36.0263L0.0976562 0.427734Z" fill="#070707"/>
</symbol>
<symbol id="calendar-icon" width="22" height="22" viewBox="0 0 22 22" fill="none">
<path d="M7 6V2M15 6V2M6 10H16M4 20H18C19.1046 20 20 19.1046 20 18V6C20 4.89543 19.1046 4 18 4H4C2.89543 4 2 4.89543 2 6V18C2 19.1046 2.89543 20 4 20Z" stroke="#D11F2A" stroke-width="2.3" stroke-linecap="round" stroke-linejoin="round"/>
</symbol>
<symbol id="clock-icon" width="22" height="22" viewBox="0 0 22 22" fill="none">
<path d="M11 7V11L14 14M20 11C20 15.9706 15.9706 20 11 20C6.02944 20 2 15.9706 2 11C2 6.02944 6.02944 2 11 2C15.9706 2 20 6.02944 20 11Z" stroke="#D11F2A" stroke-width="2.3" stroke-linecap="round" stroke-linejoin="round"/>
<symbol id="red-smile" width="61" height="60" viewBox="0 0 61 60" fill="none">
<path d="M30.5 5C16.675 5 5.5 16.25 5.5 30C5.5 36.6304 8.13392 42.9893 12.8223 47.6777C15.1438 49.9991 17.8998 51.8406 20.9329 53.097C23.9661 54.3534 27.217 55 30.5 55C37.1304 55 43.4893 52.3661 48.1777 47.6777C52.8661 42.9893 55.5 36.6304 55.5 30C55.5 26.717 54.8534 23.4661 53.597 20.4329C52.3406 17.3998 50.4991 14.6438 48.1777 12.3223C45.8562 10.0009 43.1002 8.15938 40.0671 6.90301C37.0339 5.64664 33.783 5 30.5 5ZM39.25 20C40.2446 20 41.1984 20.3951 41.9016 21.0983C42.6049 21.8016 43 22.7554 43 23.75C43 24.7446 42.6049 25.6984 41.9016 26.4017C41.1984 27.1049 40.2446 27.5 39.25 27.5C38.2554 27.5 37.3016 27.1049 36.5983 26.4017C35.8951 25.6984 35.5 24.7446 35.5 23.75C35.5 22.7554 35.8951 21.8016 36.5983 21.0983C37.3016 20.3951 38.2554 20 39.25 20ZM21.75 20C22.7446 20 23.6984 20.3951 24.4017 21.0983C25.1049 21.8016 25.5 22.7554 25.5 23.75C25.5 24.7446 25.1049 25.6984 24.4017 26.4017C23.6984 27.1049 22.7446 27.5 21.75 27.5C20.7554 27.5 19.8016 27.1049 19.0983 26.4017C18.3951 25.6984 18 24.7446 18 23.75C18 22.7554 18.3951 21.8016 19.0983 21.0983C19.8016 20.3951 20.7554 20 21.75 20ZM30.5 43.75C24.675 43.75 19.725 40.1 17.725 35H43.275C41.25 40.1 36.325 43.75 30.5 43.75Z" fill="#D11F2A"/>
</symbol>
<symbol id="red-people" width="61" height="60" viewBox="0 0 61 60" fill="none">
<path d="M30.5 17.5C30.5 20.1522 29.4464 22.6957 27.5711 24.5711C25.6957 26.4464 23.1522 27.5 20.5 27.5C17.8478 27.5 15.3043 26.4464 13.4289 24.5711C11.5536 22.6957 10.5 20.1522 10.5 17.5C10.5 14.8478 11.5536 12.3043 13.4289 10.4289C15.3043 8.55357 17.8478 7.5 20.5 7.5C23.1522 7.5 25.6957 8.55357 27.5711 10.4289C29.4464 12.3043 30.5 14.8478 30.5 17.5ZM50.5 20C50.5 21.9891 49.7098 23.8968 48.3033 25.3033C46.8968 26.7098 44.9891 27.5 43 27.5C41.0109 27.5 39.1032 26.7098 37.6967 25.3033C36.2902 23.8968 35.5 21.9891 35.5 20C35.5 18.0109 36.2902 16.1032 37.6967 14.6967C39.1032 13.2902 41.0109 12.5 43 12.5C44.9891 12.5 46.8968 13.2902 48.3033 14.6967C49.7098 16.1032 50.5 18.0109 50.5 20ZM5.5 38.125C5.5 36.6332 6.09263 35.2024 7.14752 34.1475C8.20242 33.0926 9.63316 32.5 11.125 32.5H29.875C30.665 32.5 31.4175 32.6625 32.1 32.9575C29.4533 35.9288 27.9937 39.7709 28 43.75C27.9984 45.3481 28.2326 46.9377 28.695 48.4675C26.645 49.4 23.975 50 20.5 50C5.5 50 5.5 38.75 5.5 38.75V38.125ZM44.2525 57.505C47.2696 57.5043 50.2028 56.5114 52.6 54.6794C54.9972 52.8473 56.7254 50.2778 57.5183 47.3667C58.3112 44.4557 58.1248 41.3647 56.9879 38.57C55.8509 35.7753 53.8264 33.4321 51.2264 31.9013C48.6265 30.3706 45.5952 29.7374 42.5999 30.0993C39.6046 30.4611 36.8113 31.7979 34.6507 33.9037C32.49 36.0095 31.0817 38.7674 30.6429 41.7525C30.2042 44.7375 30.7592 47.784 32.2225 50.4225L30.5575 55.8875C30.4909 56.1044 30.4846 56.3354 30.5392 56.5556C30.5939 56.7759 30.7075 56.9771 30.8678 57.1377C31.0282 57.2983 31.2292 57.4122 31.4493 57.4672C31.6695 57.5222 31.9005 57.5163 32.1175 57.45L37.585 55.785C39.56 56.8825 41.835 57.505 44.2525 57.505ZM39.2525 42.505C38.9207 42.505 38.6024 42.3732 38.3677 42.1385C38.1331 41.9039 38.0013 41.5856 38.0013 41.2537C38.0013 40.9219 38.1331 40.6036 38.3677 40.369C38.6024 40.1343 38.9207 40.0025 39.2525 40.0025H49.2525C49.584 40.0025 49.902 40.1342 50.1364 40.3686C50.3708 40.603 50.5025 40.921 50.5025 41.2525C50.5025 41.584 50.3708 41.902 50.1364 42.1364C49.902 42.3708 49.584 42.5025 49.2525 42.5025L39.2525 42.505ZM44.2525 47.505H39.2525C38.921 47.505 38.603 47.3733 38.3686 47.1389C38.1342 46.9045 38.0025 46.5865 38.0025 46.255C38.0025 45.9235 38.1342 45.6055 38.3686 45.3711C38.603 45.1367 38.921 45.005 39.2525 45.005H44.2525C44.584 45.005 44.902 45.1367 45.1364 45.3711C45.3708 45.6055 45.5025 45.9235 45.5025 46.255C45.5025 46.5865 45.3708 46.9045 45.1364 47.1389C44.902 47.3733 44.584 47.505 44.2525 47.505Z" fill="#D11F2A"/>
</symbol>
<symbol id="red-cat" width="61" height="54" viewBox="0 0 61 54" fill="none">
<path d="M33.8348 20H35.616C37.9181 23.9896 42.2306 26.6667 47.1681 26.6667C48.3139 26.6667 49.4389 26.5208 50.5014 26.25V50C50.5014 51.8438 49.0118 53.3333 47.1681 53.3333C45.3243 53.3333 43.8348 51.8438 43.8348 50V35.3333L29.6681 46.6667H35.5014C37.3452 46.6667 38.8348 48.1562 38.8348 50C38.8348 51.8438 37.3452 53.3333 35.5014 53.3333H20.5014C14.9806 53.3333 10.5014 48.8542 10.5014 43.3333V20.0521C10.5014 18.375 9.25142 16.9479 7.58476 16.7396L6.76184 16.6354C4.93892 16.4062 3.63684 14.7396 3.86601 12.9167C4.09517 11.0938 5.76184 9.79167 7.58476 10.0208L8.40767 10.125C13.4077 10.75 17.1681 15 17.1681 20.0521V28.9375C20.7514 23.5521 26.8764 20 33.8348 20ZM50.5014 22.7604C49.4598 23.125 48.3348 23.3333 47.1681 23.3333C44.2098 23.3333 41.5431 22.0417 39.7098 20C39.3243 19.5729 38.9806 19.1146 38.6785 18.625C37.7202 17.0833 37.1681 15.2708 37.1681 13.3333V1.11458C37.1681 0.5 37.6577 0.0104167 38.2723 0H38.2931C38.6368 0 38.9598 0.166667 39.1681 0.4375V0.447917L40.5014 2.21875L43.3348 6L43.8348 6.66667H50.5014L51.0014 6L53.8348 2.21875L55.1681 0.447917V0.4375C55.3764 0.166667 55.6993 0 56.0431 0H56.0639C56.6785 0.0104167 57.1681 0.5 57.1681 1.11458V13.3333C57.1681 15.1354 56.6889 16.8333 55.8556 18.2917C54.6785 20.3542 52.7723 21.9583 50.5014 22.7604ZM45.5014 13.3333C45.5014 12.8913 45.3258 12.4674 45.0133 12.1548C44.7007 11.8423 44.2768 11.6667 43.8348 11.6667C43.3927 11.6667 42.9688 11.8423 42.6562 12.1548C42.3437 12.4674 42.1681 12.8913 42.1681 13.3333C42.1681 13.7754 42.3437 14.1993 42.6562 14.5118C42.9688 14.8244 43.3927 15 43.8348 15C44.2768 15 44.7007 14.8244 45.0133 14.5118C45.3258 14.1993 45.5014 13.7754 45.5014 13.3333ZM50.5014 15C50.9435 15 51.3674 14.8244 51.6799 14.5118C51.9925 14.1993 52.1681 13.7754 52.1681 13.3333C52.1681 12.8913 51.9925 12.4674 51.6799 12.1548C51.3674 11.8423 50.9435 11.6667 50.5014 11.6667C50.0594 11.6667 49.6355 11.8423 49.3229 12.1548C49.0103 12.4674 48.8348 12.8913 48.8348 13.3333C48.8348 13.7754 49.0103 14.1993 49.3229 14.5118C49.6355 14.8244 50.0594 15 50.5014 15Z" fill="#D11F2A"/>
</symbol>
<symbol id="red-people-money" width="61" height="60" viewBox="0 0 61 60" fill="none">
<path d="M20.75 27C23.3359 27 25.8158 25.9728 27.6443 24.1443C29.4728 22.3158 30.5 19.8359 30.5 17.25C30.5 14.6641 29.4728 12.1842 27.6443 10.3557C25.8158 8.52723 23.3359 7.5 20.75 7.5C18.1641 7.5 15.6842 8.52723 13.8557 10.3557C12.0272 12.1842 11 14.6641 11 17.25C11 19.8359 12.0272 22.3158 13.8557 24.1443C15.6842 25.9728 18.1641 27 20.75 27ZM27.5 37.5C27.4999 35.9271 27.9944 34.3941 28.9133 33.1176C29.8323 31.8411 31.1294 30.8859 32.621 30.387C31.9433 30.1306 31.2246 29.9995 30.5 30H11C9.4087 30 7.88258 30.6321 6.75736 31.7574C5.63214 32.8826 5 34.4087 5 36C5 36 5 48 20.75 48C23.441 48 25.67 47.649 27.521 47.07C27.5069 46.8803 27.4999 46.6902 27.5 46.5V37.5ZM51.5 19.5C51.5 21.4891 50.7098 23.3968 49.3033 24.8033C47.8968 26.2098 45.9891 27 44 27C42.0109 27 40.1032 26.2098 38.6967 24.8033C37.2902 23.3968 36.5 21.4891 36.5 19.5C36.5 17.5109 37.2902 15.6032 38.6967 14.1967C40.1032 12.7902 42.0109 12 44 12C45.9891 12 47.8968 12.7902 49.3033 14.1967C50.7098 15.6032 51.5 17.5109 51.5 19.5ZM30.5 37.5C30.5 36.3065 30.9741 35.1619 31.818 34.318C32.6619 33.4741 33.8065 33 35 33H53C54.1935 33 55.3381 33.4741 56.182 34.318C57.0259 35.1619 57.5 36.3065 57.5 37.5V46.5C57.5 47.6935 57.0259 48.8381 56.182 49.682C55.3381 50.5259 54.1935 51 53 51H35C33.8065 51 32.6619 50.5259 31.818 49.682C30.9741 48.8381 30.5 47.6935 30.5 46.5V37.5ZM33.5 37.5V40.5C34.6935 40.5 35.8381 40.0259 36.682 39.182C37.5259 38.3381 38 37.1935 38 36H35C35 36.3978 34.842 36.7794 34.5607 37.0607C34.2794 37.342 33.8978 37.5 33.5 37.5ZM54.5 40.5V37.5C54.1022 37.5 53.7206 37.342 53.4393 37.0607C53.158 36.7794 53 36.3978 53 36H50C50 37.1935 50.4741 38.3381 51.318 39.182C52.1619 40.0259 53.3065 40.5 54.5 40.5ZM50 48H53C53 47.6022 53.158 47.2206 53.4393 46.9393C53.7206 46.658 54.1022 46.5 54.5 46.5V43.5C53.3065 43.5 52.1619 43.9741 51.318 44.818C50.4741 45.6619 50 46.8065 50 48ZM33.5 43.5V46.5C33.8978 46.5 34.2794 46.658 34.5607 46.9393C34.842 47.2206 35 47.6022 35 48H38C38 46.8065 37.5259 45.6619 36.682 44.818C35.8381 43.9741 34.6935 43.5 33.5 43.5ZM44 46.5C45.1935 46.5 46.3381 46.0259 47.182 45.182C48.0259 44.3381 48.5 43.1935 48.5 42C48.5 40.8065 48.0259 39.6619 47.182 38.818C46.3381 37.9741 45.1935 37.5 44 37.5C42.8065 37.5 41.6619 37.9741 40.818 38.818C39.9741 39.6619 39.5 40.8065 39.5 42C39.5 43.1935 39.9741 44.3381 40.818 45.182C41.6619 46.0259 42.8065 46.5 44 46.5Z" fill="#D11F2A"/>
</symbol>
<symbol id="red-book" width="60" height="60" viewBox="0 0 60 60" fill="none">
<path d="M18.75 55C16.3333 55 14.2708 54.1458 12.5625 52.4375C10.8542 50.7292 10 48.6667 10 46.25V13.75C10 11.3333 10.8542 9.27083 12.5625 7.5625C14.2708 5.85417 16.3333 5 18.75 5H50V42.5C48.9583 42.5 48.0733 42.865 47.345 43.595C46.6167 44.325 46.2517 45.21 46.25 46.25C46.25 47.2917 46.615 48.1775 47.345 48.9075C48.075 49.6375 48.96 50.0017 50 50V55H18.75ZM20 37.5H25V10H20V37.5ZM18.75 50H42.0625C41.8125 49.4167 41.615 48.8233 41.47 48.22C41.325 47.6167 41.2517 46.96 41.25 46.25C41.25 45.5833 41.3125 44.9375 41.4375 44.3125C41.5625 43.6875 41.7708 43.0833 42.0625 42.5H18.75C17.6667 42.5 16.7708 42.865 16.0625 43.595C15.3542 44.325 15 45.21 15 46.25C15 47.3333 15.3542 48.2292 16.0625 48.9375C16.7708 49.6458 17.6667 50 18.75 50Z" fill="#D11F2A"/>
</symbol>
<symbol id="red-awards" width="61" height="60" viewBox="0 0 61 60" fill="none">
<path d="M14.0448 15.48L15.6648 22.38L14.0448 29.25L20.0748 32.97L23.7648 39L30.6648 37.38L37.5648 39L41.2548 32.97L47.2848 29.25L45.6648 22.38L47.2848 15.48L41.2848 11.76L37.5648 5.72998L30.6648 7.37998L23.7948 5.75998L20.0448 11.76L14.0448 15.48ZM30.6948 34.5C27.5122 34.5 24.46 33.2357 22.2096 30.9853C19.9591 28.7348 18.6948 25.6826 18.6948 22.5C18.6948 19.3174 19.9591 16.2651 22.2096 14.0147C24.46 11.7643 27.5122 10.5 30.6948 10.5C37.2948 10.5 42.6648 15.87 42.6648 22.47C42.6648 29.13 37.2948 34.5 30.6948 34.5ZM30.6348 31.5C25.6548 31.5 21.6648 27.48 21.6648 22.5C21.6648 17.55 25.6548 13.5 30.6348 13.5C35.6148 13.5 39.6648 17.55 39.6648 22.5C39.6648 27.48 35.6148 31.5 30.6348 31.5ZM42.1548 34.8L38.3148 41.52L32.0748 40.11L39.6648 57.6L43.8648 51H51.3648L42.1548 34.8ZM19.0548 35.01L22.8048 41.76L29.1948 40.23L21.6648 57.6L17.4648 51H9.96484L19.0548 35.01Z" fill="#D11F2A"/>
</symbol>
<symbol id="one" width="17" height="28" viewBox="0 0 17 28" fill="none">
<path d="M2.12641 27.5453C1.64445 27.5453 1.26397 27.4058 0.984942 27.1268C0.705918 26.8478 0.566406 26.48 0.566406 26.0234C0.566406 25.5414 0.705918 25.1736 0.984942 24.92C1.26397 24.6663 1.64445 24.5395 2.12641 24.5395H6.92055V3.65069H8.74689L3.19177 7.22727C2.83665 7.45556 2.49421 7.55703 2.16445 7.53166C1.86006 7.48093 1.59372 7.3541 1.36543 7.15117C1.13714 6.92288 0.984942 6.65654 0.908845 6.35215C0.832747 6.04776 0.84543 5.74337 0.946894 5.43898C1.07372 5.10922 1.32738 4.84288 1.70787 4.63995L6.9586 1.21556C7.33909 0.987272 7.69421 0.809711 8.02397 0.682881C8.37909 0.530687 8.72153 0.45459 9.05128 0.45459C9.43177 0.45459 9.76153 0.568736 10.0406 0.797029C10.3196 1.02532 10.4591 1.39313 10.4591 1.90044V24.5395H14.8727C15.3801 24.5395 15.7606 24.6663 16.0142 24.92C16.2932 25.1736 16.4327 25.5414 16.4327 26.0234C16.4327 26.5053 16.2932 26.8858 16.0142 27.1648C15.7606 27.4185 15.3801 27.5453 14.8727 27.5453H2.12641Z" fill="#045C6F"/>
</symbol>
<symbol id="two" width="19" height="28" viewBox="0 0 19 28" fill="none">
<path d="M2.79726 27.5661C2.18926 27.5661 1.73326 27.4268 1.42926 27.1481C1.1506 26.8441 1.01126 26.4388 1.01126 25.9321C1.01126 25.6281 1.08726 25.3241 1.23926 25.0201C1.39126 24.7161 1.61926 24.4121 1.92326 24.1081L10.2453 15.1781C11.5119 13.8354 12.4239 12.5941 12.9813 11.4541C13.5386 10.3141 13.8173 9.16142 13.8173 7.99608C13.8173 6.52675 13.3613 5.41208 12.4493 4.65208C11.5626 3.86675 10.2579 3.47408 8.53526 3.47408C7.47126 3.47408 6.44526 3.65142 5.45726 4.00608C4.4946 4.33542 3.5446 4.85475 2.60726 5.56408C2.2526 5.81742 1.92326 5.93142 1.61926 5.90608C1.31526 5.88075 1.04926 5.76675 0.821263 5.56408C0.618597 5.33608 0.466597 5.08275 0.365263 4.80408C0.289263 4.50008 0.30193 4.18342 0.403263 3.85408C0.504597 3.52475 0.71993 3.24608 1.04926 3.01808C2.08793 2.20742 3.29126 1.57408 4.65926 1.11808C6.02726 0.662082 7.43326 0.434082 8.87726 0.434082C10.7013 0.434082 12.2339 0.725416 13.4753 1.30808C14.7419 1.86542 15.7046 2.68875 16.3633 3.77808C17.0219 4.84208 17.3513 6.14675 17.3513 7.69208C17.3513 8.75608 17.1739 9.80742 16.8193 10.8461C16.4646 11.8594 15.9326 12.8981 15.2233 13.9621C14.5393 15.0261 13.6526 16.1281 12.5633 17.2681L4.65926 25.5901V24.5641H17.1233C17.6299 24.5641 18.0099 24.6907 18.2633 24.9441C18.5419 25.1974 18.6813 25.5648 18.6813 26.0461C18.6813 26.5274 18.5419 26.9074 18.2633 27.1861C18.0099 27.4394 17.6299 27.5661 17.1233 27.5661H2.79726Z" fill="#045C6F"/>
</symbol>
<symbol id="three" width="19" height="28" viewBox="0 0 19 28" fill="none">
<path d="M9.47263 27.8576C7.99041 27.8576 6.50819 27.6531 5.02597 27.2442C3.54375 26.8354 2.25319 26.222 1.1543 25.4042C0.796523 25.1487 0.553745 24.8548 0.425967 24.5226C0.29819 24.1904 0.259856 23.8837 0.310967 23.6026C0.387634 23.2959 0.540967 23.0404 0.770967 22.8359C1.00097 22.6315 1.28208 22.5165 1.6143 22.4909C1.94652 22.4398 2.3043 22.5292 2.68763 22.7592C3.78652 23.4748 4.87263 23.9987 5.94597 24.3309C7.04486 24.6376 8.18208 24.7909 9.35764 24.7909C10.6099 24.7909 11.6704 24.612 12.5393 24.2542C13.4082 23.8709 14.0599 23.3215 14.4943 22.6059C14.9543 21.8648 15.1843 20.9831 15.1843 19.9609C15.1843 18.4276 14.686 17.2776 13.6893 16.5109C12.6926 15.7187 11.236 15.3226 9.3193 15.3226H6.63597C6.0993 15.3226 5.69041 15.1948 5.4093 14.9392C5.12819 14.6581 4.98763 14.2876 4.98763 13.8276C4.98763 13.342 5.12819 12.9715 5.4093 12.7159C5.69041 12.4604 6.0993 12.3326 6.63597 12.3326H9.01264C10.1371 12.3326 11.0954 12.1409 11.8876 11.7576C12.6799 11.3487 13.2932 10.7865 13.7276 10.0709C14.1876 9.35536 14.4176 8.48647 14.4176 7.46425C14.4176 6.08425 13.9704 5.03647 13.076 4.32091C12.1815 3.5798 10.891 3.20925 9.2043 3.20925C8.10541 3.20925 7.07041 3.37536 6.0993 3.70758C5.12819 4.01425 4.1443 4.53813 3.14763 5.27925C2.81541 5.50925 2.48319 5.62425 2.15097 5.62425C1.81875 5.59869 1.53763 5.48369 1.30763 5.27925C1.10319 5.0748 0.962634 4.83202 0.885967 4.55091C0.809301 4.24425 0.822079 3.9248 0.924301 3.59258C1.02652 3.26036 1.25652 2.96647 1.6143 2.71091C2.66208 1.89313 3.86319 1.26702 5.21763 0.832579C6.59763 0.372578 8.01597 0.142578 9.47263 0.142578C11.236 0.142578 12.7437 0.42369 13.996 0.985912C15.2737 1.54814 16.2449 2.35314 16.9093 3.40091C17.5737 4.42313 17.906 5.66258 17.906 7.11925C17.906 8.21813 17.7015 9.22758 17.2926 10.1476C16.8837 11.042 16.296 11.8087 15.5293 12.4476C14.7882 13.0609 13.881 13.4954 12.8076 13.7509V13.3292C14.6732 13.6615 16.1171 14.4409 17.1393 15.6676C18.1871 16.8687 18.711 18.3765 18.711 20.1909C18.711 21.7498 18.3276 23.117 17.561 24.2926C16.8199 25.4426 15.7593 26.3242 14.3793 26.9376C12.9993 27.5509 11.3637 27.8576 9.47263 27.8576Z" fill="#045C6F"/>
</symbol>
<symbol id="icon-red-clock" viewBox="0 0 32 32">
<path fill="none" stroke="#d11f2a" style="stroke: var(--color1, #d11f2a)" stroke-linejoin="round" stroke-linecap="round" stroke-miterlimit="4" stroke-width="3.3455" d="M10.182 8.727v-5.818M21.818 8.727v-5.818M8.727 14.545h14.545M5.818 29.091h20.364c1.607 0 2.909-1.302 2.909-2.909v-17.455c0-1.607-1.302-2.909-2.909-2.909h-20.364c-1.607 0-2.909 1.302-2.909 2.909v17.455c0 1.607 1.302 2.909 2.909 2.909z"></path>
</symbol>
<symbol id="icon-red-calendar" viewBox="0 0 32 32">
<path fill="none" stroke="#d11f2a" style="stroke: var(--color1, #d11f2a)" stroke-linejoin="round" stroke-linecap="round" stroke-miterlimit="4" stroke-width="3.3455" d="M16 10.182v5.818l4.364 4.364M29.091 16c0 7.23-5.861 13.091-13.091 13.091s-13.091-5.861-13.091-13.091c0-7.23 5.861-13.091 13.091-13.091s13.091 5.861 13.091 13.091z"></path>
</symbol>
<symbol id="remove-icon" width="17" height="18" viewBox="0 0 17 18" fill="none">
<path fill-rule="evenodd" clip-rule="evenodd" d="M11.1859 3.59998H15.4219C15.581 3.59998 15.7336 3.66319 15.8461 3.77571C15.9587 3.88823 16.0219 4.04085 16.0219 4.19998C16.0219 4.35911 15.9587 4.51172 15.8461 4.62424C15.7336 4.73676 15.581 4.79998 15.4219 4.79998H13.9219V16.8C13.9219 16.9591 13.8587 17.1117 13.7461 17.2242C13.6336 17.3368 13.481 17.4 13.3219 17.4H3.12187C2.78587 17.4 2.52187 17.136 2.52187 16.8V4.79998H1.02187C0.862745 4.79998 0.710133 4.73676 0.597611 4.62424C0.485089 4.51172 0.421875 4.35911 0.421875 4.19998C0.421875 4.04085 0.485089 3.88823 0.597611 3.77571C0.710133 3.66319 0.862745 3.59998 1.02187 3.59998H5.25787C5.29932 2.88382 5.54962 2.19548 5.97787 1.61998C6.49387 0.983976 7.26187 0.599976 8.22187 0.599976C9.18187 0.599976 9.94987 0.983976 10.4659 1.61998C10.8935 2.19581 11.1437 2.88396 11.1859 3.59998ZM8.22187 1.79998C7.60987 1.79998 7.18987 2.02798 6.91387 2.37598C6.68587 2.66398 6.54187 3.09598 6.48187 3.59998H9.96187C9.88987 3.09598 9.76987 2.66398 9.52987 2.37598C9.24187 2.02798 8.83387 1.79998 8.22187 1.79998ZM3.72187 16.2H12.7219V4.79998H3.72187V16.2ZM6.0576 6.47571C6.17012 6.36319 6.32273 6.29998 6.48186 6.29998C6.64099 6.29998 6.7936 6.36319 6.90612 6.47571C7.01865 6.58823 7.08186 6.74085 7.08186 6.89998V14.1C7.08186 14.2591 7.01865 14.4117 6.90612 14.5242C6.7936 14.6368 6.64099 14.7 6.48186 14.7C6.32273 14.7 6.17012 14.6368 6.0576 14.5242C5.94507 14.4117 5.88186 14.2591 5.88186 14.1V6.89998C5.88186 6.74085 5.94507 6.58823 6.0576 6.47571ZM9.5376 6.47571C9.65012 6.36319 9.80273 6.29998 9.96186 6.29998C10.121 6.29998 10.2736 6.36319 10.3861 6.47571C10.4986 6.58823 10.5619 6.74085 10.5619 6.89998V14.1C10.5619 14.2591 10.4986 14.4117 10.3861 14.5242C10.2736 14.6368 10.121 14.7 9.96186 14.7C9.80273 14.7 9.65012 14.6368 9.5376 14.5242C9.42507 14.4117 9.36186 14.2591 9.36186 14.1V6.89998C9.36186 6.74085 9.42507 6.58823 9.5376 6.47571Z" fill="#070707"/>
</symbol>
</defs>
<symbol id="icon-cart" viewBox="0 0 32 32">
<path fill="currentColor" style="fill: currentColor" d="M27.8 21.8c0.557 0 1.091 0.221 1.485 0.615s0.615 0.928 0.615 1.485-0.221 1.091-0.615 1.485c-0.394 0.394-0.928 0.615-1.485 0.615s-1.091-0.221-1.485-0.615c-0.394-0.394-0.615-0.928-0.615-1.485 0-1.166 0.934-2.1 2.1-2.1zM11 5h3.434l0.987 2.1h15.53c0.279 0 0.546 0.111 0.742 0.308s0.307 0.464 0.307 0.742c0 0.178-0.052 0.357-0.126 0.525l-3.759 6.793c-0.357 0.641-1.050 1.082-1.837 1.082h-7.823l-0.945 1.712-0.032 0.126c0 0.070 0.028 0.136 0.077 0.186s0.116 0.077 0.186 0.077h12.159v2.1h-12.6c-0.557 0-1.091-0.221-1.485-0.615s-0.615-0.928-0.615-1.485c0-0.367 0.095-0.714 0.252-1.008l1.428-2.572-3.78-7.97h-2.1v-2.1zM17.3 21.8c0.557 0 1.091 0.221 1.485 0.615s0.615 0.928 0.615 1.485-0.221 1.091-0.615 1.485c-0.394 0.394-0.928 0.615-1.485 0.615s-1.091-0.221-1.485-0.615c-0.394-0.394-0.615-0.928-0.615-1.485 0-1.166 0.935-2.1 2.1-2.1zM26.75 14.45l2.919-5.25h-13.272l2.478 5.25h7.875z"></path>
<path fill="currentColor" style="fill: currentColor" d="M5 20c-0.291 0-0.516-0.079-0.675-0.238-0.159-0.172-0.238-0.403-0.238-0.694v-3.254h-3.194c-0.278 0-0.496-0.073-0.655-0.218-0.159-0.159-0.238-0.377-0.238-0.655s0.079-0.489 0.238-0.635c0.159-0.159 0.377-0.238 0.655-0.238h3.194v-3.155c0-0.291 0.079-0.516 0.238-0.675s0.39-0.238 0.694-0.238c0.291 0 0.509 0.079 0.655 0.238 0.159 0.159 0.238 0.384 0.238 0.675v3.155h3.194c0.291 0 0.509 0.079 0.655 0.238 0.159 0.146 0.238 0.357 0.238 0.635s-0.079 0.496-0.238 0.655c-0.146 0.146-0.364 0.218-0.655 0.218h-3.194v3.254c0 0.291-0.079 0.522-0.238 0.694-0.146 0.159-0.37 0.238-0.675 0.238z"></path>
</symbol>
</svg>
