<svg width="101" height="101" fill="none" xmlns="http://www.w3.org/2000/svg"><rect width="101" height="101" rx="20" fill="#045C6F"/><path d="M19.136 47.167S46.777 35.823 56.364 31.83c3.675-1.598 16.137-6.71 16.137-6.71s5.752-2.237 5.273 3.195c-.16 2.237-1.438 10.066-2.716 18.534-1.918 11.983-3.995 25.084-3.995 25.084s-.32 3.675-3.035 4.314c-2.717.64-7.19-2.236-7.99-2.876-.638-.479-11.982-7.669-16.137-11.184-1.118-.959-2.396-2.876.16-5.113 5.752-5.272 12.622-11.823 16.776-15.977 1.918-1.917 3.835-6.391-4.154-.959a1364.465 1364.465 0 01-22.528 15.179s-2.556 1.597-7.35.16c-4.793-1.44-10.385-3.357-10.385-3.357s-3.834-2.396 2.716-4.953z" fill="#fff"/></svg>