<svg width="101" height="101" fill="none" xmlns="http://www.w3.org/2000/svg"><rect width="101" height="101" rx="20" fill="#045C6F"/><path d="M73.206 37.892c-2.884 0-5.55-.958-7.684-2.568a12.77 12.77 0 01-4.84-7.684 12.74 12.74 0 01-.246-2.39h-8.248v22.529l-.01 12.336c0 3.299-2.152 6.094-5.125 7.082a7.493 7.493 0 01-6.183-.682 7.446 7.446 0 01-3.645-6.291c-.06-4.168 3.309-7.576 7.477-7.576.82 0 1.61.138 2.35.375v-8.355c-.78-.119-1.57-.178-2.38-.178-4.563 0-8.83 1.896-11.881 5.314a15.506 15.506 0 00-3.902 9.333 15.454 15.454 0 004.603 12.03c.474.464.968.899 1.491 1.304a15.824 15.824 0 009.69 3.279c.8 0 1.6-.06 2.38-.178a15.78 15.78 0 008.8-4.405 15.431 15.431 0 004.632-10.983l-.04-18.43a20.653 20.653 0 004.633 2.697 20.778 20.778 0 008.148 1.639v-8.208c.01.01-.02.01-.02.01z" fill="#fff"/></svg>