<svg width="80" height="80" fill="none" xmlns="http://www.w3.org/2000/svg"><g filter="url(#filter0_d_879_40096)"><rect x="12" y="11" width="56" height="56" rx="8" fill="#D11F2A" shape-rendering="crispEdges"/><path d="M40 21.334l10 10m-10-10l-10 10m10-10v23.333" stroke="#fff" stroke-width="2" stroke-linecap="round" stroke-linejoin="round"/><path d="M21.108 59.108c-.296 0-.524-.08-.684-.24-.152-.16-.228-.388-.228-.684v-4.26c0-.304.076-.532.228-.684.16-.152.388-.228.684-.228.288 0 .508.076.66.228.16.152.24.38.24.684v1.368h2.244v-1.368c0-.304.076-.532.228-.684.152-.152.376-.228.672-.228.288 0 .512.076.672.228.16.152.24.38.24.684v4.26c0 .296-.08.524-.24.684-.16.16-.384.24-.672.24-.296 0-.52-.08-.672-.24-.152-.16-.228-.388-.228-.684v-1.488h-2.244v1.488c0 .296-.076.524-.228.684-.152.16-.376.24-.672.24zm8.522.024c-.432 0-.82-.084-1.164-.252a1.99 1.99 0 01-.804-.684 1.713 1.713 0 01-.288-.972c0-.432.112-.772.336-1.02.224-.256.588-.436 1.092-.54.504-.112 1.172-.168 2.004-.168h.636v.936h-.624c-.408 0-.74.024-.996.072-.248.04-.428.112-.54.216-.104.104-.156.248-.156.432 0 .224.076.408.228.552.16.144.388.216.684.216.232 0 .436-.052.612-.156a1.21 1.21 0 00.432-.444c.104-.192.156-.408.156-.648v-1.38c0-.352-.08-.6-.24-.744-.16-.152-.432-.228-.816-.228a3.33 3.33 0 00-.708.084 4.74 4.74 0 00-.828.252c-.176.08-.332.1-.468.06a.592.592 0 01-.312-.24.734.734 0 01-.108-.384c0-.144.04-.28.12-.408a.705.705 0 01.396-.3 5.153 5.153 0 011.98-.396c.616 0 1.12.092 1.512.276.4.176.7.452.9.828.2.368.3.844.3 1.428v2.664c0 .296-.072.524-.216.684-.144.16-.352.24-.624.24s-.484-.08-.636-.24c-.144-.16-.216-.388-.216-.684v-.444l.084.072a1.541 1.541 0 01-.9 1.164c-.24.104-.516.156-.828.156zm5.799-.024c-.296 0-.524-.08-.684-.24-.152-.168-.228-.4-.228-.696v-4.044c0-.328.084-.58.252-.756.176-.176.428-.264.756-.264h2.988c.248 0 .436.06.564.18.128.12.192.296.192.528 0 .232-.064.408-.192.528-.128.12-.316.18-.564.18h-2.184v3.648c0 .624-.3.936-.9.936zm7.556.024c-.632 0-1.184-.124-1.656-.372a2.62 2.62 0 01-1.08-1.068c-.256-.464-.384-1.012-.384-1.644 0-.472.072-.896.216-1.272a2.627 2.627 0 011.62-1.572 3.633 3.633 0 011.284-.216c.632 0 1.18.124 1.644.372.472.248.836.6 1.092 1.056.264.456.396 1 .396 1.632 0 .48-.076.908-.228 1.284-.144.376-.352.7-.624.972s-.604.48-.996.624a3.826 3.826 0 01-1.284.204zm0-1.356c.264 0 .492-.064.684-.192.192-.128.344-.316.456-.564.112-.256.168-.58.168-.972 0-.584-.12-1.012-.36-1.284-.24-.28-.556-.42-.948-.42-.256 0-.484.06-.684.18-.192.12-.344.308-.456.564-.104.248-.156.568-.156.96 0 .584.12 1.02.36 1.308.24.28.552.42.936.42zm5.322 3.492c-.296 0-.524-.08-.684-.24-.151-.152-.227-.38-.227-.684v-6.42c0-.296.075-.52.227-.672.16-.16.38-.24.66-.24.297 0 .52.08.672.24.153.152.229.376.229.672v.816l-.133-.468c.12-.384.36-.692.72-.924.368-.24.788-.36 1.26-.36.513 0 .96.124 1.345.372.392.248.696.6.912 1.056.216.456.324 1 .324 1.632 0 .632-.108 1.18-.325 1.644-.215.464-.515.82-.9 1.068-.383.248-.836.372-1.355.372a2.29 2.29 0 01-1.236-.336 1.737 1.737 0 01-.733-.9h.145v2.448c0 .304-.08.532-.24.684-.153.16-.373.24-.66.24zm2.184-3.492a1.18 1.18 0 001.129-.756c.111-.256.168-.58.168-.972 0-.584-.12-1.012-.36-1.284-.24-.28-.552-.42-.936-.42-.256 0-.484.06-.684.18-.193.12-.344.308-.456.564-.112.248-.168.568-.168.96 0 .584.12 1.02.36 1.308.24.28.556.42.948.42zm5.919 3.492a.785.785 0 01-.516-.168.664.664 0 01-.24-.444 1.042 1.042 0 01.096-.564l.804-1.776v.744l-2.124-4.872c-.08-.208-.108-.4-.084-.576a.648.648 0 01.264-.432c.152-.112.36-.168.624-.168.216 0 .388.052.516.156.136.096.26.284.372.564l1.416 3.6h-.384l1.464-3.612c.112-.272.236-.456.372-.552.144-.104.336-.156.576-.156.208 0 .372.056.492.168a.629.629 0 01.228.42.958.958 0 01-.096.576l-2.82 6.396c-.12.272-.256.456-.408.552a.976.976 0 01-.552.144z" fill="#fff"/></g><defs><filter id="filter0_d_879_40096" x="0" y="0" width="80" height="80" filterUnits="userSpaceOnUse" color-interpolation-filters="sRGB"><feFlood flood-opacity="0" result="BackgroundImageFix"/><feColorMatrix in="SourceAlpha" values="0 0 0 0 0 0 0 0 0 0 0 0 0 0 0 0 0 0 127 0" result="hardAlpha"/><feOffset dy="1"/><feGaussianBlur stdDeviation="6"/><feComposite in2="hardAlpha" operator="out"/><feColorMatrix values="0 0 0 0 0 0 0 0 0 0 0 0 0 0 0 0 0 0 0.12 0"/><feBlend in2="BackgroundImageFix" result="effect1_dropShadow_879_40096"/><feBlend in="SourceGraphic" in2="effect1_dropShadow_879_40096" result="shape"/></filter></defs></svg>