<svg width="101" height="101" fill="none" xmlns="http://www.w3.org/2000/svg"><rect width="101" height="101" rx="20" fill="#045C6F"/><path fill-rule="evenodd" clip-rule="evenodd" d="M36.163 23.533a65.705 65.705 0 0128.668 0l1.005.222a15.291 15.291 0 0111.486 11.163 58.492 58.492 0 010 28.774 15.292 15.292 0 01-11.486 11.162l-1.008.223a65.707 65.707 0 01-18.027 1.48l-7.87 7.042a2.225 2.225 0 01-3.678-1.29L33.95 74.53a15.291 15.291 0 01-10.279-10.84 58.488 58.488 0 010-28.773 15.29 15.29 0 0111.486-11.163l1.005-.222z" fill="#fff"/><path d="M38.828 34.859a2.438 2.438 0 00-1.593.314h-.041a12.185 12.185 0 00-2.97 2.441c-.711.822-1.097 1.653-1.198 2.454-.06.474-.018.955.122 1.409l.053.03a35.228 35.228 0 003.12 6.745 39.673 39.673 0 006.023 8.231l.07.101.114.083.068.08.083.072a40.235 40.235 0 008.252 6.051c3.427 1.866 5.506 2.747 6.755 3.115v.018a3.43 3.43 0 001.032.163 4.776 4.776 0 002.86-1.228c.964-.855 1.78-1.86 2.414-2.979v-.02c.597-1.128.395-2.19-.465-2.91a35.978 35.978 0 00-5.58-4.005c-1.33-.72-2.679-.285-3.225.445l-1.165 1.471c-.6.73-1.685.63-1.685.63l-.03.017c-8.101-2.068-10.264-10.27-10.264-10.27s-.1-1.115.65-1.684l1.46-1.175c.7-.57 1.186-1.916.435-3.245a35.016 35.016 0 00-3.995-5.577 2.219 2.219 0 00-1.305-.78l.005.003zm13.69-3.566a1.483 1.483 0 100 2.966c3.75 0 6.865 1.225 9.33 3.575a13.146 13.146 0 012.9 4.473c.65 1.67.947 3.453.87 5.239a1.484 1.484 0 002.966.124 15.896 15.896 0 00-1.07-6.437 16.144 16.144 0 00-3.572-5.5l-.03-.029c-3.058-2.922-6.926-4.411-11.394-4.411z" fill="#045C6F"/><path d="M52.413 36.169a1.483 1.483 0 100 2.966h.05c2.706.193 4.675 1.095 6.055 2.575 1.415 1.525 2.147 3.42 2.091 5.764a1.483 1.483 0 102.966.068c.072-3.076-.92-5.731-2.883-7.849v-.006c-2.008-2.154-4.764-3.293-8.08-3.515l-.05-.006-.15.003z" fill="#045C6F"/><path d="M52.356 41.138a1.483 1.483 0 10-.154 2.96c1.24.065 2.032.44 2.53.94.501.505.875 1.315.943 2.581a1.484 1.484 0 102.96-.157c-.094-1.78-.652-3.352-1.794-4.509-1.148-1.157-2.711-1.72-4.485-1.815z" fill="#045C6F"/></svg>