<svg width="54" height="36" fill="none" xmlns="http://www.w3.org/2000/svg"><path d="M27 0l-.807.426L2.958 12.355 0 13.846l2.904 1.438v14.379c-1.028.592-1.72 1.67-1.72 2.929C1.183 34.476 2.722 36 4.624 36c1.903 0 3.443-1.524 3.443-3.408 0-1.258-.693-2.337-1.721-2.93v-12.62l3.442 1.757v8.68c0 .753.35 1.431.753 1.864.403.433.894.692 1.398.959 1.015.526 2.219.898 3.711 1.225 2.986.659 6.965 1.065 11.349 1.065s8.364-.406 11.349-1.065c1.492-.327 2.696-.7 3.71-1.225.505-.267.996-.526 1.4-.959.403-.433.752-1.111.752-1.864V18.8l6.83-3.462L54 13.847l-2.958-1.492L27.807.426 27 0zm0 3.834l19.47 10.012-3.066 1.544c-.39-.405-.86-.705-1.344-.958-1.009-.526-2.219-.899-3.711-1.225-2.979-.659-6.945-1.065-11.349-1.065s-8.37.406-11.349 1.065c-1.492.326-2.702.7-3.71 1.225-.485.253-.955.553-1.345.958L7.53 13.846 27 3.834zm0 11.716c4.202 0 7.98.38 10.596.959 1.304.286 2.353.619 2.904.905.175.093.202.16.269.213v6.497c-.72-.26-1.506-.492-2.42-.692-2.985-.66-6.965-1.065-11.349-1.065s-8.363.406-11.349 1.065c-.914.2-1.7.433-2.42.692v-6.497c.067-.053.094-.12.269-.213.551-.286 1.6-.619 2.904-.905 2.616-.58 6.394-.959 10.596-.959zm0 10.225c4.175 0 7.974.38 10.596.959 1.089.24 1.775.492 2.366.745a12.43 12.43 0 01-2.366.746c-2.622.579-6.42.958-10.596.958-4.175 0-7.974-.379-10.596-.958a12.43 12.43 0 01-2.366-.746 12.43 12.43 0 012.366-.745c2.622-.58 6.421-.959 10.596-.959z" fill="#045C6F"/></svg>