<svg width="44" height="48" fill="none" xmlns="http://www.w3.org/2000/svg"><path d="M22 0c-1.131 0-2.255.39-3.224 1.096L15.78 3.231l-3.45.461h-.056l-.057.058c-2.305.526-4.122 2.38-4.638 4.73l-.056.058v.058l-.453 3.577-2.092 2.77L4.92 15v.058c-1.265 2.062-1.322 4.723.057 6.692l2.149 3.058.566 3.173-5.826 9.057L0 39.865h8.653l2.092 4.962L12.046 48l1.867-2.885 5.712-8.769c1.534.642 3.266.7 4.75 0l5.712 8.77L31.954 48l1.3-3.173 2.093-4.962H44l-1.866-2.827-5.656-8.769.453-3.461 2.092-3.058.057-.058v-.057c1.265-2.063 1.322-4.666-.057-6.635l-2.092-3.058-.68-3.461h.058c-.008-.043-.05-.072-.057-.116-.325-2.415-2.199-4.377-4.581-4.673h-.057l-3.393-.461-2.997-2.135C24.255.39 23.13 0 22 0zm0 3.75c.417 0 .827.13 1.131.346l3.224 2.366.396.288.452.058 3.959.577h.056c.814.093 1.379.67 1.47 1.5V9l.736 4.096.057.404.282.346 2.32 3.289c.43.613.487 1.651-.057 2.538l-2.545 3.635-.057.461-.565 4.039v.057a1.858 1.858 0 01-.283.808l-.113.058v.057a1.584 1.584 0 01-1.075.577h-.113l-4.128.75-.453.058-.34.289-3.223 2.365c-.6.44-1.675.498-2.545-.058l-2.94-2.307-.34-.289-.51-.058-3.958-.576h-.056a1.6 1.6 0 01-1.245-.808 1.852 1.852 0 01-.226-.693v-.115l-.735-4.211-.057-.462-.283-.346-2.318-3.289c-.431-.613-.488-1.709.056-2.596l2.262-3 .283-.346.057-.52.509-3.865c.007-.028.05-.028.056-.057a2.549 2.549 0 011.81-1.846c.028-.008.028-.05.057-.058l3.789-.52.452-.057.396-.288 3.224-2.366A1.987 1.987 0 0122 3.75zm12.499 28.096l2.77 4.327h-4.354l-.452 1.154-1.245 2.942-3.845-6 .848-.634L31.784 33v.058c.043-.008.07-.05.113-.058a5.324 5.324 0 002.602-1.154zM9.5 31.904a5.115 5.115 0 002.828 1.327h.057l3.45.461.791.635-3.845 5.942-1.245-2.942-.452-1.154H6.73l2.771-4.27z" fill="#045C6F"/></svg>