<svg width="46" height="46" fill="none" xmlns="http://www.w3.org/2000/svg"><path d="M23 0C10.318 0 0 10.318 0 23s10.318 23 23 23 23-10.318 23-23S35.682 0 23 0zm0 3.538c10.73 0 19.462 8.732 19.462 19.462S33.73 42.462 23 42.462 3.538 33.73 3.538 23 12.27 3.538 23 3.538zm-8.846 12.385c-3.705 0-6.386 2.136-6.386 2.136l2.156 2.805s1.917-1.402 4.233-1.402 4.23 1.402 4.23 1.402l2.156-2.805s-2.684-2.136-6.39-2.136zm17.692 0c-3.705 0-6.386 2.136-6.386 2.136l2.157 2.805s1.917-1.402 4.233-1.402 4.23 1.402 4.23 1.402l2.155-2.805s-2.684-2.136-6.389-2.136zm-21.23 12.385S13.454 37.154 23 37.154s12.385-8.846 12.385-8.846h-24.77z" fill="#045C6F"/></svg>