<svg width="42" height="53" fill="none" xmlns="http://www.w3.org/2000/svg"><path d="M4.38 10.48L6 17.38l-1.62 6.87 6.03 3.72L14.1 34l6.9-1.62L27.9 34l3.69-6.03 6.03-3.72L36 17.38l1.62-6.9-6-3.72L27.9.73 21 2.38 14.13.76l-3.75 6-6 3.72zM21.03 29.5a12 12 0 010-24C27.63 5.5 33 10.87 33 17.47c0 6.66-5.37 12.03-11.97 12.03zm-.06-3c-4.98 0-8.97-4.02-8.97-9 0-4.95 3.99-9 8.97-9s9.03 4.05 9.03 9c0 4.98-4.05 9-9.03 9zm11.52 3.3l-3.84 6.72-6.24-1.41L30 52.6l4.2-6.6h7.5l-9.21-16.2zm-23.1.21l3.75 6.75 6.39-1.53L12 52.6 7.8 46H.3l9.09-15.99z" fill="#045C6F"/></svg>