<svg width="30" height="30" fill="none" xmlns="http://www.w3.org/2000/svg"><rect x=".5" y=".5" width="29" height="29" rx="14.5" fill="#fff"/><rect x=".5" y=".5" width="29" height="29" rx="14.5" stroke="#F0F0F0"/><g clip-path="url(#clip0_4553_38597)" fill-rule="evenodd" clip-rule="evenodd" fill="#070707"><path d="M12.797 14.764a.3.3 0 01.3-.301l3.32-.008a.3.3 0 110 .6l-3.32.008a.3.3 0 01-.3-.3z"/><path d="M14.752 12.799a.3.3 0 01.301.3l.008 3.32a.3.3 0 01-.6 0l-.008-3.32a.3.3 0 01.3-.3z"/><path d="M17.7 11.818a4.159 4.159 0 10-5.882 5.881 4.159 4.159 0 005.881-5.88zm-6.306-.424a4.759 4.759 0 016.777 6.681l2.777 2.777a.3.3 0 11-.424.425l-2.797-2.798a4.76 4.76 0 01-6.333-7.085z"/></g><defs><clipPath id="clip0_4553_38597"><path fill="#fff" transform="translate(10 10)" d="M0 0h12v12H0z"/></clipPath></defs></svg>