<svg width="17" height="28" viewBox="0 0 17 28" fill="none" xmlns="http://www.w3.org/2000/svg">
<path d="M2.12641 27.5453C1.64445 27.5453 1.26397 27.4058 0.984942 27.1268C0.705918 26.8478 0.566406 26.48 0.566406 26.0234C0.566406 25.5414 0.705918 25.1736 0.984942 24.92C1.26397 24.6663 1.64445 24.5395 2.12641 24.5395H6.92055V3.65069H8.74689L3.19177 7.22727C2.83665 7.45556 2.49421 7.55703 2.16445 7.53166C1.86006 7.48093 1.59372 7.3541 1.36543 7.15117C1.13714 6.92288 0.984942 6.65654 0.908845 6.35215C0.832747 6.04776 0.84543 5.74337 0.946894 5.43898C1.07372 5.10922 1.32738 4.84288 1.70787 4.63995L6.9586 1.21556C7.33909 0.987272 7.69421 0.809711 8.02397 0.682881C8.37909 0.530687 8.72153 0.45459 9.05128 0.45459C9.43177 0.45459 9.76153 0.568736 10.0406 0.797029C10.3196 1.02532 10.4591 1.39313 10.4591 1.90044V24.5395H14.8727C15.3801 24.5395 15.7606 24.6663 16.0142 24.92C16.2932 25.1736 16.4327 25.5414 16.4327 26.0234C16.4327 26.5053 16.2932 26.8858 16.0142 27.1648C15.7606 27.4185 15.3801 27.5453 14.8727 27.5453H2.12641Z" fill="#045C6F"/>
</svg>
