<svg width="19" height="28" viewBox="0 0 19 28" fill="none" xmlns="http://www.w3.org/2000/svg">
<path d="M2.79726 27.5661C2.18926 27.5661 1.73326 27.4268 1.42926 27.1481C1.1506 26.8441 1.01126 26.4388 1.01126 25.9321C1.01126 25.6281 1.08726 25.3241 1.23926 25.0201C1.39126 24.7161 1.61926 24.4121 1.92326 24.1081L10.2453 15.1781C11.5119 13.8354 12.4239 12.5941 12.9813 11.4541C13.5386 10.3141 13.8173 9.16142 13.8173 7.99608C13.8173 6.52675 13.3613 5.41208 12.4493 4.65208C11.5626 3.86675 10.2579 3.47408 8.53526 3.47408C7.47126 3.47408 6.44526 3.65142 5.45726 4.00608C4.4946 4.33542 3.5446 4.85475 2.60726 5.56408C2.2526 5.81742 1.92326 5.93142 1.61926 5.90608C1.31526 5.88075 1.04926 5.76675 0.821263 5.56408C0.618597 5.33608 0.466597 5.08275 0.365263 4.80408C0.289263 4.50008 0.30193 4.18342 0.403263 3.85408C0.504597 3.52475 0.71993 3.24608 1.04926 3.01808C2.08793 2.20742 3.29126 1.57408 4.65926 1.11808C6.02726 0.662082 7.43326 0.434082 8.87726 0.434082C10.7013 0.434082 12.2339 0.725416 13.4753 1.30808C14.7419 1.86542 15.7046 2.68875 16.3633 3.77808C17.0219 4.84208 17.3513 6.14675 17.3513 7.69208C17.3513 8.75608 17.1739 9.80742 16.8193 10.8461C16.4646 11.8594 15.9326 12.8981 15.2233 13.9621C14.5393 15.0261 13.6526 16.1281 12.5633 17.2681L4.65926 25.5901V24.5641H17.1233C17.6299 24.5641 18.0099 24.6907 18.2633 24.9441C18.5419 25.1974 18.6813 25.5648 18.6813 26.0461C18.6813 26.5274 18.5419 26.9074 18.2633 27.1861C18.0099 27.4394 17.6299 27.5661 17.1233 27.5661H2.79726Z" fill="#045C6F"/>
</svg>
