<svg width="19" height="28" viewBox="0 0 19 28" fill="none" xmlns="http://www.w3.org/2000/svg">
<path d="M9.47263 27.8576C7.99041 27.8576 6.50819 27.6531 5.02597 27.2442C3.54375 26.8354 2.25319 26.222 1.1543 25.4042C0.796523 25.1487 0.553745 24.8548 0.425967 24.5226C0.29819 24.1904 0.259856 23.8837 0.310967 23.6026C0.387634 23.2959 0.540967 23.0404 0.770967 22.8359C1.00097 22.6315 1.28208 22.5165 1.6143 22.4909C1.94652 22.4398 2.3043 22.5292 2.68763 22.7592C3.78652 23.4748 4.87263 23.9987 5.94597 24.3309C7.04486 24.6376 8.18208 24.7909 9.35764 24.7909C10.6099 24.7909 11.6704 24.612 12.5393 24.2542C13.4082 23.8709 14.0599 23.3215 14.4943 22.6059C14.9543 21.8648 15.1843 20.9831 15.1843 19.9609C15.1843 18.4276 14.686 17.2776 13.6893 16.5109C12.6926 15.7187 11.236 15.3226 9.3193 15.3226H6.63597C6.0993 15.3226 5.69041 15.1948 5.4093 14.9392C5.12819 14.6581 4.98763 14.2876 4.98763 13.8276C4.98763 13.342 5.12819 12.9715 5.4093 12.7159C5.69041 12.4604 6.0993 12.3326 6.63597 12.3326H9.01264C10.1371 12.3326 11.0954 12.1409 11.8876 11.7576C12.6799 11.3487 13.2932 10.7865 13.7276 10.0709C14.1876 9.35536 14.4176 8.48647 14.4176 7.46425C14.4176 6.08425 13.9704 5.03647 13.076 4.32091C12.1815 3.5798 10.891 3.20925 9.2043 3.20925C8.10541 3.20925 7.07041 3.37536 6.0993 3.70758C5.12819 4.01425 4.1443 4.53813 3.14763 5.27925C2.81541 5.50925 2.48319 5.62425 2.15097 5.62425C1.81875 5.59869 1.53763 5.48369 1.30763 5.27925C1.10319 5.0748 0.962634 4.83202 0.885967 4.55091C0.809301 4.24425 0.822079 3.9248 0.924301 3.59258C1.02652 3.26036 1.25652 2.96647 1.6143 2.71091C2.66208 1.89313 3.86319 1.26702 5.21763 0.832579C6.59763 0.372578 8.01597 0.142578 9.47263 0.142578C11.236 0.142578 12.7437 0.42369 13.996 0.985912C15.2737 1.54814 16.2449 2.35314 16.9093 3.40091C17.5737 4.42313 17.906 5.66258 17.906 7.11925C17.906 8.21813 17.7015 9.22758 17.2926 10.1476C16.8837 11.042 16.296 11.8087 15.5293 12.4476C14.7882 13.0609 13.881 13.4954 12.8076 13.7509V13.3292C14.6732 13.6615 16.1171 14.4409 17.1393 15.6676C18.1871 16.8687 18.711 18.3765 18.711 20.1909C18.711 21.7498 18.3276 23.117 17.561 24.2926C16.8199 25.4426 15.7593 26.3242 14.3793 26.9376C12.9993 27.5509 11.3637 27.8576 9.47263 27.8576Z" fill="#045C6F"/>
</svg>
