<svg width="32" height="32" viewBox="0 0 32 32" fill="none" xmlns="http://www.w3.org/2000/svg">
<path d="M5.94034 32H24.5003C26.3943 32 27.9303 30.464 27.9303 28.568V13.348C31.1503 13.22 33.0763 9.648 31.3563 6.872L30.3523 5.252C29.9723 4.63814 29.4417 4.1315 28.811 3.7801C28.1803 3.42869 27.4703 3.24416 26.7483 3.244H23.8783V1.972C23.8783 1.71303 23.8273 1.4566 23.7282 1.21735C23.6291 0.978094 23.4839 0.760702 23.3008 0.577585C23.1176 0.394468 22.9002 0.249212 22.661 0.15011C22.4217 0.0510075 22.1653 0 21.9063 0C21.2642 0.00026259 20.6284 0.127006 20.0352 0.372994C19.442 0.618983 18.9031 0.979398 18.4492 1.43366C17.9953 1.88793 17.6353 2.42714 17.3898 3.02053C17.1443 3.61391 17.0181 4.24984 17.0183 4.892V11.804C14.4623 12.056 12.5323 13.264 11.1143 14.968C9.55034 16.848 8.62834 19.298 8.08034 21.652C7.52834 24.016 7.33434 26.368 7.27434 28.116C7.25034 28.864 7.25034 29.508 7.25834 30H5.94034C5.17196 30.0001 4.42031 29.7756 3.77783 29.3541C3.13534 28.9326 2.63004 28.3326 2.32405 27.6278C2.01807 26.923 1.92474 26.1441 2.05556 25.3869C2.18637 24.6297 2.53561 23.9273 3.06034 23.366L4.90034 21.392C6.16847 20.0318 6.85924 18.2326 6.82716 16.3733C6.79507 14.5139 6.04264 12.7396 4.72834 11.424L2.92234 9.618C2.83009 9.52249 2.71975 9.44631 2.59775 9.3939C2.47574 9.34149 2.34452 9.3139 2.21174 9.31275C2.07896 9.3116 1.94728 9.3369 1.82439 9.38718C1.70149 9.43746 1.58984 9.51171 1.49595 9.60561C1.40205 9.6995 1.3278 9.81115 1.27752 9.93405C1.22724 10.0569 1.20194 10.1886 1.20309 10.3214C1.20424 10.4542 1.23183 10.5854 1.28424 10.7074C1.33665 10.8294 1.41283 10.9398 1.50834 11.032L3.31434 12.838C4.26316 13.7865 4.80645 15.0665 4.82959 16.4079C4.85272 17.7494 4.35389 19.0473 3.43834 20.028L1.59834 22.002C0.809777 22.8489 0.285453 23.9074 0.0896507 25.0479C-0.106152 26.1884 0.0350773 27.3612 0.496023 28.4226C0.956968 29.4839 1.7176 30.3878 2.68466 31.0232C3.65172 31.6587 4.78319 31.9981 5.94034 32ZM21.8803 2V4.244C21.8803 4.50922 21.9857 4.76357 22.1732 4.95111C22.3608 5.13864 22.6151 5.244 22.8803 5.244H26.7483C27.5243 5.244 28.2443 5.644 28.6523 6.304L29.6583 7.926C29.8689 8.26576 29.9849 8.6556 29.9943 9.0552C30.0037 9.4548 29.9062 9.84966 29.7118 10.1989C29.5175 10.5482 29.2334 10.8393 28.8889 11.042C28.5444 11.2447 28.1521 11.3517 27.7523 11.352H26.9323C26.6671 11.352 26.4128 11.4574 26.2252 11.6449C26.0377 11.8324 25.9323 12.0868 25.9323 12.352V28.568C25.9323 29.358 25.2923 30 24.5003 30H23.0683V28.568C23.0689 27.0131 22.4518 25.5217 21.3529 24.4216C20.254 23.3216 18.7632 22.7031 17.2083 22.702H15.1803C14.9151 22.702 14.6608 22.8074 14.4732 22.9949C14.2857 23.1824 14.1803 23.4368 14.1803 23.702C14.1803 23.9672 14.2857 24.2216 14.4732 24.4091C14.6608 24.5966 14.9151 24.702 15.1803 24.702H17.2063C19.3403 24.702 21.0703 26.432 21.0703 28.568V30H9.25834C9.24834 29.532 9.24834 28.912 9.27234 28.182C9.32834 26.51 9.51234 24.302 10.0263 22.106C10.5403 19.898 11.3663 17.788 12.6503 16.246C13.9043 14.744 15.6063 13.756 18.0183 13.756C18.2836 13.756 18.5379 13.6506 18.7254 13.4631C18.913 13.2756 19.0183 13.0212 19.0183 12.756V4.892C19.0183 3.304 20.2983 2.014 21.8803 2Z" fill="#0B0A0A"/>
</svg>
