<svg width="24" height="24" viewBox="0 0 24 24" fill="none" xmlns="http://www.w3.org/2000/svg">
<path d="M23.666 2.00065C23.666 1.55862 23.4904 1.1347 23.1779 0.82214C22.8653 0.509579 22.4414 0.333984 21.9993 0.333984H8.66601C8.22399 0.333984 7.80006 0.509579 7.4875 0.82214C7.17494 1.1347 6.99935 1.55862 6.99935 2.00065C6.99935 2.44268 7.17494 2.8666 7.4875 3.17916C7.80006 3.49172 8.22399 3.66732 8.66601 3.66732H17.976L1.39268 20.2507C1.08908 20.565 0.921093 20.986 0.924891 21.423C0.928688 21.86 1.10397 22.278 1.41298 22.587C1.722 22.896 2.14002 23.0713 2.57701 23.0751C3.01401 23.0789 3.43501 22.9109 3.74935 22.6073L20.3327 6.02398V15.334C20.3327 15.776 20.5083 16.1999 20.8208 16.5125C21.1334 16.8251 21.5573 17.0007 21.9993 17.0007C22.4414 17.0007 22.8653 16.8251 23.1779 16.5125C23.4904 16.1999 23.666 15.776 23.666 15.334V2.00065Z" fill="#8000FF"/>
</svg>
