<svg width="42" height="53" viewBox="0 0 42 53" fill="none" xmlns="http://www.w3.org/2000/svg">
<path d="M4.38078 10.4805L6.00078 17.3805L4.38078 24.2505L10.4108 27.9705L14.1008 34.0005L21.0008 32.3805L27.9008 34.0005L31.5908 27.9705L37.6208 24.2505L36.0008 17.3805L37.6208 10.4805L31.6208 6.76047L27.9008 0.730469L21.0008 2.38047L14.1308 0.760469L10.3808 6.76047L4.38078 10.4805ZM21.0308 29.5005C17.8482 29.5005 14.7959 28.2362 12.5455 25.9858C10.2951 23.7353 9.03078 20.6831 9.03078 17.5005C9.03078 14.3179 10.2951 11.2656 12.5455 9.01519C14.7959 6.76475 17.8482 5.50047 21.0308 5.50047C27.6308 5.50047 33.0008 10.8705 33.0008 17.4705C33.0008 24.1305 27.6308 29.5005 21.0308 29.5005ZM20.9708 26.5005C15.9908 26.5005 12.0008 22.4805 12.0008 17.5005C12.0008 12.5505 15.9908 8.50047 20.9708 8.50047C25.9508 8.50047 30.0008 12.5505 30.0008 17.5005C30.0008 22.4805 25.9508 26.5005 20.9708 26.5005ZM32.4908 29.8005L28.6508 36.5205L22.4108 35.1105L30.0008 52.6005L34.2008 46.0005H41.7008L32.4908 29.8005ZM9.39078 30.0105L13.1408 36.7605L19.5308 35.2305L12.0008 52.6005L7.80078 46.0005H0.300781L9.39078 30.0105Z" fill="#D11F2A"/>
</svg>
