<svg width="40" height="30" viewBox="0 0 40 30" fill="none" xmlns="http://www.w3.org/2000/svg">
<path d="M37.5 30C37.5 30 40 30 40 27.5C40 25 37.5 17.5 27.5 17.5C17.5 17.5 15 25 15 27.5C15 30 17.5 30 17.5 30H37.5ZM17.555 27.5L17.5 27.49C17.5025 26.83 17.9175 24.915 19.4 23.19C20.78 21.5725 23.205 20 27.5 20C31.7925 20 34.2175 21.575 35.6 23.19C37.0825 24.915 37.495 26.8325 37.5 27.49L37.48 27.495L37.445 27.5H17.555ZM27.5 12.5C28.8261 12.5 30.0979 11.9732 31.0355 11.0355C31.9732 10.0979 32.5 8.82608 32.5 7.5C32.5 6.17392 31.9732 4.90215 31.0355 3.96447C30.0979 3.02678 28.8261 2.5 27.5 2.5C26.1739 2.5 24.9021 3.02678 23.9645 3.96447C23.0268 4.90215 22.5 6.17392 22.5 7.5C22.5 8.82608 23.0268 10.0979 23.9645 11.0355C24.9021 11.9732 26.1739 12.5 27.5 12.5ZM35 7.5C35 8.48491 34.806 9.46018 34.4291 10.3701C34.0522 11.2801 33.4997 12.1069 32.8033 12.8033C32.1069 13.4997 31.2801 14.0522 30.3701 14.4291C29.4602 14.806 28.4849 15 27.5 15C26.5151 15 25.5398 14.806 24.6299 14.4291C23.7199 14.0522 22.8931 13.4997 22.1967 12.8033C21.5003 12.1069 20.9478 11.2801 20.5709 10.3701C20.194 9.46018 20 8.48491 20 7.5C20 5.51088 20.7902 3.60322 22.1967 2.1967C23.6032 0.790177 25.5109 0 27.5 0C29.4891 0 31.3968 0.790177 32.8033 2.1967C34.2098 3.60322 35 5.51088 35 7.5ZM17.34 18.2C16.3394 17.8873 15.3088 17.6803 14.265 17.5825C13.6784 17.5253 13.0893 17.4978 12.5 17.5C2.5 17.5 0 25 0 27.5C0 29.1667 0.833333 30 2.5 30H13.04C12.6696 29.2195 12.4847 28.3638 12.5 27.5C12.5 24.975 13.4425 22.395 15.225 20.24C15.8325 19.505 16.54 18.8175 17.34 18.2ZM12.3 20C10.8213 22.2236 10.0221 24.8297 10 27.5H2.5C2.5 26.85 2.91 24.925 4.4 23.19C5.7625 21.6 8.13 20.05 12.3 20.0025V20ZM3.75 8.75C3.75 6.76088 4.54018 4.85322 5.9467 3.4467C7.35322 2.04018 9.26088 1.25 11.25 1.25C13.2391 1.25 15.1468 2.04018 16.5533 3.4467C17.9598 4.85322 18.75 6.76088 18.75 8.75C18.75 10.7391 17.9598 12.6468 16.5533 14.0533C15.1468 15.4598 13.2391 16.25 11.25 16.25C9.26088 16.25 7.35322 15.4598 5.9467 14.0533C4.54018 12.6468 3.75 10.7391 3.75 8.75ZM11.25 3.75C9.92392 3.75 8.65215 4.27678 7.71447 5.21447C6.77678 6.15215 6.25 7.42392 6.25 8.75C6.25 10.0761 6.77678 11.3479 7.71447 12.2855C8.65215 13.2232 9.92392 13.75 11.25 13.75C12.5761 13.75 13.8479 13.2232 14.7855 12.2855C15.7232 11.3479 16.25 10.0761 16.25 8.75C16.25 7.42392 15.7232 6.15215 14.7855 5.21447C13.8479 4.27678 12.5761 3.75 11.25 3.75Z" fill="#0B0A0A"/>
</svg>
