<svg width="26" height="32" viewBox="0 0 26 32" fill="none" xmlns="http://www.w3.org/2000/svg">
<path d="M13.2873 31H8.00065C4.85732 31 3.28732 31 2.31065 30.0233C1.33398 29.0467 1.33398 27.4767 1.33398 24.3333V7.66667C1.33398 4.52333 1.33398 2.95333 2.31065 1.97667C3.28732 1 4.85732 1 8.00065 1H18.0007C21.144 1 22.714 1 23.6907 1.97667C24.6673 2.95333 24.6673 4.52333 24.6673 7.66667V19.62C24.6673 20.3 24.6673 20.6417 24.5407 20.9483C24.414 21.2533 24.174 21.495 23.6907 21.9767L15.644 30.0233C15.1607 30.5067 14.9207 30.7467 14.6157 30.8733C14.309 31 13.9673 31 13.2873 31Z" stroke="#070707" stroke-width="2"/>
<path d="M13 31.0007V23.2223C13 21.389 13 20.4723 13.57 19.904C14.1383 19.334 15.055 19.334 16.8883 19.334H24.6667" stroke="#070707" stroke-width="2"/>
</svg>
