<svg width="40" height="50" viewBox="0 0 40 50" fill="none" xmlns="http://www.w3.org/2000/svg">
<path d="M8.75 50C6.33333 50 4.27083 49.1458 2.5625 47.4375C0.854167 45.7292 0 43.6667 0 41.25V8.75C0 6.33333 0.854167 4.27083 2.5625 2.5625C4.27083 0.854167 6.33333 0 8.75 0H40V37.5C38.9583 37.5 38.0733 37.865 37.345 38.595C36.6167 39.325 36.2517 40.21 36.25 41.25C36.25 42.2917 36.615 43.1775 37.345 43.9075C38.075 44.6375 38.96 45.0017 40 45V50H8.75ZM10 32.5H15V5H10V32.5ZM8.75 45H32.0625C31.8125 44.4167 31.615 43.8233 31.47 43.22C31.325 42.6167 31.2517 41.96 31.25 41.25C31.25 40.5833 31.3125 39.9375 31.4375 39.3125C31.5625 38.6875 31.7708 38.0833 32.0625 37.5H8.75C7.66667 37.5 6.77083 37.865 6.0625 38.595C5.35417 39.325 5 40.21 5 41.25C5 42.3333 5.35417 43.2292 6.0625 43.9375C6.77083 44.6458 7.66667 45 8.75 45Z" fill="#D11F2A"/>
</svg>
