<svg width="54" height="54" viewBox="0 0 54 54" fill="none" xmlns="http://www.w3.org/2000/svg">
<path d="M30.3328 20H32.1141C34.4161 23.9896 38.7286 26.6667 43.6661 26.6667C44.812 26.6667 45.937 26.5208 46.9995 26.25V50C46.9995 51.8438 45.5099 53.3333 43.6661 53.3333C41.8224 53.3333 40.3328 51.8438 40.3328 50V35.3333L26.1661 46.6667H31.9995C33.8432 46.6667 35.3328 48.1562 35.3328 50C35.3328 51.8438 33.8432 53.3333 31.9995 53.3333H16.9995C11.4786 53.3333 6.99947 48.8542 6.99947 43.3333V20.0521C6.99947 18.375 5.74947 16.9479 4.0828 16.7396L3.25989 16.6354C1.43697 16.4062 0.134887 14.7396 0.364053 12.9167C0.59322 11.0938 2.25989 9.79167 4.0828 10.0208L4.90572 10.125C9.90572 10.75 13.6661 15 13.6661 20.0521V28.9375C17.2495 23.5521 23.3745 20 30.3328 20ZM46.9995 22.7604C45.9578 23.125 44.8328 23.3333 43.6661 23.3333C40.7078 23.3333 38.0411 22.0417 36.2078 20C35.8224 19.5729 35.4786 19.1146 35.1766 18.625C34.2182 17.0833 33.6661 15.2708 33.6661 13.3333V1.11458C33.6661 0.5 34.1557 0.0104167 34.7703 0H34.7911C35.1349 0 35.4578 0.166667 35.6661 0.4375V0.447917L36.9995 2.21875L39.8328 6L40.3328 6.66667H46.9995L47.4995 6L50.3328 2.21875L51.6661 0.447917V0.4375C51.8745 0.166667 52.1974 0 52.5411 0H52.562C53.1766 0.0104167 53.6661 0.5 53.6661 1.11458V13.3333C53.6661 15.1354 53.187 16.8333 52.3536 18.2917C51.1766 20.3542 49.2703 21.9583 46.9995 22.7604ZM41.9995 13.3333C41.9995 12.8913 41.8239 12.4674 41.5113 12.1548C41.1988 11.8423 40.7748 11.6667 40.3328 11.6667C39.8908 11.6667 39.4669 11.8423 39.1543 12.1548C38.8417 12.4674 38.6661 12.8913 38.6661 13.3333C38.6661 13.7754 38.8417 14.1993 39.1543 14.5118C39.4669 14.8244 39.8908 15 40.3328 15C40.7748 15 41.1988 14.8244 41.5113 14.5118C41.8239 14.1993 41.9995 13.7754 41.9995 13.3333ZM46.9995 15C47.4415 15 47.8654 14.8244 48.178 14.5118C48.4905 14.1993 48.6661 13.7754 48.6661 13.3333C48.6661 12.8913 48.4905 12.4674 48.178 12.1548C47.8654 11.8423 47.4415 11.6667 46.9995 11.6667C46.5574 11.6667 46.1335 11.8423 45.821 12.1548C45.5084 12.4674 45.3328 12.8913 45.3328 13.3333C45.3328 13.7754 45.5084 14.1993 45.821 14.5118C46.1335 14.8244 46.5574 15 46.9995 15Z" fill="#D11F2A"/>
</svg>
