<svg width="28" height="33" viewBox="0 0 28 33" fill="none" xmlns="http://www.w3.org/2000/svg">
<path d="M20.4615 1.07692L21.0582 0.180923L20.7868 0H20.4615V1.07692ZM26.9231 5.38461H28V4.80738L27.5197 4.48862L26.9231 5.38461ZM24.7692 25.8461H7.53846V28H24.7692V25.8461ZM6.46154 24.7692V3.23077H4.30769V24.7692H6.46154ZM7.53846 2.15385H20.4615V0H7.53846V2.15385ZM25.8462 5.38461V24.7692H28V5.38461H25.8462ZM19.8649 1.97292L26.3265 6.28061L27.5197 4.48862L21.0582 0.180923L19.8649 1.97292ZM7.53846 25.8461C7.25284 25.8461 6.97892 25.7327 6.77696 25.5307C6.575 25.3288 6.46154 25.0548 6.46154 24.7692H4.30769C4.30769 25.6261 4.64808 26.4478 5.25396 27.0537C5.85985 27.6596 6.68161 28 7.53846 28V25.8461ZM24.7692 28C25.6261 28 26.4478 27.6596 27.0537 27.0537C27.6596 26.4478 28 25.6261 28 24.7692H25.8462C25.8462 25.0548 25.7327 25.3288 25.5307 25.5307C25.3288 25.7327 25.0548 25.8461 24.7692 25.8461V28ZM6.46154 3.23077C6.46154 2.94515 6.575 2.67123 6.77696 2.46927C6.97892 2.26731 7.25284 2.15385 7.53846 2.15385V0C6.68161 0 5.85985 0.340384 5.25396 0.94627C4.64808 1.55216 4.30769 2.37392 4.30769 3.23077H6.46154ZM0 7.53846V29.0769H2.15385V7.53846H0ZM3.23077 32.3077H20.4615V30.1538H3.23077V32.3077ZM3.23077 6.46154H5.38462V4.30769H3.23077V6.46154ZM23.6923 29.0769V26.9231H21.5385V29.0769H23.6923ZM20.4615 32.3077C21.3184 32.3077 22.1402 31.9673 22.746 31.3614C23.3519 30.7555 23.6923 29.9338 23.6923 29.0769H21.5385C21.5385 29.3625 21.425 29.6365 21.223 29.8384C21.0211 30.0404 20.7472 30.1538 20.4615 30.1538V32.3077ZM0 29.0769C0 29.9338 0.340384 30.7555 0.946271 31.3614C1.55216 31.9673 2.37392 32.3077 3.23077 32.3077V30.1538C2.94515 30.1538 2.67123 30.0404 2.46927 29.8384C2.26731 29.6365 2.15385 29.3625 2.15385 29.0769H0ZM2.15385 7.53846C2.15385 7.25284 2.26731 6.97892 2.46927 6.77696C2.67123 6.575 2.94515 6.46154 3.23077 6.46154V4.30769C2.37392 4.30769 1.55216 4.64808 0.946271 5.25396C0.340384 5.85985 0 6.68161 0 7.53846H2.15385Z" fill="#0B0A0A"/>
</svg>
