<svg width="36" height="36" viewBox="0 0 36 36" fill="none" xmlns="http://www.w3.org/2000/svg">
<mask id="mask0_890_28371" style="mask-type:alpha" maskUnits="userSpaceOnUse" x="0" y="0" width="36" height="36">
<circle cx="18" cy="18" r="18" fill="#D9D9D9"/>
</mask>
<g mask="url(#mask0_890_28371)">
<path d="M33 -1.02505C20.0261 -3.95552 11.6134 0.238616 -1.69041 4.68914C-2.41435 4.53117 -3 4.93401 -3 5.637V30.4709C-3 31.1739 -2.41435 31.9085 -1.69041 32.0744C11.2835 35.0048 20.3616 40.1676 33.8182 34.9748C34.5421 35.1407 38.5489 31.1818 38.5489 30.4788V5.6449C38.5489 4.93401 33.7239 -0.859175 33 -1.02505Z" fill="#0B67B2"/>
<path d="M34.4776 8.04521C34.4776 7.48114 34.0082 6.89172 33.428 6.75863C33.3628 6.74595 33.2911 6.72693 33.2259 6.71426L21.6413 13.5718V-1.64453C19.0988 -1.34665 16.5563 -0.941031 14.0138 -0.643153V13.4957L4.11103 7.63325C3.48519 7.54452 2.85934 7.43044 2.22698 7.28467C1.64676 7.15791 1.17738 7.48114 1.17738 8.04521V9.36348L9.522 14.3007H-0.458984V21.7159H9.90663L1.17738 26.8813V27.9714C1.17738 28.5354 1.64676 29.1249 2.22698 29.258C2.42255 29.3023 2.61813 29.3403 2.80719 29.3784L14.0072 22.7427V36.0184C16.5497 35.7205 19.0922 36.9513 21.6347 36.6534V22.6603L31.2115 28.339C31.9482 28.434 32.6848 28.5608 33.4215 28.7319C34.0017 28.865 34.4711 28.5418 34.4711 27.9777V26.8115L25.8722 21.7223H37.5072V14.307H26.2569L34.4711 9.44587C34.4776 8.97053 34.4776 8.50787 34.4776 8.04521Z" fill="#FF473E"/>
<path d="M28.0949 22.3234L34.4773 26.0931V27.5731L25.5916 22.3234H22.2472L32.9583 28.6547C32.9583 29.1733 33.5163 29.6604 32.4342 29.5781L22.2276 23.7971V36.0271C21.8365 36.0714 21.4453 36.1157 21.0542 36.1663V21.1912H35.9953V22.3297H28.0949V22.3234ZM13.4267 35.5229C13.8178 35.4786 14.209 37.0707 14.6001 37.0201V21.1849H-2.0957V22.3234H7.68974L1.17702 26.169V27.649L10.1931 22.3234H13.4267V22.3866L1.93977 29.1733C2.03104 29.2176 2.12883 29.2556 2.22662 29.2809C2.74164 29.3947 3.25666 29.4959 3.77168 29.5781L13.4267 23.873V35.5229ZM-2.0957 13.7846V14.9231H14.6001V-0.84375C14.209 -0.79315 13.8178 -0.748875 13.4267 -0.7046V12.469L2.72789 6.33872C1.60659 6.24384 3.41312 7.62405 2.29181 7.37105L13.1463 13.7846H9.80197L1.17702 8.68665V10.1667L7.3051 13.7846H-2.0957ZM22.2276 -0.206737C21.8365 -0.162462 21.4453 -0.118187 21.0542 -0.067587V14.9231H35.9953V13.7846H28.4796L35.4552 9.61124L34.4773 8.76255L25.9762 13.7846H22.6318L33.9557 7.09275C33.7993 6.96625 33.6233 6.87138 33.4277 6.8271C33.043 6.73855 32.6649 6.66898 32.2803 6.5994L22.2276 12.5386V-0.206737Z" fill="#E8E8E8"/>
</g>
</svg>
