<svg width="20" height="20" viewBox="0 0 20 20" fill="none" xmlns="http://www.w3.org/2000/svg">
<mask id="mask0_201_2565" style="mask-type:alpha" maskUnits="userSpaceOnUse" x="0" y="0" width="20" height="20">
<circle cx="10" cy="10" r="10" fill="#D9D9D9"/>
</mask>
<g mask="url(#mask0_201_2565)">
<path d="M18.1816 -0.454455C10.9739 -2.08249 6.3002 0.247582 -1.09081 2.7201C-1.493 2.63233 -1.81836 2.85613 -1.81836 3.24669V17.0433C-1.81836 17.4339 -1.493 17.842 -1.09081 17.9341C6.1169 19.5621 11.1603 22.4304 18.6362 19.5455C19.0384 19.6376 21.2644 17.4382 21.2644 17.0477V3.25107C21.2644 2.85613 18.5838 -0.362302 18.1816 -0.454455Z" fill="#045C6F"/>
<path d="M19.003 4.58436C19.003 4.27099 18.7422 3.94353 18.4199 3.86959C18.3836 3.86255 18.3438 3.85199 18.3076 3.84494L11.8717 7.65469V-0.798828C10.4592 -0.63334 9.04666 -0.407995 7.63416 -0.242507V7.61244L2.13265 4.35549C1.78496 4.3062 1.43726 4.24282 1.08595 4.16184C0.76361 4.09142 0.502841 4.27099 0.502841 4.58436V5.31673L5.13874 8.05961H-0.40625V12.1792H5.35243L0.502841 15.0488V15.6545C0.502841 15.9678 0.76361 16.2953 1.08595 16.3692C1.1946 16.3939 1.30326 16.415 1.40829 16.4361L7.63054 12.7496V20.125C9.04304 19.9595 10.4555 20.6433 11.868 20.4778V12.7038L17.1885 15.8587C17.5977 15.9115 18.007 15.9819 18.4162 16.077C18.7386 16.1509 18.9994 15.9713 18.9994 15.658V15.0101L14.2222 12.1827H20.6861V8.06313H14.4359L18.9994 5.3625C19.003 5.09843 19.003 4.84139 19.003 4.58436Z" fill="#D11F2A"/>
<path d="M15.4562 12.5171L19.0019 14.6114V15.4336L14.0654 12.5171H12.2074L18.158 16.0345C18.158 16.3226 18.4681 16.5932 17.8668 16.5475L12.1966 13.3358V20.1303C11.9792 20.1549 11.7619 20.1795 11.5446 20.2076V11.8881H19.8453V12.5206H15.4562V12.5171ZM7.30713 19.8502C7.52444 19.8256 7.74175 20.7101 7.95905 20.682V11.8846H-1.31641V12.5171H4.11995L0.501776 14.6536V15.4758L5.51072 12.5171H7.30713V12.5522L0.925526 16.3226C0.976231 16.3472 1.03056 16.3683 1.08488 16.3824C1.37101 16.4456 1.65713 16.5019 1.94325 16.5475L7.30713 13.378V19.8502ZM-1.31641 7.77335V8.40585H7.95905V-0.353516C7.74175 -0.325404 7.52444 -0.300807 7.30713 -0.27621V7.04246L1.36337 3.63674C0.740421 3.58404 1.74405 4.35082 1.1211 4.21026L7.15139 7.77335H5.29341L0.501776 4.94115V5.7634L3.90626 7.77335H-1.31641ZM12.1966 0.000380278C11.9792 0.0249775 11.7619 0.0495749 11.5446 0.0776861V8.40585H19.8453V7.77335H15.6699L19.5452 5.45481L19.0019 4.98332L14.2791 7.77335H12.4211L18.7122 4.05565C18.6252 3.98537 18.5275 3.93267 18.4188 3.90807C18.2051 3.85887 17.9951 3.82022 17.7814 3.78157L12.1966 7.08111V0.000380278Z" fill="white"/>
</g>
</svg>
