<svg width="14" height="14" viewBox="0 0 14 14" fill="none" xmlns="http://www.w3.org/2000/svg">
<path fill-rule="evenodd" clip-rule="evenodd" d="M5.04116 0.276496C3.68247 0.670102 2.47455 1.46267 1.5752 2.55067C0.675845 3.63866 0.126876 4.9715 0 6.37508H3.21285C3.39911 4.23928 4.02089 2.16377 5.04016 0.275496L5.04116 0.276496ZM3.21285 7.625H0C0.126611 9.02863 0.675344 10.3616 1.57452 11.4498C2.47369 12.538 3.6815 13.3307 5.04016 13.7246C4.02089 11.8363 3.39911 9.7608 3.21285 7.625ZM6.6506 13.9916C5.43253 12.0692 4.68614 9.88812 4.47189 7.625H9.52711C9.31285 9.88812 8.56647 12.0692 7.34839 13.9916C7.11593 14.0028 6.88306 14.0028 6.6506 13.9916ZM8.95984 13.7236C10.3184 13.3298 11.5261 12.5372 12.4252 11.4492C13.3244 10.3612 13.8732 9.02845 14 7.625H10.7871C10.6009 9.7608 9.97911 11.8363 8.95984 13.7246V13.7236ZM10.7871 6.37508H14C13.8734 4.97145 13.3247 3.63848 12.4255 2.5503C11.5263 1.46213 10.3185 0.669335 8.95984 0.275496C9.97914 2.16376 10.6009 4.23927 10.7871 6.37508ZM6.6506 0.00851379C6.88339 -0.00283793 7.11661 -0.00283793 7.3494 0.00851379C8.56712 1.93099 9.31316 4.11205 9.52711 6.37508H4.47289C4.69076 4.09824 5.43876 1.91538 6.6506 0.00851379Z" fill="white"/>
</svg>
