<svg width="38" height="90" viewBox="0 0 38 90" fill="none" xmlns="http://www.w3.org/2000/svg">
<path id="Vector 21" d="M11.5 58.5C11.5 59.3284 12.1716 60 13 60C13.8284 60 14.5 59.3284 14.5 58.5H11.5ZM34.5 25.5V27H37.5V25.5H34.5ZM14.5 58.5V21.75H11.5V58.5H14.5ZM23 21.75V77H26V21.75H23ZM3 77V18.75H0V77H3ZM34.5 18.75V25.5H37.5V18.75H34.5ZM18.75 3C27.4485 3 34.5 10.0515 34.5 18.75H37.5C37.5 8.39466 29.1053 0 18.75 0V3ZM3 18.75C3 10.0515 10.0515 3 18.75 3V0C8.39466 0 0 8.39466 0 18.75H3ZM13 87C7.47715 87 3 82.5229 3 77H0C0 84.1797 5.8203 90 13 90V87ZM23 77C23 82.5228 18.5228 87 13 87V90C20.1797 90 26 84.1797 26 77H23ZM18.75 17.5C21.0972 17.5 23 19.4028 23 21.75H26C26 17.7459 22.7541 14.5 18.75 14.5V17.5ZM14.5 21.75C14.5 19.4028 16.4028 17.5 18.75 17.5V14.5C14.7459 14.5 11.5 17.7459 11.5 21.75H14.5Z" fill="#045C6F"/>
</svg>
