<svg width="24" height="32" viewBox="0 0 24 32" fill="none" xmlns="http://www.w3.org/2000/svg">
<path fill-rule="evenodd" clip-rule="evenodd" d="M12.0005 0.689453C10.2611 0.689453 8.59295 1.38042 7.36302 2.61034C6.1331 3.84027 5.44213 5.50841 5.44213 7.24778V8.02098H1.07912L0.0159799 24.0371C-0.0483692 24.9812 0.0820735 25.9285 0.399206 26.8201C0.716339 27.7117 1.21339 28.5285 1.85949 29.22C2.50559 29.9114 3.28694 30.4626 4.15502 30.8393C5.0231 31.2161 5.95937 31.4103 6.90568 31.41H17.0953C18.0403 31.4102 18.9754 31.2163 19.8424 30.8404C20.7095 30.4645 21.4902 29.9146 22.1361 29.2247C22.782 28.5348 23.2794 27.7196 23.5974 26.8296C23.9154 25.9397 24.0473 24.9939 23.9849 24.0509L22.9218 8.03478H18.5588V7.24778C18.5588 6.38653 18.3892 5.53371 18.0596 4.73802C17.73 3.94233 17.2469 3.21934 16.6379 2.61034C16.0289 2.00135 15.3059 1.51826 14.5102 1.18868C13.7145 0.859089 12.8617 0.689453 12.0005 0.689453ZM17.1781 7.24778V8.02098H6.82284V7.24778C6.82284 5.87459 7.36833 4.55764 8.33933 3.58665C9.31032 2.61565 10.6273 2.07015 12.0005 2.07015C13.3737 2.07015 14.6906 2.61565 15.6616 3.58665C16.6326 4.55764 17.1781 5.87459 17.1781 7.24778ZM17.1781 9.40168H6.82284V10.1749C6.82284 11.5481 7.36833 12.865 8.33933 13.836C9.31032 14.807 10.6273 15.3525 12.0005 15.3525C13.3737 15.3525 14.6906 14.807 15.6616 13.836C16.6326 12.865 17.1781 11.5481 17.1781 10.1749V9.40168ZM5.44213 10.1749V9.40168H2.37698L1.38287 24.1338C1.33173 24.8898 1.43669 25.6482 1.69125 26.3619C1.9458 27.0756 2.34449 27.7293 2.86252 28.2823C3.38055 28.8353 4.00683 29.2757 4.7024 29.5763C5.39797 29.8769 6.14795 30.0311 6.90568 30.0293H17.0953C17.8518 30.0292 18.6003 29.8736 19.2942 29.5722C19.9882 29.2708 20.6128 28.83 21.1293 28.2772C21.6459 27.7244 22.0433 27.0714 22.297 26.3586C22.5507 25.6459 22.6553 24.8886 22.6042 24.1338L21.6239 9.40168H18.5588V10.1749C18.5588 11.9142 17.8678 13.5824 16.6379 14.8123C15.408 16.0422 13.7398 16.7332 12.0005 16.7332C10.2611 16.7332 8.59295 16.0422 7.36302 14.8123C6.1331 13.5824 5.44213 11.9142 5.44213 10.1749Z" fill="white"/>
</svg>
