<svg width="101" height="101" viewBox="0 0 101 101" fill="none" xmlns="http://www.w3.org/2000/svg">
<rect width="101" height="101" rx="20" fill="#045C6F"/>
<path fill-rule="evenodd" clip-rule="evenodd" d="M25.25 50.5C25.25 40.4136 25.25 35.3705 27.6535 31.738C28.7268 30.1159 30.1159 28.7268 31.738 27.6535C35.3705 25.25 40.4136 25.25 50.5 25.25C60.5864 25.25 65.6295 25.25 69.262 27.6535C70.8841 28.7268 72.2732 30.1159 73.3465 31.738C75.75 35.3704 75.75 40.4136 75.75 50.5V50.5V50.5C75.75 60.5864 75.75 65.6296 73.3465 69.262C72.2732 70.8841 70.8841 72.2732 69.262 73.3465C65.6296 75.75 60.5864 75.75 50.5 75.75H50.5H50.5C40.4136 75.75 35.3704 75.75 31.738 73.3465C30.1159 72.2732 28.7268 70.8841 27.6535 69.262C25.25 65.6295 25.25 60.5864 25.25 50.5ZM63.5718 50.5006C63.5718 57.7202 57.7192 63.5729 50.4996 63.5729C43.28 63.5729 37.4273 57.7202 37.4273 50.5006C37.4273 43.281 43.28 37.4284 50.4996 37.4284C57.7192 37.4284 63.5718 43.281 63.5718 50.5006ZM50.4996 59.1502C55.2766 59.1502 59.1491 55.2776 59.1491 50.5006C59.1491 45.7236 55.2766 41.8511 50.4996 41.8511C45.7225 41.8511 41.85 45.7236 41.85 50.5006C41.85 55.2776 45.7225 59.1502 50.4996 59.1502ZM64.0881 39.8432C65.7845 39.8432 67.1597 38.468 67.1597 36.7716C67.1597 35.0753 65.7845 33.7001 64.0881 33.7001C62.3917 33.7001 61.0165 35.0753 61.0165 36.7716C61.0165 38.468 62.3917 39.8432 64.0881 39.8432Z" fill="white"/>
</svg>
