<svg width="41" height="37" viewBox="0 0 41 37" fill="none" xmlns="http://www.w3.org/2000/svg">
<path d="M12.4633 3.0625C12.4633 3.0625 11.4294 7.10489 6.53253 7.00857C4.08408 6.91226 2.90882 7.87543 2.41913 8.93492C1.73356 10.0907 1.92944 11.5355 2.71295 12.595C3.39851 13.6545 4.86759 14.714 7.51192 14.8103C7.70779 14.8103 9.56862 14.8103 9.76449 14.8103" stroke="#045C6F" stroke-width="3.8" stroke-miterlimit="10" stroke-linecap="round" stroke-linejoin="round"/>
<path d="M9.27539 34.8446V16.9296C9.37333 13.8475 12.1156 11.0543 15.1517 10.0911C18.1878 9.12793 20.4362 9.969 20.4362 9.969" stroke="#045C6F" stroke-width="3.8" stroke-miterlimit="10" stroke-linecap="round" stroke-linejoin="round"/>
<path d="M25.6791 35C25.6791 35 25.7654 29.6024 25.8516 24.494C25.8516 21.506 24.1274 19.0964 21.1964 19H20.5067C17.5757 19.0964 15.8516 21.4096 15.8516 24.494C15.8516 29.6024 16.024 35 16.024 35" stroke="#045C6F" stroke-width="3.8" stroke-miterlimit="10" stroke-linecap="round" stroke-linejoin="round"/>
<path d="M32.4866 22.6484C32.4866 27.079 32.3887 30.4133 32.3887 34.8439" stroke="#045C6F" stroke-width="3.8" stroke-miterlimit="10" stroke-linecap="round" stroke-linejoin="round"/>
<path d="M32.6163 5.16531C32.6163 5.16531 34.0779 5.16531 35.0522 5.56567C35.5394 5.76585 35.8317 5.2654 36.124 4.86504L38.6573 2.16259C38.7548 2.0625 38.8522 2.16259 38.8522 2.26268V10.9706C38.8522 11.6712 37.2932 15.875 32.6163 15.875H32.4214C27.7445 15.875 26.1855 11.6712 26.1855 10.9706V2.16259C26.1855 2.0625 26.283 2.0625 26.3804 2.0625L28.9138 4.76495C29.3035 5.16531 29.4984 5.66576 29.9855 5.56567C30.9599 5.16531 32.4214 5.16531 32.4214 5.16531H32.6163Z" stroke="#045C6F" stroke-width="3.6" stroke-miterlimit="10" stroke-linecap="round" stroke-linejoin="round"/>
</svg>
