<svg width="56" height="56" viewBox="0 0 56 56" fill="none" xmlns="http://www.w3.org/2000/svg">
<ellipse cx="27.7987" cy="28.4733" rx="27.7831" ry="27.4909" fill="white"/>
<path d="M32.2397 2.44293C32.1394 2.77179 32.215 3.12916 32.44 3.38916C32.665 3.64917 33.0078 3.77535 33.3477 3.72327L35.8086 3.34616C35.8015 3.92574 35.7394 4.32237 35.658 4.60162C35.5457 4.9869 35.3876 5.18438 35.189 5.37384C35.1071 5.45195 35.0366 5.51246 34.9489 5.58783C34.8953 5.6338 34.8353 5.68531 34.7624 5.74971C34.5923 5.89989 34.3927 6.08708 34.2016 6.32778C33.7992 6.8345 33.5104 7.48062 33.3794 8.41338C33.2512 9.32584 33.2833 9.84981 33.3008 10.136C33.3051 10.2058 33.3085 10.2615 33.3085 10.3053C33.3085 10.3077 33.3085 10.3101 33.3086 10.3126C33.3089 10.4107 33.3094 10.5806 32.8366 11.5422C32.8325 11.5506 32.8285 11.559 32.8246 11.5675C32.3545 12.5954 32.1261 13.1314 32.0881 13.7494C32.0749 13.9633 32.0855 14.1951 32.0955 14.4131C32.0979 14.4657 32.1002 14.5174 32.1022 14.568C32.1096 14.7541 32.1158 14.9801 32.1132 15.2711C31.3344 15.6939 30.765 15.9041 30.3268 15.99C29.8388 16.0857 29.4896 16.0326 29.1447 15.899C28.7758 15.7561 28.4172 15.5275 27.8815 15.1861C27.8387 15.1588 27.7947 15.1308 27.7496 15.1021C27.1662 14.7309 26.4521 14.2901 25.5169 13.8961C25.2619 13.7887 24.9738 13.7917 24.7211 13.9045C24.4685 14.0172 24.2738 14.2296 24.1834 14.4911C23.8521 15.4502 23.7153 16.2055 23.91 16.8979C24.0069 17.2423 24.1685 17.5083 24.3146 17.7176C24.3793 17.8103 24.449 17.9028 24.5093 17.983L24.5252 18.004C24.5927 18.0937 24.6548 18.1769 24.7174 18.2668C25.1447 18.8805 25.8627 20.1597 25.7912 24.5472C25.7869 24.811 25.887 25.0658 26.0697 25.2561C29.7752 29.1153 30.304 35.4111 27.8851 40.8077C27.2709 42.1441 26.0103 43.791 24.4588 45.214C22.8989 46.6447 21.1641 47.7396 19.6603 48.1057C19.3701 48.1764 19.1266 48.3732 18.9966 48.6421C18.8666 48.9111 18.8636 49.2241 18.9885 49.4955C19.272 50.1113 19.8781 50.5151 20.4189 50.7861C21.0039 51.0793 21.732 51.3232 22.5286 51.5216C24.1275 51.9196 26.1392 52.1674 28.1578 52.209C30.172 52.2506 32.2543 52.0882 33.98 51.6313C35.6368 51.1927 37.2744 50.4 37.924 48.936L37.9241 48.936L37.9289 48.9247C39.275 45.7877 38.3001 41.9647 36.9594 39.5001L36.9571 39.4959C36.665 38.9649 36.4089 38.5183 36.1877 38.1353C36.1462 38.0635 36.1063 37.9944 36.0677 37.9277C35.8981 37.6345 35.7552 37.3876 35.631 37.1634C35.327 36.6145 35.1857 36.2891 35.1138 35.9641C35.0418 35.6391 35.0242 35.2443 35.0834 34.5454C35.1356 33.9297 35.2404 33.1443 35.3889 32.0316C35.4112 31.8644 35.4345 31.6899 35.4587 31.5074C35.5266 30.9969 35.1955 30.5183 34.6939 30.4017C33.7675 30.1863 33.6975 30.1358 33.6552 30.1047C33.6203 30.079 33.578 30.039 33.408 29.8583L33.4046 29.8546C33.3185 29.7632 33.2144 29.6526 33.0836 29.5205C33.1692 29.0668 33.297 28.7631 33.4307 28.5312C33.5842 28.265 33.7499 28.0745 33.9812 27.8084C34.0435 27.7367 34.1107 27.6595 34.1837 27.5738C34.5145 27.1852 34.883 26.7038 35.1527 25.983C35.3176 25.5422 35.437 25.0358 35.5037 24.4332C35.5639 24.4443 35.6205 24.4544 35.6736 24.4634C35.9506 24.5102 36.27 24.5551 36.5676 24.506C36.9943 24.4356 37.2413 24.2054 37.3797 24.0571C37.4069 24.0279 37.4279 24.0049 37.4454 23.9856C37.4962 23.9297 37.5178 23.9059 37.5772 23.8595C37.613 23.8314 37.6468 23.8011 37.6784 23.7685C38.0322 24.1166 38.2243 24.4736 38.5613 25.0997C38.7214 25.3972 38.9142 25.7554 39.1725 26.2023C39.7271 27.1901 39.7885 27.5624 39.7757 27.8723C39.7676 28.0667 39.7266 28.286 39.6435 28.6548C39.6315 28.7077 39.6189 28.7631 39.6057 28.8209C39.5307 29.1496 39.4374 29.5585 39.3497 30.0598C39.2892 30.4062 39.415 30.7589 39.6811 30.9888C41.9072 32.9119 42.3223 33.6404 42.5111 33.9895C42.5238 34.013 42.5372 34.0387 42.5517 34.0664C42.6551 34.2642 42.811 34.5625 43.1153 34.8485C43.4278 35.1422 43.8696 35.4074 44.5197 35.7443C44.5965 35.7841 44.6782 35.8137 44.7626 35.8325C46.1393 36.1388 47.0158 36.7202 47.5934 37.3957C48.1807 38.0826 48.5168 38.935 48.6907 39.8637C48.7662 40.2667 49.0801 40.5828 49.4826 40.6612C49.5826 40.6806 49.683 40.6844 49.7808 40.6739C48.7585 42.4259 47.2906 44.2435 45.4075 46.0728L45.4046 46.0756C42.8657 48.562 40.9289 49.7826 37.5783 51.0784L37.573 51.0804C26.9569 55.2549 16.9417 52.2311 10.6477 46.4513C10.6204 46.4262 10.5918 46.4027 10.5619 46.3808C4.90884 42.2444 2.20858 34.5508 3.21375 26.5655C4.21499 18.6114 8.89075 10.4856 17.8337 5.6014C17.8511 5.59192 17.8681 5.58193 17.8849 5.57144C19.7783 4.38652 22.7395 2.82391 24.7182 2.36659L24.7215 2.36581C25.3139 2.22679 27.2791 1.88439 29.2573 1.57201C30.2372 1.41727 31.2043 1.2724 31.9846 1.1665C32.2371 1.13222 32.4621 1.1032 32.6572 1.07948C32.6705 1.21159 32.6631 1.24788 32.6583 1.27024C32.6495 1.3118 32.6336 1.35578 32.5468 1.57394C32.4672 1.7737 32.3612 2.04482 32.2397 2.44293ZM43.9569 26.3498C43.9572 26.3498 43.9599 26.3524 43.9643 26.3576C43.9589 26.3523 43.9567 26.3497 43.9569 26.3498Z" fill="#181A2A" stroke="#181A2A" stroke-width="2" stroke-linejoin="round"/>
</svg>
