<svg width="142.384766" height="55.964844" viewBox="0 0 142.385 55.9648" fill="none" xmlns="http://www.w3.org/2000/svg" xmlns:xlink="http://www.w3.org/1999/xlink">
    <desc>
        Created with Pixso.
    </desc>
    <defs/>
    <rect id="img" width="50.459023" height="54.000000" transform="translate(1.984375 0.000000)" fill="#FFFFFF" fill-opacity="0"/>
    <ellipse id="Ellipse 143" cx="27.783203" cy="28.472656" rx="27.783106" ry="27.490913" fill="#FFFFFF" fill-opacity="1.000000"/>
    <path id="Vector" d="M33.17 2.73C33.62 1.29 33.81 1.74 33.47 0C32.49 0 25.74 1.09 24.47 1.39C22.32 1.88 19.24 3.53 17.33 4.72C-1.15 14.81 -2.08 38.38 9.95 47.18C16.5 53.2 26.92 56.33 37.92 52.01C41.39 50.66 43.44 49.37 46.08 46.79C52.64 40.42 54.69 33.81 49.7 29.03C48.43 27.79 43.74 24.46 43.05 26.7C43.05 27.84 48.58 28.54 50.24 32.86C50.88 34.55 51.02 37.54 49.65 39.67C49.26 37.59 48.09 35.55 44.96 34.85C42.37 33.51 44.86 34.16 40.31 30.23C40.71 27.99 41.19 27.79 40.02 25.7C39.04 24.01 38.94 23.37 37.58 22.42C37.28 22.57 37.09 22.87 36.94 23.07C36.31 23.56 36.89 23.71 34.54 23.22C34.54 27.59 32.34 26.5 32 29.88C33.22 31.02 32.74 30.97 34.45 31.37C33.71 36.89 33.76 35.8 36.06 39.97C37.33 42.31 38.16 45.79 36.99 48.53C35.18 52.6 20.95 51.41 19.88 49.07C23.35 48.23 27.41 44.2 28.77 41.22C31.32 35.55 30.83 28.79 26.77 24.56C26.92 15.56 23.84 18.49 25.11 14.81C28.53 16.25 28.77 18.39 33.08 15.86C33.17 13.42 32.74 14.12 33.71 11.98C34.69 9.99 34.06 10.64 34.35 8.55C34.79 5.41 37.14 7.25 36.75 2.18L33.17 2.73Z" fill="#070707" fill-opacity="1.000000" fill-rule="evenodd"/>
    <path id="Vector" d="M33.59 0.64C33.56 0.47 33.52 0.25 33.47 0C32.49 0 25.74 1.09 24.47 1.39C22.32 1.88 19.24 3.53 17.33 4.72C-1.15 14.81 -2.08 38.38 9.95 47.18C16.5 53.2 26.92 56.33 37.92 52.01C41.39 50.66 43.44 49.37 46.08 46.79C47.88 45.04 49.34 43.27 50.41 41.53C50.87 40.79 51.25 40.05 51.56 39.32C51.57 39.28 51.59 39.25 51.6 39.22C53.16 35.46 52.71 31.91 49.7 29.03C48.88 28.23 46.64 26.56 44.97 26.08C44.04 25.81 43.3 25.9 43.05 26.7C43.05 27.08 43.67 27.41 44.56 27.85C46.32 28.72 49.13 29.99 50.24 32.86C50.6 33.81 50.8 35.17 50.66 36.56C50.56 37.64 50.25 38.74 49.65 39.67C49.61 39.46 49.56 39.25 49.5 39.03C49.32 38.36 49.04 37.71 48.63 37.13C47.9 36.09 46.75 35.25 44.96 34.85C42.37 33.51 44.86 34.16 40.31 30.23C40.4 29.75 40.49 29.37 40.56 29.04C40.84 27.82 40.95 27.35 40.02 25.7C39.04 24.01 38.94 23.37 37.58 22.42C37.28 22.57 37.09 22.87 36.94 23.07C36.81 23.17 36.73 23.26 36.67 23.33C36.62 23.38 36.58 23.42 36.54 23.45C36.35 23.59 36.07 23.54 34.54 23.22C34.54 24.06 34.46 24.7 34.33 25.21C33.76 27.34 32.28 27.15 32 29.88C33.22 31.02 32.74 30.97 34.45 31.37C34.42 31.55 34.4 31.73 34.38 31.89C34.04 34.39 33.91 35.39 34.15 36.3C34.38 37.19 34.96 37.98 36.06 39.97C37.33 42.31 38.16 45.79 36.99 48.53C35.57 51.72 26.52 51.68 22.16 50.39C20.96 50.03 20.11 49.58 19.88 49.07C20.57 48.9 21.29 48.61 22 48.22C24.86 46.66 27.68 43.6 28.77 41.22C31.32 35.55 30.83 28.79 26.77 24.56C26.85 19.46 25.9 18.19 25.29 17.38C25.18 17.24 25.09 17.11 25.01 16.98C24.75 16.54 24.68 16.05 25.11 14.81C25.83 15.11 26.4 15.45 26.91 15.76C27.06 15.86 27.21 15.95 27.35 16.04C28.97 17.07 29.95 17.7 33.08 15.86C33.11 15.11 33.09 14.66 33.07 14.33C33.04 13.58 33.03 13.46 33.71 11.98C34.32 10.75 34.31 10.53 34.28 10.04C34.26 9.74 34.24 9.34 34.35 8.55C34.53 7.24 35.05 6.8 35.56 6.36C36.06 5.92 36.57 5.49 36.73 4.21C36.8 3.69 36.81 3.03 36.75 2.18L35.42 2.39L34.76 2.49L33.17 2.73C33.27 2.41 33.36 2.17 33.43 2C33.45 1.96 33.46 1.93 33.47 1.91L33.47 1.91C33.64 1.48 33.7 1.33 33.59 0.64ZM31.26 2.14Q28.74 2.44 24.93 3.33Q22.37 3.92 18.4 6.41Q18.37 6.43 18.34 6.45Q18.32 6.46 18.29 6.47Q11.42 10.23 7.84 16.01Q4.94 20.68 4.18 26.68Q3.11 35.22 6.66 40.84Q8.36 43.54 11.13 45.57Q11.18 45.6 11.22 45.64Q11.26 45.67 11.3 45.71Q13.54 47.76 16.13 49.16Q17.13 49.69 18.17 50.13Q18.11 50.02 18.06 49.91Q17.71 49.16 18 48.38Q18.29 47.6 19.04 47.25Q19.13 47.22 19.22 47.18Q19.31 47.15 19.4 47.13Q21.39 46.65 23.76 44.47Q26.04 42.38 26.96 40.38Q28.15 37.72 28.32 34.99Q28.39 33.78 28.26 32.56Q27.94 29.55 26.45 27.33Q25.95 26.59 25.33 25.94Q25.05 25.66 24.91 25.29Q24.76 24.92 24.77 24.53Q24.84 20.11 23.69 18.58Q23.29 18.04 23.08 17.44Q22.58 15.99 23.22 14.16Q23.49 13.38 24.23 13.01Q24.98 12.65 25.76 12.92Q25.79 12.93 25.82 12.94Q25.85 12.96 25.88 12.97Q26.98 13.43 28.42 14.35Q29.45 15.01 29.78 15.03Q30.23 15.06 31.08 14.66Q31.08 14.54 31.08 14.42Q31.01 13.07 31.9 11.15Q31.9 11.13 31.91 11.12Q31.91 11.11 31.92 11.1Q32.29 10.34 32.28 10.16Q32.23 9.26 32.37 8.27Q32.5 7.31 32.92 6.5Q33.4 5.58 34.25 4.85Q34.39 4.73 34.49 4.55L33.48 4.71Q32.66 4.83 31.99 4.34Q31.33 3.85 31.2 3.03Q31.16 2.81 31.18 2.58Q31.2 2.36 31.26 2.15L31.26 2.14ZM38.75 49.47Q40.92 48.45 42.77 47.02Q43.77 46.25 44.68 45.36Q46.92 43.18 48.3 41.14Q48.13 40.99 48 40.79Q47.76 40.45 47.69 40.04Q47.45 38.75 46.69 37.95Q45.89 37.11 44.52 36.8Q44.4 36.78 44.28 36.73Q44.16 36.69 44.04 36.63Q42.28 35.71 41.66 34.54Q41.15 33.59 39.01 31.74Q38.61 31.4 38.43 30.9Q38.25 30.4 38.34 29.88Q38.44 29.36 38.61 28.6Q38.66 28.38 38.67 28.16Q38.7 27.43 38.28 26.68Q38.05 26.3 37.71 25.65Q37.57 25.39 37.42 25.16Q36.95 25.36 36.3 25.39Q36.03 26.48 35.49 27.4Q35.16 27.95 34.74 28.43Q34.4 28.82 34.21 29.25Q34.39 29.31 34.9 29.42Q35.65 29.6 36.09 30.23Q36.53 30.87 36.43 31.63Q36.41 31.82 36.36 32.16Q35.98 35.04 36.04 35.6Q36.1 36.01 36.91 37.42Q37.46 38.37 37.81 39.01Q40.14 43.29 39.5 47.07Q39.3 48.21 38.83 49.31Q38.79 49.4 38.75 49.47Z" fill="#070707" fill-opacity="1.000000" fill-rule="evenodd"/>
    <path id="Селіна" d="M107.92 18.96Q107.39 18.65 106.69 18.65Q105.94 18.65 105.4 18.98Q105.33 19.02 105.26 19.08Q104.87 19.42 104.87 20.22Q104.87 20.97 105.25 21.33Q105.32 21.39 105.4 21.45Q105.94 21.77 106.69 21.77Q107.38 21.77 107.9 21.48Q107.92 21.46 107.95 21.45Q108.05 21.39 108.12 21.32Q108.49 20.96 108.49 20.22Q108.49 19.43 108.11 19.09Q108.04 19.02 107.95 18.98Q107.94 18.97 107.92 18.96ZM71.7 22.71Q72.35 22.33 73.21 22.33Q73.57 22.33 73.93 22.39Q74.4 22.45 74.85 22.61Q75.66 22.88 76.45 23.23L77.51 20.51Q77.16 20.34 76.79 20.2Q76.11 19.93 75.38 19.77Q74.27 19.52 73.23 19.52Q71.03 19.52 69.51 20.46Q68.88 20.85 68.38 21.36Q67.67 22.09 67.21 23.06Q66.43 24.71 66.43 26.88Q66.43 29.07 67.12 30.71Q67.55 31.72 68.25 32.46Q68.7 32.92 69.25 33.28Q70.69 34.2 72.97 34.2Q74.09 34.2 75.04 34.01Q75.99 33.83 76.95 33.43L76.95 30.55Q75.97 30.91 75.09 31.14Q74.58 31.28 74.06 31.33Q73.69 31.37 73.31 31.37Q72.03 31.37 71.24 30.75Q70.97 30.53 70.75 30.23Q69.93 29.07 69.93 26.9Q69.93 24.78 70.79 23.56Q71.18 23.01 71.7 22.71ZM132.75 23.79Q131.57 22.79 129.44 22.79Q128.11 22.79 126.97 23.06Q125.83 23.32 124.93 23.79L125.95 26.04Q126.76 25.69 127.53 25.46Q128.31 25.24 129.03 25.24Q129.74 25.24 130.15 25.58Q130.16 25.59 130.16 25.6Q130.17 25.61 130.19 25.62Q130.57 25.97 130.57 26.75L130.57 27.08L128.69 27.13Q126.32 27.24 125.09 28.09Q124.68 28.37 124.41 28.74Q123.85 29.51 123.85 30.67Q123.85 32.37 124.7 33.23Q124.76 33.29 124.81 33.34Q125.06 33.56 125.35 33.73Q126.16 34.2 127.23 34.2Q128.59 34.2 129.37 33.8Q130.15 33.41 130.85 32.52L130.93 32.52L131.59 34L133.93 34L133.93 26.71Q133.93 25.21 133.2 24.26Q133 24.01 132.75 23.79ZM87.7 23.79Q86.4 22.81 84.37 22.81Q82.77 22.81 81.58 23.44Q81.23 23.63 80.92 23.87Q80.2 24.45 79.73 25.36Q79.07 26.64 79.07 28.58Q79.07 30.49 79.8 31.74Q80.2 32.43 80.78 32.93Q81.24 33.33 81.82 33.59Q83.11 34.2 84.77 34.2Q86.11 34.2 87.02 34Q87.63 33.88 88.2 33.65Q88.48 33.53 88.75 33.39L88.75 30.89Q87.83 31.33 86.96 31.53Q86.09 31.73 85.05 31.73Q83.9 31.73 83.25 31.16Q83.21 31.13 83.17 31.09Q83.03 30.95 82.91 30.79Q82.51 30.22 82.48 29.38L89.41 29.38L89.41 27.81Q89.41 25.62 88.33 24.37Q88.2 24.22 88.05 24.09Q87.88 23.93 87.7 23.79ZM98.73 34L102.09 34L102.09 23.01L93.25 23.01Q93.08 25.71 92.87 27.39Q92.66 29.07 92.4 29.97Q92.15 30.86 91.86 31.17Q91.62 31.42 91.35 31.47Q91.29 31.48 91.23 31.48Q90.73 31.48 90.33 31.29L90.33 33.87Q91.01 34.2 92.04 34.2Q93.04 34.2 93.75 33.74Q94.01 33.57 94.23 33.34Q95.05 32.48 95.5 30.58Q95.95 28.67 96.21 25.53L98.73 25.53L98.73 34ZM108.35 34L108.35 23.01L104.99 23.01L104.99 34L108.35 34ZM114.63 27.12L114.63 23.01L111.25 23.01L111.25 34L114.63 34L114.63 29.62L118.28 29.62L118.28 34L121.63 34L121.63 23.01L118.28 23.01L118.28 27.12L114.63 27.12ZM83.5 25.38Q83.91 25.16 84.43 25.16Q85.16 25.16 85.6 25.51Q85.73 25.62 85.83 25.75Q85.91 25.85 85.97 25.95Q86.3 26.48 86.31 27.19L82.53 27.19Q82.63 26.13 83.14 25.65Q83.31 25.49 83.5 25.38ZM127.79 29.48Q128.29 29.07 129.55 29.03L130.57 29L130.57 29.87Q130.57 30.47 130.3 30.9Q130.18 31.1 129.99 31.27Q129.8 31.43 129.58 31.55Q129.13 31.77 128.57 31.77Q128.05 31.77 127.7 31.53Q127.68 31.51 127.65 31.5Q127.6 31.46 127.56 31.41Q127.29 31.13 127.29 30.6Q127.29 30.16 127.48 29.84Q127.6 29.64 127.79 29.48Z" fill="#070707" fill-opacity="1.000000" fill-rule="evenodd"/>
</svg>

