<svg width="18" height="17" viewBox="0 0 18 17" fill="none" xmlns="http://www.w3.org/2000/svg">
<path d="M11.7293 9.83439C10.7458 9.15573 9.83055 8.81641 8.98349 8.81641C8.3446 8.81641 7.65187 9.02174 6.90531 9.43242C6.15874 9.84309 5.48575 10.3512 4.88635 10.9568C4.28694 11.5623 3.78624 12.2323 3.38425 12.9666C2.98225 13.701 2.78125 14.3675 2.78125 14.9661C2.78125 15.9823 3.43808 16.4904 4.75175 16.4904C5.28296 16.4904 6.00261 16.3355 6.91069 16.0258C7.81877 15.7161 8.5097 15.5612 8.98349 15.5612C9.43573 15.5612 10.0908 15.7178 10.9486 16.031C11.8064 16.3442 12.4794 16.5009 12.9676 16.5009C13.2762 16.5009 13.549 16.4817 13.7859 16.4434C14.0228 16.4052 14.2543 16.3355 14.4804 16.2346C14.7066 16.1337 14.8806 15.9771 15.0027 15.7648C15.1247 15.5525 15.1857 15.2862 15.1857 14.9661C15.1857 14.1656 14.8555 13.2799 14.1951 12.3089C13.5347 11.3379 12.7127 10.513 11.7293 9.83439Z" fill="#045C6F"/>
<path d="M17.5472 6.17006C17.2457 5.7559 16.8186 5.54883 16.2659 5.54883C15.7203 5.54883 15.2124 5.74198 14.7422 6.12829C14.272 6.51461 13.9113 6.98096 13.6601 7.52737C13.4088 8.07377 13.2832 8.60451 13.2832 9.11959C13.2832 9.67644 13.434 10.1602 13.7354 10.5709C14.0369 10.9815 14.4641 11.1869 15.0168 11.1869C15.5624 11.1869 16.0703 10.9937 16.5405 10.6074C17.0106 10.2211 17.3714 9.75648 17.6226 9.21356C17.8739 8.67064 17.9995 8.14164 17.9995 7.62655C17.9995 7.06971 17.8487 6.58421 17.5472 6.17006Z" fill="#045C6F"/>
<path d="M10.4591 6.24246C10.775 6.51392 11.1519 6.64965 11.5897 6.64965C12.1353 6.64965 12.6306 6.44954 13.0757 6.0493C13.5208 5.64907 13.851 5.17749 14.0663 4.63457C14.2817 4.09165 14.3894 3.56613 14.3894 3.058C14.3894 2.64037 14.3212 2.24536 14.1848 1.87297C14.0484 1.50058 13.8223 1.17865 13.5064 0.907193C13.1906 0.635731 12.8137 0.5 12.3758 0.5C11.823 0.5 11.3259 0.700116 10.8845 1.10035C10.443 1.50058 10.1146 1.97042 9.89921 2.50986C9.68385 3.0493 9.57617 3.57657 9.57617 4.09165C9.57617 4.50928 9.64437 4.90429 9.78076 5.27668C9.91715 5.64907 10.1433 5.971 10.4591 6.24246Z" fill="#045C6F"/>
<path d="M8.00704 5.27668C8.14344 4.90429 8.21163 4.50928 8.21163 4.09165C8.21163 3.57657 8.10395 3.0493 7.8886 2.50986C7.67324 1.97042 7.34483 1.50058 6.90335 1.10035C6.46187 0.700116 5.96476 0.5 5.41201 0.5C4.97412 0.5 4.59725 0.635731 4.28139 0.907193C3.96554 1.17865 3.73942 1.50058 3.60303 1.87297C3.46663 2.24536 3.39844 2.64037 3.39844 3.058C3.39844 3.56613 3.50612 4.09165 3.72147 4.63457C3.93683 5.17749 4.26704 5.64907 4.71211 6.0493C5.15717 6.44954 5.65249 6.64965 6.19806 6.64965C6.63595 6.64965 7.01282 6.51392 7.32867 6.24246C7.64453 5.971 7.87065 5.64907 8.00704 5.27668Z" fill="#045C6F"/>
<path d="M4.71628 9.11959C4.71628 9.67644 4.56554 10.1602 4.26404 10.5709C3.96254 10.9815 3.53542 11.1869 2.98267 11.1869C2.43711 11.1869 1.92923 10.9937 1.45903 10.6074C0.98884 10.2211 0.62812 9.75648 0.376872 9.21356C0.125624 8.67064 0 8.14164 0 7.62655C0 7.06971 0.150749 6.58421 0.452246 6.17006C0.753744 5.7559 1.18087 5.54883 1.73361 5.54883C2.27918 5.54883 2.78706 5.74198 3.25725 6.12829C3.72744 6.51461 4.08816 6.98096 4.33941 7.52737C4.59066 8.07377 4.71628 8.60451 4.71628 9.11959Z" fill="#045C6F"/>
</svg>
