<svg width="16" height="15" viewBox="0 0 16 15" fill="none" xmlns="http://www.w3.org/2000/svg">
<path d="M10.4245 8.74928C9.55031 8.11304 8.73675 7.79492 7.9838 7.79492C7.4159 7.79492 6.80014 7.98742 6.13653 8.37243C5.47292 8.75744 4.87471 9.2338 4.3419 9.80152C3.8091 10.3692 3.36403 10.9973 3.0067 11.6858C2.64937 12.3742 2.4707 12.999 2.4707 13.5602C2.4707 14.5129 3.05456 14.9893 4.22226 14.9893C4.69445 14.9893 5.33413 14.8441 6.14132 14.5537C6.9485 14.2633 7.56266 14.1182 7.9838 14.1182C8.3858 14.1182 8.96806 14.265 9.73057 14.5586C10.4931 14.8523 11.0913 14.9991 11.5252 14.9991C11.7996 14.9991 12.0421 14.9812 12.2526 14.9453C12.4632 14.9094 12.669 14.8441 12.87 14.7495C13.071 14.6549 13.2257 14.5081 13.3342 14.309C13.4427 14.11 13.4969 13.8604 13.4969 13.5602C13.4969 12.8098 13.2034 11.9794 12.6163 11.0691C12.0293 10.1588 11.2987 9.38552 10.4245 8.74928Z" fill="white"/>
<path d="M15.5988 5.31482C15.3308 4.92656 14.9512 4.73242 14.4599 4.73242C13.9749 4.73242 13.5235 4.91351 13.1055 5.27567C12.6876 5.63784 12.3669 6.07505 12.1436 6.5873C11.9203 7.09955 11.8086 7.59713 11.8086 8.08001C11.8086 8.60206 11.9426 9.05558 12.2106 9.44059C12.4786 9.82559 12.8583 10.0181 13.3496 10.0181C13.8345 10.0181 14.286 9.83701 14.7039 9.47484C15.1219 9.11268 15.4425 8.6771 15.6658 8.16811C15.8892 7.65912 16.0008 7.16318 16.0008 6.68029C16.0008 6.15825 15.8668 5.70309 15.5988 5.31482Z" fill="white"/>
<path d="M9.29657 5.38356C9.57733 5.63805 9.91233 5.7653 10.3016 5.7653C10.7865 5.7653 11.2268 5.57769 11.6224 5.20247C12.018 4.82725 12.3115 4.38515 12.503 3.87616C12.6944 3.36717 12.7901 2.87449 12.7901 2.39813C12.7901 2.0066 12.7295 1.63627 12.6083 1.28716C12.487 0.938044 12.286 0.636238 12.0053 0.381743C11.7245 0.127248 11.3895 0 11.0003 0C10.5089 0 10.0671 0.187609 9.67464 0.562826C9.28221 0.938044 8.99029 1.37852 8.79886 1.88424C8.60743 2.38997 8.51172 2.88428 8.51172 3.36717C8.51172 3.7587 8.57234 4.12902 8.69357 4.47814C8.81481 4.82725 9.01581 5.12906 9.29657 5.38356Z" fill="white"/>
<path d="M7.11802 4.47814C7.23926 4.12902 7.29988 3.7587 7.29988 3.36717C7.29988 2.88428 7.20416 2.38997 7.01274 1.88424C6.82131 1.37852 6.52938 0.938044 6.13696 0.562826C5.74453 0.187609 5.30266 0 4.81133 0C4.42209 0 4.08709 0.127248 3.80634 0.381743C3.52558 0.636238 3.32458 0.938044 3.20334 1.28716C3.0821 1.63627 3.02148 2.0066 3.02148 2.39813C3.02148 2.87449 3.1172 3.36717 3.30862 3.87616C3.50005 4.38515 3.79357 4.82725 4.18919 5.20247C4.5848 5.57769 5.02509 5.7653 5.51004 5.7653C5.89927 5.7653 6.23427 5.63805 6.51503 5.38356C6.79579 5.12906 6.99679 4.82725 7.11802 4.47814Z" fill="white"/>
<path d="M4.19225 8.08001C4.19225 8.60206 4.05825 9.05558 3.79025 9.44059C3.52226 9.82559 3.14259 10.0181 2.65126 10.0181C2.16632 10.0181 1.71487 9.83701 1.29692 9.47484C0.878969 9.11268 0.558329 8.6771 0.334997 8.16811C0.111666 7.65912 0 7.16318 0 6.68029C0 6.15825 0.133999 5.70309 0.401997 5.31482C0.669994 4.92656 1.04966 4.73242 1.54099 4.73242C2.02594 4.73242 2.47738 4.91351 2.89533 5.27567C3.31328 5.63784 3.63392 6.07505 3.85725 6.5873C4.08059 7.09955 4.19225 7.59713 4.19225 8.08001Z" fill="white"/>
</svg>
