<svg width="43" height="28" viewBox="0 0 43 28" fill="none" xmlns="http://www.w3.org/2000/svg">
<path d="M30.7915 4.50014C27.6226 2.20968 24.6734 1.06445 21.944 1.06445C19.8853 1.06445 17.6532 1.75746 15.2476 3.14348C12.842 4.52951 10.6735 6.24441 8.74208 8.28821C6.81066 10.332 5.19729 12.5931 3.90197 15.0715C2.60665 17.5499 1.95898 19.7992 1.95898 21.8195C1.95898 25.2493 4.07545 26.9643 8.30838 26.9643C10.0201 26.9643 12.3389 26.4416 15.265 25.3962C18.191 24.3508 20.4173 23.8281 21.944 23.8281C23.4012 23.8281 25.5119 24.3567 28.276 25.4138C31.0401 26.4709 33.2087 26.9995 34.7815 26.9995C35.7762 26.9995 36.6551 26.9349 37.4185 26.8057C38.1818 26.6765 38.9277 26.4416 39.6564 26.1009C40.385 25.7603 40.9459 25.2317 41.3391 24.5152C41.7323 23.7987 41.9289 22.9002 41.9289 21.8195C41.9289 19.118 40.8649 16.1286 38.7369 12.8515C36.6089 9.57439 33.9604 6.7906 30.7915 4.50014Z" fill="#D11F2A" stroke="#D11F2A" stroke-width="2"/>
</svg>
