<svg width="18" height="22" viewBox="0 0 18 22" fill="none" xmlns="http://www.w3.org/2000/svg">
<path d="M16.1969 13.0904C16.1969 14.9697 15.7112 16.6024 14.7397 17.9885C13.7682 19.3745 12.3919 20.0675 10.6108 20.0675C8.85289 20.0675 7.21639 19.4156 5.70133 18.1118C4.18626 16.808 3.02394 15.2399 2.21437 13.4075C1.40479 11.5752 1 9.78979 1 8.05139C1 6.17204 1.48575 4.53348 2.45724 3.13571C3.42873 1.73795 4.80501 1.03906 6.58608 1.03906C8.34402 1.03906 9.98052 1.69096 11.4956 2.99476C13.0107 4.29856 14.173 5.87252 14.9825 7.71663C15.7921 9.56074 16.1969 11.352 16.1969 13.0904Z" fill="#D11F2A" stroke="#D11F2A" stroke-width="2"/>
</svg>
