<svg width="19" height="23" viewBox="0 0 19 23" fill="none" xmlns="http://www.w3.org/2000/svg">
<path d="M16.7992 17.1213C17.2387 15.8645 17.4584 14.5313 17.4584 13.1218C17.4584 11.3834 17.1114 9.6039 16.4175 7.78328C15.7236 5.96266 14.6654 4.37696 13.2428 3.02617C11.8203 1.67539 10.2185 1 8.4374 1C7.02642 1 5.81206 1.45809 4.7943 2.37427C3.77655 3.29046 3.04793 4.37696 2.60845 5.63377C2.16896 6.89059 1.94922 8.22375 1.94922 9.63327C1.94922 11.3482 2.29618 13.1218 2.9901 14.9542C3.68403 16.7865 4.74804 18.3781 6.18215 19.7289C7.61626 21.0797 9.21228 21.7551 10.9702 21.7551C12.3812 21.7551 13.5956 21.297 14.6133 20.3808C15.6311 19.4646 16.3597 18.3781 16.7992 17.1213Z" fill="white" stroke="#D11F2A" stroke-width="2"/>
</svg>
