<svg width="19" height="23" viewBox="0 0 19 23" fill="none" xmlns="http://www.w3.org/2000/svg">
<path d="M4.70251 20.3808C5.72026 21.297 6.93463 21.7551 8.3456 21.7551C10.1035 21.7551 11.6996 21.0797 13.1337 19.7289C14.5678 18.3781 15.6318 16.7865 16.3257 14.9542C17.0196 13.1218 17.3666 11.3482 17.3666 9.63327C17.3666 8.22375 17.1469 6.89059 16.7074 5.63377C16.2679 4.37696 15.5393 3.29046 14.5215 2.37427C13.5038 1.45809 12.2894 1 10.8784 1C9.09735 1 7.49555 1.67539 6.073 3.02617C4.65046 4.37696 3.59223 5.96266 2.89831 7.78328C2.20438 9.6039 1.85742 11.3834 1.85742 13.1218C1.85742 14.5313 2.07716 15.8645 2.51665 17.1213C2.95613 18.3781 3.68475 19.4646 4.70251 20.3808Z" fill="white" stroke="#D11F2A" stroke-width="2"/>
</svg>
