<svg width="18" height="22" viewBox="0 0 18 22" fill="none" xmlns="http://www.w3.org/2000/svg">
<path d="M15.5424 3.13571C14.5709 1.73795 13.1946 1.03906 11.4136 1.03906C9.65563 1.03906 8.01912 1.69096 6.50406 2.99476C4.98899 4.29856 3.82668 5.87252 3.0171 7.71663C2.20752 9.56074 1.80273 11.352 1.80273 13.0904C1.80273 14.9697 2.28848 16.6024 3.25997 17.9885C4.23146 19.3745 5.60774 20.0675 7.38881 20.0675C9.14675 20.0675 10.7833 19.4156 12.2983 18.1118C13.8134 16.808 14.9757 15.2399 15.7853 13.4075C16.5949 11.5752 16.9996 9.78979 16.9996 8.05139C16.9996 6.17204 16.5139 4.53348 15.5424 3.13571Z" fill="white" stroke="#D11F2A" stroke-width="2"/>
</svg>
