<svg width="53" height="51" viewBox="0 0 53 51" fill="none" xmlns="http://www.w3.org/2000/svg">
<path d="M25 10.5C25 13.1522 23.9464 15.6957 22.0711 17.5711C20.1957 19.4464 17.6522 20.5 15 20.5C12.3478 20.5 9.8043 19.4464 7.92893 17.5711C6.05357 15.6957 5 13.1522 5 10.5C5 7.84784 6.05357 5.3043 7.92893 3.42893C9.8043 1.55357 12.3478 0.5 15 0.5C17.6522 0.5 20.1957 1.55357 22.0711 3.42893C23.9464 5.3043 25 7.84784 25 10.5ZM45 13C45 14.9891 44.2098 16.8968 42.8033 18.3033C41.3968 19.7098 39.4891 20.5 37.5 20.5C35.5109 20.5 33.6032 19.7098 32.1967 18.3033C30.7902 16.8968 30 14.9891 30 13C30 11.0109 30.7902 9.10322 32.1967 7.6967C33.6032 6.29018 35.5109 5.5 37.5 5.5C39.4891 5.5 41.3968 6.29018 42.8033 7.6967C44.2098 9.10322 45 11.0109 45 13ZM0 31.125C0 29.6332 0.592632 28.2024 1.64752 27.1475C2.70242 26.0926 4.13316 25.5 5.625 25.5H24.375C25.165 25.5 25.9175 25.6625 26.6 25.9575C23.9533 28.9288 22.4937 32.7709 22.5 36.75C22.4984 38.3481 22.7326 39.9377 23.195 41.4675C21.145 42.4 18.475 43 15 43C0 43 0 31.75 0 31.75V31.125ZM38.7525 50.505C41.7696 50.5043 44.7028 49.5114 47.1 47.6794C49.4972 45.8473 51.2254 43.2778 52.0183 40.3667C52.8112 37.4557 52.6248 34.3647 51.4879 31.57C50.3509 28.7753 48.3264 26.4321 45.7264 24.9013C43.1265 23.3706 40.0952 22.7374 37.0999 23.0993C34.1046 23.4611 31.3113 24.7979 29.1507 26.9037C26.99 29.0095 25.5817 31.7674 25.1429 34.7525C24.7042 37.7375 25.2592 40.784 26.7225 43.4225L25.0575 48.8875C24.9909 49.1044 24.9846 49.3354 25.0392 49.5556C25.0939 49.7759 25.2075 49.9771 25.3678 50.1377C25.5282 50.2983 25.7292 50.4122 25.9493 50.4672C26.1695 50.5222 26.4005 50.5163 26.6175 50.45L32.085 48.785C34.06 49.8825 36.335 50.505 38.7525 50.505ZM33.7525 35.505C33.4207 35.505 33.1024 35.3732 32.8677 35.1385C32.6331 34.9039 32.5013 34.5856 32.5013 34.2537C32.5013 33.9219 32.6331 33.6036 32.8677 33.369C33.1024 33.1343 33.4207 33.0025 33.7525 33.0025H43.7525C44.084 33.0025 44.402 33.1342 44.6364 33.3686C44.8708 33.603 45.0025 33.921 45.0025 34.2525C45.0025 34.584 44.8708 34.902 44.6364 35.1364C44.402 35.3708 44.084 35.5025 43.7525 35.5025L33.7525 35.505ZM38.7525 40.505H33.7525C33.421 40.505 33.103 40.3733 32.8686 40.1389C32.6342 39.9045 32.5025 39.5865 32.5025 39.255C32.5025 38.9235 32.6342 38.6055 32.8686 38.3711C33.103 38.1367 33.421 38.005 33.7525 38.005H38.7525C39.084 38.005 39.402 38.1367 39.6364 38.3711C39.8708 38.6055 40.0025 38.9235 40.0025 39.255C40.0025 39.5865 39.8708 39.9045 39.6364 40.1389C39.402 40.3733 39.084 40.505 38.7525 40.505Z" fill="#D11F2A"/>
</svg>
