<svg width="53" height="44" viewBox="0 0 53 44" fill="none" xmlns="http://www.w3.org/2000/svg">
<path d="M16.25 20C18.8359 20 21.3158 18.9728 23.1443 17.1443C24.9728 15.3158 26 12.8359 26 10.25C26 7.66414 24.9728 5.18419 23.1443 3.35571C21.3158 1.52723 18.8359 0.5 16.25 0.5C13.6641 0.5 11.1842 1.52723 9.35571 3.35571C7.52723 5.18419 6.5 7.66414 6.5 10.25C6.5 12.8359 7.52723 15.3158 9.35571 17.1443C11.1842 18.9728 13.6641 20 16.25 20ZM23 30.5C22.9999 28.9271 23.4944 27.3941 24.4133 26.1176C25.3323 24.8411 26.6294 23.8859 28.121 23.387C27.4433 23.1306 26.7246 22.9995 26 23H6.5C4.9087 23 3.38258 23.6321 2.25736 24.7574C1.13214 25.8826 0.5 27.4087 0.5 29C0.5 29 0.5 41 16.25 41C18.941 41 21.17 40.649 23.021 40.07C23.0069 39.8803 22.9999 39.6902 23 39.5V30.5ZM47 12.5C47 14.4891 46.2098 16.3968 44.8033 17.8033C43.3968 19.2098 41.4891 20 39.5 20C37.5109 20 35.6032 19.2098 34.1967 17.8033C32.7902 16.3968 32 14.4891 32 12.5C32 10.5109 32.7902 8.60322 34.1967 7.1967C35.6032 5.79018 37.5109 5 39.5 5C41.4891 5 43.3968 5.79018 44.8033 7.1967C46.2098 8.60322 47 10.5109 47 12.5ZM26 30.5C26 29.3065 26.4741 28.1619 27.318 27.318C28.1619 26.4741 29.3065 26 30.5 26H48.5C49.6935 26 50.8381 26.4741 51.682 27.318C52.5259 28.1619 53 29.3065 53 30.5V39.5C53 40.6935 52.5259 41.8381 51.682 42.682C50.8381 43.5259 49.6935 44 48.5 44H30.5C29.3065 44 28.1619 43.5259 27.318 42.682C26.4741 41.8381 26 40.6935 26 39.5V30.5ZM29 30.5V33.5C30.1935 33.5 31.3381 33.0259 32.182 32.182C33.0259 31.3381 33.5 30.1935 33.5 29H30.5C30.5 29.3978 30.342 29.7794 30.0607 30.0607C29.7794 30.342 29.3978 30.5 29 30.5ZM50 33.5V30.5C49.6022 30.5 49.2206 30.342 48.9393 30.0607C48.658 29.7794 48.5 29.3978 48.5 29H45.5C45.5 30.1935 45.9741 31.3381 46.818 32.182C47.6619 33.0259 48.8065 33.5 50 33.5ZM45.5 41H48.5C48.5 40.6022 48.658 40.2206 48.9393 39.9393C49.2206 39.658 49.6022 39.5 50 39.5V36.5C48.8065 36.5 47.6619 36.9741 46.818 37.818C45.9741 38.6619 45.5 39.8065 45.5 41ZM29 36.5V39.5C29.3978 39.5 29.7794 39.658 30.0607 39.9393C30.342 40.2206 30.5 40.6022 30.5 41H33.5C33.5 39.8065 33.0259 38.6619 32.182 37.818C31.3381 36.9741 30.1935 36.5 29 36.5ZM39.5 39.5C40.6935 39.5 41.8381 39.0259 42.682 38.182C43.5259 37.3381 44 36.1935 44 35C44 33.8065 43.5259 32.6619 42.682 31.818C41.8381 30.9741 40.6935 30.5 39.5 30.5C38.3065 30.5 37.1619 30.9741 36.318 31.818C35.4741 32.6619 35 33.8065 35 35C35 36.1935 35.4741 37.3381 36.318 38.182C37.1619 39.0259 38.3065 39.5 39.5 39.5Z" fill="#D11F2A"/>
</svg>
