<svg width="30" height="30" viewBox="0 0 30 30" fill="none" xmlns="http://www.w3.org/2000/svg">
<path d="M1.66602 24.9987C1.66602 23.2306 2.36839 21.5349 3.61864 20.2847C4.86888 19.0344 6.56457 18.332 8.33268 18.332H21.666C23.4341 18.332 25.1298 19.0344 26.3801 20.2847C27.6303 21.5349 28.3327 23.2306 28.3327 24.9987C28.3327 25.8828 27.9815 26.7306 27.3564 27.3557C26.7312 27.9808 25.8834 28.332 24.9993 28.332H4.99935C4.11529 28.332 3.26745 27.9808 2.64233 27.3557C2.0172 26.7306 1.66602 25.8828 1.66602 24.9987Z" stroke="#070707" stroke-width="2" stroke-linejoin="round"/>
<path d="M15 11.666C17.7614 11.666 20 9.42744 20 6.66602C20 3.90459 17.7614 1.66602 15 1.66602C12.2386 1.66602 10 3.90459 10 6.66602C10 9.42744 12.2386 11.666 15 11.666Z" stroke="#070707" stroke-width="2"/>
</svg>
