<svg width="28" height="36" viewBox="0 0 28 36" fill="none" xmlns="http://www.w3.org/2000/svg">
<path d="M6.5 9.25H11.5M6.5 18H21.5M6.5 23H21.5M6.5 28H11.5M4 34.25H24C24.663 34.25 25.2989 33.9866 25.7678 33.5178C26.2366 33.0489 26.5 32.413 26.5 31.75V4.25C26.5 3.58696 26.2366 2.95107 25.7678 2.48223C25.2989 2.01339 24.663 1.75 24 1.75H4C3.33696 1.75 2.70107 2.01339 2.23223 2.48223C1.76339 2.95107 1.5 3.58696 1.5 4.25V31.75C1.5 32.413 1.76339 33.0489 2.23223 33.5178C2.70107 33.9866 3.33696 34.25 4 34.25Z" stroke="#0B0A0A" stroke-width="2" stroke-linecap="round" stroke-linejoin="round"/>
</svg>
