<svg width="61" height="60" viewBox="0 0 61 60" fill="none" xmlns="http://www.w3.org/2000/svg">
<path d="M30.5 5C16.675 5 5.5 16.25 5.5 30C5.5 36.6304 8.13392 42.9893 12.8223 47.6777C15.1438 49.9991 17.8998 51.8406 20.9329 53.097C23.9661 54.3534 27.217 55 30.5 55C37.1304 55 43.4893 52.3661 48.1777 47.6777C52.8661 42.9893 55.5 36.6304 55.5 30C55.5 26.717 54.8534 23.4661 53.597 20.4329C52.3406 17.3998 50.4991 14.6438 48.1777 12.3223C45.8562 10.0009 43.1002 8.15938 40.0671 6.90301C37.0339 5.64664 33.783 5 30.5 5ZM39.25 20C40.2446 20 41.1984 20.3951 41.9016 21.0983C42.6049 21.8016 43 22.7554 43 23.75C43 24.7446 42.6049 25.6984 41.9016 26.4017C41.1984 27.1049 40.2446 27.5 39.25 27.5C38.2554 27.5 37.3016 27.1049 36.5983 26.4017C35.8951 25.6984 35.5 24.7446 35.5 23.75C35.5 22.7554 35.8951 21.8016 36.5983 21.0983C37.3016 20.3951 38.2554 20 39.25 20ZM21.75 20C22.7446 20 23.6984 20.3951 24.4017 21.0983C25.1049 21.8016 25.5 22.7554 25.5 23.75C25.5 24.7446 25.1049 25.6984 24.4017 26.4017C23.6984 27.1049 22.7446 27.5 21.75 27.5C20.7554 27.5 19.8016 27.1049 19.0983 26.4017C18.3951 25.6984 18 24.7446 18 23.75C18 22.7554 18.3951 21.8016 19.0983 21.0983C19.8016 20.3951 20.7554 20 21.75 20ZM30.5 43.75C24.675 43.75 19.725 40.1 17.725 35H43.275C41.25 40.1 36.325 43.75 30.5 43.75Z" fill="#D11F2A"/>
</svg>
