<svg width="61" height="60" viewBox="0 0 61 60" fill="none" xmlns="http://www.w3.org/2000/svg">
<path d="M20.75 27C23.3359 27 25.8158 25.9728 27.6443 24.1443C29.4728 22.3158 30.5 19.8359 30.5 17.25C30.5 14.6641 29.4728 12.1842 27.6443 10.3557C25.8158 8.52723 23.3359 7.5 20.75 7.5C18.1641 7.5 15.6842 8.52723 13.8557 10.3557C12.0272 12.1842 11 14.6641 11 17.25C11 19.8359 12.0272 22.3158 13.8557 24.1443C15.6842 25.9728 18.1641 27 20.75 27ZM27.5 37.5C27.4999 35.9271 27.9944 34.3941 28.9133 33.1176C29.8323 31.8411 31.1294 30.8859 32.621 30.387C31.9433 30.1306 31.2246 29.9995 30.5 30H11C9.4087 30 7.88258 30.6321 6.75736 31.7574C5.63214 32.8826 5 34.4087 5 36C5 36 5 48 20.75 48C23.441 48 25.67 47.649 27.521 47.07C27.5069 46.8803 27.4999 46.6902 27.5 46.5V37.5ZM51.5 19.5C51.5 21.4891 50.7098 23.3968 49.3033 24.8033C47.8968 26.2098 45.9891 27 44 27C42.0109 27 40.1032 26.2098 38.6967 24.8033C37.2902 23.3968 36.5 21.4891 36.5 19.5C36.5 17.5109 37.2902 15.6032 38.6967 14.1967C40.1032 12.7902 42.0109 12 44 12C45.9891 12 47.8968 12.7902 49.3033 14.1967C50.7098 15.6032 51.5 17.5109 51.5 19.5ZM30.5 37.5C30.5 36.3065 30.9741 35.1619 31.818 34.318C32.6619 33.4741 33.8065 33 35 33H53C54.1935 33 55.3381 33.4741 56.182 34.318C57.0259 35.1619 57.5 36.3065 57.5 37.5V46.5C57.5 47.6935 57.0259 48.8381 56.182 49.682C55.3381 50.5259 54.1935 51 53 51H35C33.8065 51 32.6619 50.5259 31.818 49.682C30.9741 48.8381 30.5 47.6935 30.5 46.5V37.5ZM33.5 37.5V40.5C34.6935 40.5 35.8381 40.0259 36.682 39.182C37.5259 38.3381 38 37.1935 38 36H35C35 36.3978 34.842 36.7794 34.5607 37.0607C34.2794 37.342 33.8978 37.5 33.5 37.5ZM54.5 40.5V37.5C54.1022 37.5 53.7206 37.342 53.4393 37.0607C53.158 36.7794 53 36.3978 53 36H50C50 37.1935 50.4741 38.3381 51.318 39.182C52.1619 40.0259 53.3065 40.5 54.5 40.5ZM50 48H53C53 47.6022 53.158 47.2206 53.4393 46.9393C53.7206 46.658 54.1022 46.5 54.5 46.5V43.5C53.3065 43.5 52.1619 43.9741 51.318 44.818C50.4741 45.6619 50 46.8065 50 48ZM33.5 43.5V46.5C33.8978 46.5 34.2794 46.658 34.5607 46.9393C34.842 47.2206 35 47.6022 35 48H38C38 46.8065 37.5259 45.6619 36.682 44.818C35.8381 43.9741 34.6935 43.5 33.5 43.5ZM44 46.5C45.1935 46.5 46.3381 46.0259 47.182 45.182C48.0259 44.3381 48.5 43.1935 48.5 42C48.5 40.8065 48.0259 39.6619 47.182 38.818C46.3381 37.9741 45.1935 37.5 44 37.5C42.8065 37.5 41.6619 37.9741 40.818 38.818C39.9741 39.6619 39.5 40.8065 39.5 42C39.5 43.1935 39.9741 44.3381 40.818 45.182C41.6619 46.0259 42.8065 46.5 44 46.5Z" fill="#D11F2A"/>
</svg>
