<svg width="61" height="60" viewBox="0 0 61 60" fill="none" xmlns="http://www.w3.org/2000/svg">
<path d="M30.5 17.5C30.5 20.1522 29.4464 22.6957 27.5711 24.5711C25.6957 26.4464 23.1522 27.5 20.5 27.5C17.8478 27.5 15.3043 26.4464 13.4289 24.5711C11.5536 22.6957 10.5 20.1522 10.5 17.5C10.5 14.8478 11.5536 12.3043 13.4289 10.4289C15.3043 8.55357 17.8478 7.5 20.5 7.5C23.1522 7.5 25.6957 8.55357 27.5711 10.4289C29.4464 12.3043 30.5 14.8478 30.5 17.5ZM50.5 20C50.5 21.9891 49.7098 23.8968 48.3033 25.3033C46.8968 26.7098 44.9891 27.5 43 27.5C41.0109 27.5 39.1032 26.7098 37.6967 25.3033C36.2902 23.8968 35.5 21.9891 35.5 20C35.5 18.0109 36.2902 16.1032 37.6967 14.6967C39.1032 13.2902 41.0109 12.5 43 12.5C44.9891 12.5 46.8968 13.2902 48.3033 14.6967C49.7098 16.1032 50.5 18.0109 50.5 20ZM5.5 38.125C5.5 36.6332 6.09263 35.2024 7.14752 34.1475C8.20242 33.0926 9.63316 32.5 11.125 32.5H29.875C30.665 32.5 31.4175 32.6625 32.1 32.9575C29.4533 35.9288 27.9937 39.7709 28 43.75C27.9984 45.3481 28.2326 46.9377 28.695 48.4675C26.645 49.4 23.975 50 20.5 50C5.5 50 5.5 38.75 5.5 38.75V38.125ZM44.2525 57.505C47.2696 57.5043 50.2028 56.5114 52.6 54.6794C54.9972 52.8473 56.7254 50.2778 57.5183 47.3667C58.3112 44.4557 58.1248 41.3647 56.9879 38.57C55.8509 35.7753 53.8264 33.4321 51.2264 31.9013C48.6265 30.3706 45.5952 29.7374 42.5999 30.0993C39.6046 30.4611 36.8113 31.7979 34.6507 33.9037C32.49 36.0095 31.0817 38.7674 30.6429 41.7525C30.2042 44.7375 30.7592 47.784 32.2225 50.4225L30.5575 55.8875C30.4909 56.1044 30.4846 56.3354 30.5392 56.5556C30.5939 56.7759 30.7075 56.9771 30.8678 57.1377C31.0282 57.2983 31.2292 57.4122 31.4493 57.4672C31.6695 57.5222 31.9005 57.5163 32.1175 57.45L37.585 55.785C39.56 56.8825 41.835 57.505 44.2525 57.505ZM39.2525 42.505C38.9207 42.505 38.6024 42.3732 38.3677 42.1385C38.1331 41.9039 38.0013 41.5856 38.0013 41.2537C38.0013 40.9219 38.1331 40.6036 38.3677 40.369C38.6024 40.1343 38.9207 40.0025 39.2525 40.0025H49.2525C49.584 40.0025 49.902 40.1342 50.1364 40.3686C50.3708 40.603 50.5025 40.921 50.5025 41.2525C50.5025 41.584 50.3708 41.902 50.1364 42.1364C49.902 42.3708 49.584 42.5025 49.2525 42.5025L39.2525 42.505ZM44.2525 47.505H39.2525C38.921 47.505 38.603 47.3733 38.3686 47.1389C38.1342 46.9045 38.0025 46.5865 38.0025 46.255C38.0025 45.9235 38.1342 45.6055 38.3686 45.3711C38.603 45.1367 38.921 45.005 39.2525 45.005H44.2525C44.584 45.005 44.902 45.1367 45.1364 45.3711C45.3708 45.6055 45.5025 45.9235 45.5025 46.255C45.5025 46.5865 45.3708 46.9045 45.1364 47.1389C44.902 47.3733 44.584 47.505 44.2525 47.505Z" fill="#D11F2A"/>
</svg>
