<svg width="16" height="16" viewBox="0 0 16 16" fill="none" xmlns="http://www.w3.org/2000/svg">
<path d="M10.4245 9.63209C9.55031 8.99585 8.73675 8.67773 7.9838 8.67773C7.4159 8.67773 6.80014 8.87024 6.13653 9.25524C5.47292 9.64025 4.87471 10.1166 4.3419 10.6843C3.8091 11.2521 3.36403 11.8801 3.0067 12.5686C2.64937 13.257 2.4707 13.8818 2.4707 14.443C2.4707 15.3958 3.05456 15.8721 4.22226 15.8721C4.69445 15.8721 5.33413 15.7269 6.14132 15.4365C6.9485 15.1462 7.56266 15.001 7.9838 15.001C8.3858 15.001 8.96806 15.1478 9.73057 15.4414C10.4931 15.7351 11.0913 15.8819 11.5252 15.8819C11.7996 15.8819 12.0421 15.864 12.2526 15.8281C12.4632 15.7922 12.669 15.7269 12.87 15.6323C13.071 15.5377 13.2257 15.3909 13.3342 15.1918C13.4427 14.9928 13.4969 14.7432 13.4969 14.443C13.4969 13.6926 13.2034 12.8622 12.6163 11.9519C12.0293 11.0416 11.2987 10.2683 10.4245 9.63209Z" fill="#D11F2A"/>
<path d="M15.5988 6.19764C15.3308 5.80937 14.9512 5.61523 14.4599 5.61523C13.9749 5.61523 13.5235 5.79632 13.1055 6.15848C12.6876 6.52065 12.3669 6.95786 12.1436 7.47011C11.9203 7.98237 11.8086 8.47994 11.8086 8.96283C11.8086 9.48487 11.9426 9.93839 12.2106 10.3234C12.4786 10.7084 12.8583 10.9009 13.3496 10.9009C13.8345 10.9009 14.286 10.7198 14.7039 10.3577C15.1219 9.99549 15.4425 9.55991 15.6658 9.05092C15.8892 8.54193 16.0008 8.04599 16.0008 7.5631C16.0008 7.04106 15.8668 6.58591 15.5988 6.19764Z" fill="#D11F2A"/>
<path d="M9.29657 6.26637C9.57733 6.52086 9.91233 6.64811 10.3016 6.64811C10.7865 6.64811 11.2268 6.4605 11.6224 6.08528C12.018 5.71007 12.3115 5.26796 12.503 4.75897C12.6944 4.24998 12.7901 3.7573 12.7901 3.28094C12.7901 2.88941 12.7295 2.51909 12.6083 2.16997C12.487 1.82086 12.286 1.51905 12.0053 1.26456C11.7245 1.01006 11.3895 0.882812 11.0003 0.882812C10.5089 0.882812 10.0671 1.07042 9.67464 1.44564C9.28221 1.82086 8.99029 2.26133 8.79886 2.76706C8.60743 3.27278 8.51172 3.76709 8.51172 4.24998C8.51172 4.64151 8.57234 5.01184 8.69357 5.36095C8.81481 5.71007 9.01581 6.01187 9.29657 6.26637Z" fill="#D11F2A"/>
<path d="M7.11802 5.36095C7.23926 5.01184 7.29988 4.64151 7.29988 4.24998C7.29988 3.76709 7.20416 3.27278 7.01274 2.76706C6.82131 2.26133 6.52938 1.82086 6.13696 1.44564C5.74453 1.07042 5.30266 0.882812 4.81133 0.882812C4.42209 0.882812 4.08709 1.01006 3.80634 1.26456C3.52558 1.51905 3.32458 1.82086 3.20334 2.16997C3.0821 2.51909 3.02148 2.88941 3.02148 3.28094C3.02148 3.7573 3.1172 4.24998 3.30862 4.75897C3.50005 5.26796 3.79357 5.71007 4.18919 6.08528C4.5848 6.4605 5.02509 6.64811 5.51004 6.64811C5.89927 6.64811 6.23427 6.52086 6.51503 6.26637C6.79579 6.01187 6.99679 5.71007 7.11802 5.36095Z" fill="#D11F2A"/>
<path d="M4.19225 8.96283C4.19225 9.48487 4.05825 9.93839 3.79025 10.3234C3.52226 10.7084 3.14259 10.9009 2.65126 10.9009C2.16632 10.9009 1.71487 10.7198 1.29692 10.3577C0.878969 9.99549 0.558329 9.55991 0.334997 9.05092C0.111666 8.54193 0 8.04599 0 7.5631C0 7.04106 0.133999 6.58591 0.401997 6.19764C0.669994 5.80937 1.04966 5.61523 1.54099 5.61523C2.02594 5.61523 2.47738 5.79632 2.89533 6.15848C3.31328 6.52065 3.63392 6.95786 3.85725 7.47011C4.08059 7.98237 4.19225 8.47994 4.19225 8.96283Z" fill="#D11F2A"/>
</svg>
