<svg width="60" height="60" viewBox="0 0 60 60" fill="none" xmlns="http://www.w3.org/2000/svg">
<path d="M18.75 55C16.3333 55 14.2708 54.1458 12.5625 52.4375C10.8542 50.7292 10 48.6667 10 46.25V13.75C10 11.3333 10.8542 9.27083 12.5625 7.5625C14.2708 5.85417 16.3333 5 18.75 5H50V42.5C48.9583 42.5 48.0733 42.865 47.345 43.595C46.6167 44.325 46.2517 45.21 46.25 46.25C46.25 47.2917 46.615 48.1775 47.345 48.9075C48.075 49.6375 48.96 50.0017 50 50V55H18.75ZM20 37.5H25V10H20V37.5ZM18.75 50H42.0625C41.8125 49.4167 41.615 48.8233 41.47 48.22C41.325 47.6167 41.2517 46.96 41.25 46.25C41.25 45.5833 41.3125 44.9375 41.4375 44.3125C41.5625 43.6875 41.7708 43.0833 42.0625 42.5H18.75C17.6667 42.5 16.7708 42.865 16.0625 43.595C15.3542 44.325 15 45.21 15 46.25C15 47.3333 15.3542 48.2292 16.0625 48.9375C16.7708 49.6458 17.6667 50 18.75 50Z" fill="#D11F2A"/>
</svg>
