<svg width="61" height="60" viewBox="0 0 61 60" fill="none" xmlns="http://www.w3.org/2000/svg">
<path d="M14.0448 15.48L15.6648 22.38L14.0448 29.25L20.0748 32.97L23.7648 39L30.6648 37.38L37.5648 39L41.2548 32.97L47.2848 29.25L45.6648 22.38L47.2848 15.48L41.2848 11.76L37.5648 5.72998L30.6648 7.37998L23.7948 5.75998L20.0448 11.76L14.0448 15.48ZM30.6948 34.5C27.5122 34.5 24.46 33.2357 22.2096 30.9853C19.9591 28.7348 18.6948 25.6826 18.6948 22.5C18.6948 19.3174 19.9591 16.2651 22.2096 14.0147C24.46 11.7643 27.5122 10.5 30.6948 10.5C37.2948 10.5 42.6648 15.87 42.6648 22.47C42.6648 29.13 37.2948 34.5 30.6948 34.5ZM30.6348 31.5C25.6548 31.5 21.6648 27.48 21.6648 22.5C21.6648 17.55 25.6548 13.5 30.6348 13.5C35.6148 13.5 39.6648 17.55 39.6648 22.5C39.6648 27.48 35.6148 31.5 30.6348 31.5ZM42.1548 34.8L38.3148 41.52L32.0748 40.11L39.6648 57.6L43.8648 51H51.3648L42.1548 34.8ZM19.0548 35.01L22.8048 41.76L29.1948 40.23L21.6648 57.6L17.4648 51H9.96484L19.0548 35.01Z" fill="#D11F2A"/>
</svg>
