<svg width="61" height="54" viewBox="0 0 61 54" fill="none" xmlns="http://www.w3.org/2000/svg">
<path d="M33.8348 20H35.616C37.9181 23.9896 42.2306 26.6667 47.1681 26.6667C48.3139 26.6667 49.4389 26.5208 50.5014 26.25V50C50.5014 51.8438 49.0118 53.3333 47.1681 53.3333C45.3243 53.3333 43.8348 51.8438 43.8348 50V35.3333L29.6681 46.6667H35.5014C37.3452 46.6667 38.8348 48.1562 38.8348 50C38.8348 51.8438 37.3452 53.3333 35.5014 53.3333H20.5014C14.9806 53.3333 10.5014 48.8542 10.5014 43.3333V20.0521C10.5014 18.375 9.25142 16.9479 7.58476 16.7396L6.76184 16.6354C4.93892 16.4062 3.63684 14.7396 3.86601 12.9167C4.09517 11.0938 5.76184 9.79167 7.58476 10.0208L8.40767 10.125C13.4077 10.75 17.1681 15 17.1681 20.0521V28.9375C20.7514 23.5521 26.8764 20 33.8348 20ZM50.5014 22.7604C49.4598 23.125 48.3348 23.3333 47.1681 23.3333C44.2098 23.3333 41.5431 22.0417 39.7098 20C39.3243 19.5729 38.9806 19.1146 38.6785 18.625C37.7202 17.0833 37.1681 15.2708 37.1681 13.3333V1.11458C37.1681 0.5 37.6577 0.0104167 38.2723 0H38.2931C38.6368 0 38.9598 0.166667 39.1681 0.4375V0.447917L40.5014 2.21875L43.3348 6L43.8348 6.66667H50.5014L51.0014 6L53.8348 2.21875L55.1681 0.447917V0.4375C55.3764 0.166667 55.6993 0 56.0431 0H56.0639C56.6785 0.0104167 57.1681 0.5 57.1681 1.11458V13.3333C57.1681 15.1354 56.6889 16.8333 55.8556 18.2917C54.6785 20.3542 52.7723 21.9583 50.5014 22.7604ZM45.5014 13.3333C45.5014 12.8913 45.3258 12.4674 45.0133 12.1548C44.7007 11.8423 44.2768 11.6667 43.8348 11.6667C43.3927 11.6667 42.9688 11.8423 42.6562 12.1548C42.3437 12.4674 42.1681 12.8913 42.1681 13.3333C42.1681 13.7754 42.3437 14.1993 42.6562 14.5118C42.9688 14.8244 43.3927 15 43.8348 15C44.2768 15 44.7007 14.8244 45.0133 14.5118C45.3258 14.1993 45.5014 13.7754 45.5014 13.3333ZM50.5014 15C50.9435 15 51.3674 14.8244 51.6799 14.5118C51.9925 14.1993 52.1681 13.7754 52.1681 13.3333C52.1681 12.8913 51.9925 12.4674 51.6799 12.1548C51.3674 11.8423 50.9435 11.6667 50.5014 11.6667C50.0594 11.6667 49.6355 11.8423 49.3229 12.1548C49.0103 12.4674 48.8348 12.8913 48.8348 13.3333C48.8348 13.7754 49.0103 14.1993 49.3229 14.5118C49.6355 14.8244 50.0594 15 50.5014 15Z" fill="#D11F2A"/>
</svg>
