<svg width="17" height="18" viewBox="0 0 17 18" fill="none" xmlns="http://www.w3.org/2000/svg">
<path fill-rule="evenodd" clip-rule="evenodd" d="M11.1859 3.59998H15.4219C15.581 3.59998 15.7336 3.66319 15.8461 3.77571C15.9587 3.88823 16.0219 4.04085 16.0219 4.19998C16.0219 4.35911 15.9587 4.51172 15.8461 4.62424C15.7336 4.73676 15.581 4.79998 15.4219 4.79998H13.9219V16.8C13.9219 16.9591 13.8587 17.1117 13.7461 17.2242C13.6336 17.3368 13.481 17.4 13.3219 17.4H3.12187C2.78587 17.4 2.52187 17.136 2.52187 16.8V4.79998H1.02187C0.862745 4.79998 0.710133 4.73676 0.597611 4.62424C0.485089 4.51172 0.421875 4.35911 0.421875 4.19998C0.421875 4.04085 0.485089 3.88823 0.597611 3.77571C0.710133 3.66319 0.862745 3.59998 1.02187 3.59998H5.25787C5.29932 2.88382 5.54962 2.19548 5.97787 1.61998C6.49387 0.983976 7.26187 0.599976 8.22187 0.599976C9.18187 0.599976 9.94987 0.983976 10.4659 1.61998C10.8935 2.19581 11.1437 2.88396 11.1859 3.59998ZM8.22187 1.79998C7.60987 1.79998 7.18987 2.02798 6.91387 2.37598C6.68587 2.66398 6.54187 3.09598 6.48187 3.59998H9.96187C9.88987 3.09598 9.76987 2.66398 9.52987 2.37598C9.24187 2.02798 8.83387 1.79998 8.22187 1.79998ZM3.72187 16.2H12.7219V4.79998H3.72187V16.2ZM6.0576 6.47571C6.17012 6.36319 6.32273 6.29998 6.48186 6.29998C6.64099 6.29998 6.7936 6.36319 6.90612 6.47571C7.01865 6.58823 7.08186 6.74085 7.08186 6.89998V14.1C7.08186 14.2591 7.01865 14.4117 6.90612 14.5242C6.7936 14.6368 6.64099 14.7 6.48186 14.7C6.32273 14.7 6.17012 14.6368 6.0576 14.5242C5.94507 14.4117 5.88186 14.2591 5.88186 14.1V6.89998C5.88186 6.74085 5.94507 6.58823 6.0576 6.47571ZM9.5376 6.47571C9.65012 6.36319 9.80273 6.29998 9.96186 6.29998C10.121 6.29998 10.2736 6.36319 10.3861 6.47571C10.4986 6.58823 10.5619 6.74085 10.5619 6.89998V14.1C10.5619 14.2591 10.4986 14.4117 10.3861 14.5242C10.2736 14.6368 10.121 14.7 9.96186 14.7C9.80273 14.7 9.65012 14.6368 9.5376 14.5242C9.42507 14.4117 9.36186 14.2591 9.36186 14.1V6.89998C9.36186 6.74085 9.42507 6.58823 9.5376 6.47571Z" fill="#070707"/>
</svg>
