<svg width="50" height="50" viewBox="0 0 50 50" fill="none" xmlns="http://www.w3.org/2000/svg">
<path d="M25 0C11.175 0 0 11.25 0 25C0 31.6304 2.63392 37.9893 7.32233 42.6777C9.6438 44.9991 12.3998 46.8406 15.4329 48.097C18.4661 49.3534 21.717 50 25 50C31.6304 50 37.9893 47.3661 42.6777 42.6777C47.3661 37.9893 50 31.6304 50 25C50 21.717 49.3534 18.4661 48.097 15.4329C46.8406 12.3998 44.9991 9.6438 42.6777 7.32233C40.3562 5.00087 37.6002 3.15938 34.5671 1.90301C31.5339 0.646644 28.283 0 25 0ZM33.75 15C34.7446 15 35.6984 15.3951 36.4016 16.0983C37.1049 16.8016 37.5 17.7554 37.5 18.75C37.5 19.7446 37.1049 20.6984 36.4016 21.4017C35.6984 22.1049 34.7446 22.5 33.75 22.5C32.7554 22.5 31.8016 22.1049 31.0983 21.4017C30.3951 20.6984 30 19.7446 30 18.75C30 17.7554 30.3951 16.8016 31.0983 16.0983C31.8016 15.3951 32.7554 15 33.75 15ZM16.25 15C17.2446 15 18.1984 15.3951 18.9017 16.0983C19.6049 16.8016 20 17.7554 20 18.75C20 19.7446 19.6049 20.6984 18.9017 21.4017C18.1984 22.1049 17.2446 22.5 16.25 22.5C15.2554 22.5 14.3016 22.1049 13.5983 21.4017C12.8951 20.6984 12.5 19.7446 12.5 18.75C12.5 17.7554 12.8951 16.8016 13.5983 16.0983C14.3016 15.3951 15.2554 15 16.25 15ZM25 38.75C19.175 38.75 14.225 35.1 12.225 30H37.775C35.75 35.1 30.825 38.75 25 38.75Z" fill="#D11F2A"/>
</svg>
