<svg aria-hidden="true" style="position: absolute; width: 0; height: 0; overflow: hidden;" version="1.1" xmlns="http://www.w3.org/2000/svg" xmlns:xlink="http://www.w3.org/1999/xlink">
<defs>
<symbol id="icon-burger" viewBox="0 0 50 32">
<path d="M0 2.643c0-0.625 0.248-1.225 0.69-1.667s1.042-0.69 1.667-0.69h45.571c0.625 0 1.225 0.248 1.667 0.69s0.69 1.042 0.69 1.667c0 0.625-0.248 1.225-0.69 1.667s-1.042 0.69-1.667 0.69h-45.571c-0.625 0-1.225-0.248-1.667-0.69s-0.69-1.042-0.69-1.667zM0 16c0-0.625 0.248-1.225 0.69-1.667s1.042-0.69 1.667-0.69h45.571c0.625 0 1.225 0.248 1.667 0.69s0.69 1.042 0.69 1.667c0 0.625-0.248 1.225-0.69 1.667s-1.042 0.69-1.667 0.69h-45.571c-0.625 0-1.225-0.248-1.667-0.69s-0.69-1.042-0.69-1.667zM2.357 27c-0.625 0-1.225 0.248-1.667 0.69s-0.69 1.042-0.69 1.667c0 0.625 0.248 1.225 0.69 1.667s1.042 0.69 1.667 0.69h45.571c0.625 0 1.225-0.248 1.667-0.69s0.69-1.042 0.69-1.667c0-0.625-0.248-1.225-0.69-1.667s-1.042-0.69-1.667-0.69h-45.571z"></path>
</symbol>
<symbol id="icon-globus" viewBox="0 0 32 32">
<path fill="#fff" style="fill: var(--color1, #fff)" d="M11.523 0.632c-3.106 0.9-5.867 2.711-7.922 5.198s-3.31 5.533-3.6 8.742h7.344c0.426-4.882 1.847-9.626 4.177-13.942l0.002 0.002zM7.344 17.429h-7.344c0.289 3.208 1.544 6.255 3.599 8.742s4.816 4.299 7.921 5.2c-2.33-4.316-3.751-9.060-4.177-13.942zM15.201 31.981c-2.784-4.394-4.49-9.379-4.98-14.552h11.555c-0.49 5.173-2.196 10.158-4.98 14.552-0.531 0.026-1.064 0.026-1.595 0zM20.48 31.368c3.105-0.9 5.866-2.712 7.921-5.199s3.31-5.533 3.6-8.741h-7.344c-0.426 4.882-1.847 9.626-4.177 13.942v-0.002zM24.656 14.572h7.344c-0.289-3.208-1.544-6.255-3.599-8.742s-4.816-4.299-7.922-5.2c2.33 4.316 3.751 9.060 4.177 13.942zM15.201 0.019c0.532-0.026 1.065-0.026 1.597 0 2.783 4.394 4.489 9.38 4.978 14.552h-11.553c0.498-5.204 2.208-10.194 4.978-14.552z"></path>
</symbol>
<symbol id="icon-arrow" viewBox="0 0 32 32">
<path fill="none" stroke="#045c6f" style="stroke: var(--color2, #045c6f)" stroke-linejoin="round" stroke-linecap="round" stroke-miterlimit="4" stroke-width="5.7143" d="M3.070 28.932l25.86-25.86M28.93 3.072v19.395M28.93 3.072h-19.395"></path>
</symbol>
<symbol id="icon-google" viewBox="0 0 37 32">
<path fill="currentColor" d="M11.048 2.526l-11.048 19.368 5.777 10.105 11.032-19.368zM14.45 21.895l-5.777 10.105h22.097l5.777-10.105zM35.587 20.21l-11.554-20.21h-11.537l11.554 20.21h11.537z"></path>
</symbol>
<symbol id="icon-home" viewBox="0 0 32 32">
<path fill="none" stroke="#045c6f" style="stroke: var(--color2, #045c6f)" stroke-linejoin="round" stroke-linecap="round" stroke-miterlimit="4" stroke-width="3" d="M2.5 16l3-3M5.5 13l10.5-10.5 10.5 10.5M5.5 13v15c0 0.828 0.672 1.5 1.5 1.5h4.5M26.5 13l3 3M26.5 13v15c0 0.828-0.672 1.5-1.5 1.5h-4.5M11.5 29.5c0.828 0 1.5-0.672 1.5-1.5v-6c0-0.828 0.672-1.5 1.5-1.5h3c0.828 0 1.5 0.672 1.5 1.5v6c0 0.828 0.672 1.5 1.5 1.5M11.5 29.5h9"></path>
</symbol>
<symbol id="icon-clock" viewBox="0 0 32 32">
<path fill="none" stroke="#045c6f" style="stroke: var(--color2, #045c6f)" stroke-linejoin="round" stroke-linecap="round" stroke-miterlimit="4" stroke-width="3.2" d="M16 9.6v6.4l4.8 4.8M30.4 16c0 7.953-6.447 14.4-14.4 14.4s-14.4-6.447-14.4-14.4c0-7.953 6.447-14.4 14.4-14.4s14.4 6.447 14.4 14.4z"></path>
</symbol>
<symbol id="icon-calendar" viewBox="0 0 32 32">
<path fill="none" stroke="#045c6f" style="stroke: var(--color2, #045c6f)" stroke-linejoin="round" stroke-linecap="round" stroke-miterlimit="4" stroke-width="3.2" d="M9.6 8v-6.4M22.4 8v-6.4M8 14.4h16M4.8 30.4h22.4c1.767 0 3.2-1.433 3.2-3.2v-19.2c0-1.767-1.433-3.2-3.2-3.2h-22.4c-1.767 0-3.2 1.433-3.2 3.2v19.2c0 1.767 1.433 3.2 3.2 3.2z"></path>
</symbol>
<symbol id="icon-paw" viewBox="0 0 34 32">
<path fill="currentColor" d="M22.239 18.665c-1.865-1.357-3.601-2.036-5.207-2.036-1.212 0-2.525 0.411-3.941 1.232s-2.692 1.838-3.829 3.049c-1.137 1.211-2.086 2.551-2.848 4.020s-1.143 2.802-1.143 3.999c0 2.032 1.246 3.049 3.737 3.049 1.007 0 2.372-0.31 4.094-0.929s3.032-0.929 3.931-0.929c0.858 0 2.1 0.313 3.726 0.94s2.903 0.94 3.829 0.94c0.585 0 1.103-0.038 1.552-0.115s0.888-0.216 1.317-0.418 0.759-0.515 0.99-0.94c0.231-0.425 0.347-0.957 0.347-1.597 0-1.601-0.626-3.372-1.879-5.314s-2.811-3.592-4.676-4.949z"></path>
<path fill="currentColor" d="M33.277 11.338c-0.572-0.828-1.382-1.242-2.43-1.242-1.035 0-1.998 0.386-2.889 1.159s-1.576 1.705-2.052 2.798-0.715 2.154-0.715 3.184c0 1.114 0.286 2.081 0.858 2.903s1.382 1.232 2.43 1.232c1.034 0 1.998-0.386 2.889-1.159s1.576-1.702 2.052-2.788c0.477-1.086 0.715-2.144 0.715-3.174 0-1.114-0.286-2.085-0.858-2.913z"></path>
<path fill="currentColor" d="M19.833 11.485c0.599 0.543 1.314 0.814 2.144 0.814 1.034 0 1.974-0.4 2.818-1.201s1.47-1.744 1.879-2.829c0.408-1.086 0.612-2.137 0.612-3.153 0-0.835-0.129-1.625-0.388-2.37s-0.688-1.389-1.286-1.932c-0.599-0.543-1.314-0.814-2.144-0.814-1.048 0-1.991 0.4-2.828 1.201s-1.46 1.74-1.868 2.819-0.613 2.133-0.613 3.164c0 0.835 0.129 1.625 0.388 2.37s0.687 1.389 1.286 1.932z"></path>
<path fill="currentColor" d="M15.185 9.553c0.259-0.745 0.388-1.535 0.388-2.37 0-1.030-0.204-2.085-0.613-3.164s-1.031-2.019-1.868-2.819c-0.837-0.8-1.78-1.201-2.828-1.201-0.83 0-1.545 0.271-2.144 0.814s-1.028 1.187-1.286 1.932c-0.259 0.745-0.388 1.535-0.388 2.37 0 1.016 0.204 2.067 0.613 3.153s1.035 2.029 1.879 2.829c0.844 0.8 1.783 1.201 2.818 1.201 0.83 0 1.545-0.271 2.144-0.814s1.028-1.187 1.286-1.932z"></path>
<path fill="currentColor" d="M8.943 17.237c0 1.114-0.286 2.081-0.858 2.903s-1.382 1.232-2.43 1.232c-1.035 0-1.998-0.386-2.889-1.159s-1.576-1.702-2.052-2.788c-0.476-1.086-0.715-2.144-0.715-3.174 0-1.114 0.286-2.085 0.858-2.913s1.382-1.242 2.43-1.242c1.035 0 1.998 0.386 2.889 1.159s1.576 1.705 2.052 2.798c0.476 1.093 0.715 2.154 0.715 3.184z"></path>
</symbol>
<symbol id="icon-profile_light" viewBox="0 0 32 32">
<path stroke-linejoin="round" stroke-linecap="butt" stroke-miterlimit="4" stroke-width="2.1333" d="M1.777 26.665c0-1.886 0.749-3.695 2.083-5.028s3.142-2.083 5.028-2.083h14.222c1.886 0 3.695 0.749 5.028 2.083s2.083 3.142 2.083 5.028c0 0.943-0.375 1.847-1.041 2.514s-1.571 1.041-2.514 1.041h-21.333c-0.943 0-1.847-0.375-2.514-1.041s-1.041-1.571-1.041-2.514z"></path>
<path stroke-linejoin="miter" stroke-linecap="butt" stroke-miterlimit="4" stroke-width="2.1333" d="M16 12.444c2.945 0 5.333-2.388 5.333-5.333s-2.388-5.333-5.333-5.333c-2.945 0-5.333 2.388-5.333 5.333s2.388 5.333 5.333 5.333z"></path>
</symbol>
<symbol id="icon-blank_alt" viewBox="0 0 26 32">
<path stroke-linejoin="miter" stroke-linecap="butt" stroke-miterlimit="4" stroke-width="2" d="M13.287 31h-5.287c-3.143 0-4.713 0-5.69-0.977s-0.977-2.547-0.977-5.69v-16.667c0-3.143 0-4.713 0.977-5.69s2.547-0.977 5.69-0.977h10c3.143 0 4.713 0 5.69 0.977s0.977 2.547 0.977 5.69v11.953c0 0.68 0 1.022-0.127 1.328-0.127 0.305-0.367 0.547-0.85 1.028l-8.047 8.047c-0.483 0.483-0.723 0.723-1.028 0.85-0.307 0.127-0.648 0.127-1.328 0.127z"></path>
<path stroke-linejoin="miter" stroke-linecap="butt" stroke-miterlimit="4" stroke-width="2" d="M13 31.001v-7.778c0-1.833 0-2.75 0.57-3.318 0.568-0.57 1.485-0.57 3.318-0.57h7.778"></path>
</symbol>
<symbol id="icon-bi_people" viewBox="0 0 43 32">
<path d="M40 32c0 0 2.667 0 2.667-2.667s-2.667-10.667-13.333-10.667c-10.667 0-13.333 8-13.333 10.667s2.667 2.667 2.667 2.667h21.333zM18.725 29.333l-0.059-0.011c0.003-0.704 0.445-2.747 2.027-4.587 1.472-1.725 4.059-3.403 8.64-3.403 4.579 0 7.165 1.68 8.64 3.403 1.581 1.84 2.021 3.885 2.027 4.587l-0.021 0.005-0.037 0.005h-21.216zM29.333 13.333c1.415 0 2.771-0.562 3.771-1.562s1.562-2.357 1.562-3.771-0.562-2.771-1.562-3.771c-1-1-2.357-1.562-3.771-1.562s-2.771 0.562-3.771 1.562c-1 1-1.562 2.357-1.562 3.771s0.562 2.771 1.562 3.771c1 1 2.357 1.562 3.771 1.562zM37.333 8c0 1.051-0.207 2.091-0.609 3.061s-0.991 1.853-1.734 2.595-1.625 1.332-2.595 1.734c-0.971 0.402-2.011 0.609-3.061 0.609s-2.091-0.207-3.061-0.609c-0.971-0.402-1.853-0.991-2.595-1.734s-1.332-1.625-1.734-2.595c-0.402-0.971-0.609-2.011-0.609-3.061 0-2.122 0.843-4.157 2.343-5.657s3.535-2.343 5.657-2.343c2.122 0 4.157 0.843 5.657 2.343s2.343 3.535 2.343 5.657zM18.496 19.413c-1.067-0.334-2.167-0.554-3.28-0.659-0.626-0.061-1.254-0.090-1.883-0.088-10.667 0-13.333 8-13.333 10.667 0 1.778 0.889 2.667 2.667 2.667h11.243c-0.395-0.833-0.592-1.745-0.576-2.667 0-2.693 1.005-5.445 2.907-7.744 0.648-0.784 1.403-1.517 2.256-2.176zM13.12 21.333c-1.577 2.372-2.43 5.152-2.453 8h-8c0-0.693 0.437-2.747 2.027-4.597 1.453-1.696 3.979-3.349 8.427-3.4v-0.003zM4 9.333c0-2.122 0.843-4.157 2.343-5.657s3.535-2.343 5.657-2.343c2.122 0 4.157 0.843 5.657 2.343s2.343 3.535 2.343 5.657c0 2.122-0.843 4.157-2.343 5.657s-3.535 2.343-5.657 2.343c-2.122 0-4.157-0.843-5.657-2.343s-2.343-3.535-2.343-5.657zM12 4c-1.415 0-2.771 0.562-3.771 1.562s-1.562 2.357-1.562 3.771c0 1.415 0.562 2.771 1.562 3.771s2.357 1.562 3.771 1.562 2.771-0.562 3.771-1.562c1-1 1.562-2.357 1.562-3.771s-0.562-2.771-1.562-3.771c-1-1-2.357-1.562-3.771-1.562z"></path>
</symbol>
<symbol id="icon-quill_paper" viewBox="0 0 25 32">
<path stroke-linejoin="round" stroke-linecap="round" stroke-miterlimit="4" stroke-width="1.7778" d="M5.778 8.222h4.444M5.778 16h13.333M5.778 20.444h13.333M5.778 24.889h4.444M3.556 30.444h17.778c0.589 0 1.155-0.234 1.571-0.651s0.651-0.982 0.651-1.571v-24.444c0-0.589-0.234-1.155-0.651-1.571s-0.982-0.651-1.571-0.651h-17.778c-0.589 0-1.155 0.234-1.571 0.651s-0.651 0.982-0.651 1.571v24.444c0 0.589 0.234 1.155 0.651 1.571s0.982 0.651 1.571 0.651z"></path>
</symbol>
<symbol id="icon-animal_cat_20" viewBox="0 0 32 32">
<path d="M5.94 32h18.56c1.894 0 3.43-1.536 3.43-3.432v-15.22c3.22-0.128 5.146-3.7 3.426-6.476l-1.004-1.62c-0.38-0.614-0.911-1.12-1.541-1.472s-1.341-0.536-2.063-0.536h-2.87v-1.272c0-0.259-0.051-0.515-0.15-0.755s-0.244-0.457-0.427-0.64c-0.183-0.183-0.401-0.328-0.64-0.427s-0.496-0.15-0.755-0.15c-0.642 0-1.278 0.127-1.871 0.373s-1.132 0.606-1.586 1.061c-0.454 0.454-0.814 0.993-1.059 1.587s-0.372 1.229-0.372 1.871v6.912c-2.556 0.252-4.486 1.46-5.904 3.164-1.564 1.88-2.486 4.33-3.034 6.684-0.552 2.364-0.746 4.716-0.806 6.464-0.024 0.748-0.024 1.392-0.016 1.884h-1.318c-0.768 0-1.52-0.224-2.163-0.646s-1.148-1.021-1.454-1.726c-0.306-0.705-0.399-1.484-0.268-2.241s0.48-1.46 1.005-2.021l1.84-1.974c1.268-1.36 1.959-3.159 1.927-5.019s-0.785-3.634-2.099-4.949l-1.806-1.806c-0.092-0.095-0.203-0.172-0.325-0.224s-0.253-0.080-0.386-0.081c-0.133-0.001-0.264 0.024-0.387 0.074s-0.235 0.125-0.328 0.218c-0.094 0.094-0.168 0.206-0.218 0.328s-0.076 0.255-0.074 0.387 0.029 0.264 0.081 0.386c0.052 0.122 0.129 0.232 0.224 0.325l1.806 1.806c0.949 0.948 1.492 2.229 1.515 3.57s-0.476 2.639-1.391 3.62l-1.84 1.974c-0.789 0.847-1.313 1.905-1.509 3.046s-0.055 2.313 0.406 3.375c0.461 1.061 1.222 1.965 2.189 2.601s2.099 0.975 3.256 0.977zM21.88 2v2.244c0 0.265 0.105 0.52 0.293 0.707s0.442 0.293 0.707 0.293h3.868c0.776 0 1.496 0.4 1.904 1.060l1.006 1.622c0.211 0.34 0.327 0.73 0.336 1.129s-0.088 0.794-0.282 1.144c-0.194 0.349-0.478 0.64-0.823 0.843s-0.737 0.31-1.137 0.31h-0.82c-0.265 0-0.52 0.105-0.707 0.293s-0.293 0.442-0.293 0.707v16.216c0 0.79-0.64 1.432-1.432 1.432h-1.432v-1.432c0.001-1.555-0.616-3.046-1.715-4.146s-2.59-1.718-4.145-1.72h-2.028c-0.265 0-0.52 0.105-0.707 0.293s-0.293 0.442-0.293 0.707 0.105 0.52 0.293 0.707c0.188 0.188 0.442 0.293 0.707 0.293h2.026c2.134 0 3.864 1.73 3.864 3.866v1.432h-11.812c-0.010-0.468-0.010-1.088 0.014-1.818 0.056-1.672 0.24-3.88 0.754-6.076 0.514-2.208 1.34-4.318 2.624-5.86 1.254-1.502 2.956-2.49 5.368-2.49 0.265 0 0.52-0.105 0.707-0.293s0.293-0.442 0.293-0.707v-7.864c0-1.588 1.28-2.878 2.862-2.892z"></path>
</symbol>
<symbol id="icon-documents_outline" viewBox="0 0 27 32">
<path d="M19.841 1.044l0.579-0.869-0.263-0.175h-0.315v1.044zM26.107 5.221h1.044v-0.56l-0.466-0.309-0.579 0.869zM24.019 25.063h-16.709v2.089h16.709v-2.089zM6.266 24.019v-20.886h-2.089v20.886h2.089zM7.31 2.089h12.531v-2.089h-12.531v2.089zM25.063 5.221v18.797h2.089v-18.797h-2.089zM19.263 1.913l6.266 4.177 1.157-1.738-6.266-4.177-1.157 1.738zM7.31 25.063c-0.277 0-0.543-0.11-0.738-0.306s-0.306-0.461-0.306-0.738h-2.089c0 0.831 0.33 1.628 0.918 2.215s1.384 0.918 2.215 0.918v-2.089zM24.019 27.151c0.831 0 1.628-0.33 2.215-0.918s0.918-1.384 0.918-2.215h-2.089c0 0.277-0.11 0.543-0.306 0.738s-0.461 0.306-0.738 0.306v2.089zM6.266 3.133c0-0.277 0.11-0.543 0.306-0.738s0.461-0.306 0.738-0.306v-2.089c-0.831 0-1.628 0.33-2.215 0.918s-0.918 1.384-0.918 2.215h2.089zM0 7.31v20.886h2.089v-20.886h-2.089zM3.133 31.329h16.709v-2.089h-16.709v2.089zM3.133 6.266h2.089v-2.089h-2.089v2.089zM22.974 28.196v-2.089h-2.089v2.089h2.089zM19.841 31.329c0.831 0 1.628-0.33 2.215-0.918s0.918-1.384 0.918-2.215h-2.089c0 0.277-0.11 0.543-0.306 0.738s-0.461 0.306-0.738 0.306v2.089zM0 28.196c0 0.831 0.33 1.628 0.918 2.215s1.384 0.918 2.215 0.918v-2.089c-0.277 0-0.543-0.11-0.738-0.306s-0.306-0.461-0.306-0.738h-2.089zM2.089 7.31c0-0.277 0.11-0.543 0.306-0.738s0.461-0.306 0.738-0.306v-2.089c-0.831 0-1.628 0.33-2.215 0.918s-0.918 1.384-0.918 2.215h2.089z"></path>
</symbol>
<symbol id="icon-arrow_left_up" viewBox="0 0 32 32">
<path fill="#8000ff" style="fill: var(--color3, #8000ff)" d="M31.555 2.668c0-0.589-0.234-1.155-0.651-1.571s-0.982-0.651-1.571-0.651h-17.778c-0.589 0-1.155 0.234-1.571 0.651s-0.651 0.982-0.651 1.571c0 0.589 0.234 1.155 0.651 1.571s0.982 0.651 1.571 0.651h12.413l-22.111 22.111c-0.405 0.419-0.629 0.98-0.624 1.563s0.239 1.14 0.651 1.552c0.412 0.412 0.969 0.646 1.552 0.651s1.144-0.219 1.563-0.624l22.111-22.111v12.413c0 0.589 0.234 1.155 0.651 1.571s0.982 0.651 1.571 0.651c0.589 0 1.155-0.234 1.571-0.651s0.651-0.982 0.651-1.571v-17.778z"></path>
</symbol>
<symbol id="icon-play_arrow" viewBox="0 0 25 32">
<path d="M0.445 0.445v31.111l24.444-15.555-24.444-15.556z"></path>
</symbol>
<symbol id="icon-mdi_smiley" viewBox="0 0 32 32">
<path d="M16 0c-8.848 0-16 7.2-16 16 0 4.244 1.686 8.313 4.686 11.314 1.486 1.486 3.25 2.664 5.191 3.468s4.022 1.218 6.123 1.218c4.244 0 8.313-1.686 11.314-4.686s4.686-7.070 4.686-11.314c0-2.101-0.414-4.182-1.218-6.123s-1.983-3.705-3.468-5.191-3.25-2.664-5.191-3.468c-1.941-0.804-4.022-1.218-6.123-1.218zM21.6 9.6c0.636 0 1.247 0.253 1.697 0.703s0.703 1.061 0.703 1.697c0 0.636-0.253 1.247-0.703 1.697s-1.061 0.703-1.697 0.703c-0.636 0-1.247-0.253-1.697-0.703s-0.703-1.061-0.703-1.697c0-0.636 0.253-1.247 0.703-1.697s1.061-0.703 1.697-0.703zM10.4 9.6c0.636 0 1.247 0.253 1.697 0.703s0.703 1.061 0.703 1.697c0 0.636-0.253 1.247-0.703 1.697s-1.061 0.703-1.697 0.703c-0.636 0-1.247-0.253-1.697-0.703s-0.703-1.061-0.703-1.697c0-0.636 0.253-1.247 0.703-1.697s1.061-0.703 1.697-0.703zM16 24.8c-3.728 0-6.896-2.336-8.176-5.6h16.352c-1.296 3.264-4.448 5.6-8.176 5.6z"></path>
</symbol>
<symbol id="icon-smile" viewBox="0 0 32 32">
<path fill="#d11f2a" style="fill: var(--color4, #d11f2a)" d="M16 0c-8.848 0-16 7.2-16 16 0 4.243 1.686 8.313 4.686 11.314 1.486 1.486 3.25 2.664 5.191 3.468s4.022 1.218 6.123 1.218c4.243 0 8.313-1.686 11.314-4.686s4.686-7.070 4.686-11.314c0-2.101-0.414-4.182-1.218-6.123s-1.983-3.705-3.468-5.191c-1.486-1.486-3.25-2.664-5.191-3.468s-4.022-1.218-6.123-1.218zM21.6 9.6c0.637 0 1.247 0.253 1.697 0.703s0.703 1.061 0.703 1.697-0.253 1.247-0.703 1.697c-0.45 0.45-1.060 0.703-1.697 0.703s-1.247-0.253-1.697-0.703c-0.45-0.45-0.703-1.061-0.703-1.697s0.253-1.247 0.703-1.697c0.45-0.45 1.061-0.703 1.697-0.703zM10.4 9.6c0.637 0 1.247 0.253 1.697 0.703s0.703 1.061 0.703 1.697-0.253 1.247-0.703 1.697c-0.45 0.45-1.061 0.703-1.697 0.703s-1.247-0.253-1.697-0.703c-0.45-0.45-0.703-1.061-0.703-1.697s0.253-1.247 0.703-1.697c0.45-0.45 1.061-0.703 1.697-0.703zM16 24.8c-3.728 0-6.896-2.336-8.176-5.6h16.352c-1.296 3.264-4.448 5.6-8.176 5.6z"></path>
</symbol>
<symbol id="icon-awards" viewBox="0 0 25 32">
<path fill="#d11f2a" style="fill: var(--color4, #d11f2a)" d="M2.645 6.328l0.978 4.166-0.978 4.148 3.641 2.246 2.228 3.641 4.166-0.978 4.166 0.978 2.228-3.641 3.641-2.246-0.978-4.148 0.978-4.166-3.623-2.246-2.246-3.641-4.166 0.996-4.148-0.978-2.264 3.623-3.623 2.246zM12.698 17.812c-1.922 0-3.764-0.763-5.123-2.122s-2.122-3.202-2.122-5.123 0.763-3.764 2.122-5.123c1.359-1.359 3.202-2.122 5.123-2.122 3.985 0 7.227 3.242 7.227 7.227 0 4.021-3.242 7.263-7.227 7.263zM12.662 16c-3.007 0-5.416-2.427-5.416-5.434 0-2.989 2.409-5.434 5.416-5.434s5.452 2.445 5.452 5.434c0 3.007-2.445 5.434-5.452 5.434zM19.617 17.993l-2.319 4.057-3.768-0.851 4.583 10.56 2.536-3.985h4.528l-5.561-9.781zM5.67 18.12l2.264 4.075 3.858-0.924-4.546 10.488-2.536-3.985h-4.528l5.488-9.654z"></path>
</symbol>
<symbol id="icon-people_money" viewBox="0 0 39 32">
<path fill="#d11f2a" style="fill: var(--color4, #d11f2a)" d="M11.818 14.545c1.881 0 3.684-0.747 5.014-2.077s2.077-3.133 2.077-5.014c0-1.881-0.747-3.684-2.077-5.014s-3.133-2.077-5.014-2.077c-1.881 0-3.684 0.747-5.014 2.077s-2.077 3.133-2.077 5.014c0 1.881 0.747 3.684 2.077 5.014s3.133 2.077 5.014 2.077zM16.727 22.182c-0-1.144 0.36-2.259 1.028-3.187s1.612-1.623 2.697-1.986c-0.493-0.186-1.016-0.282-1.543-0.281h-14.182c-1.157 0-2.267 0.46-3.086 1.278s-1.278 1.928-1.278 3.086c0 0 0 8.727 11.455 8.727 1.957 0 3.578-0.255 4.924-0.676-0.010-0.138-0.015-0.276-0.015-0.415v-6.545zM34.182 9.091c0 1.447-0.575 2.834-1.598 3.857s-2.41 1.598-3.857 1.598c-1.447 0-2.834-0.575-3.857-1.598s-1.598-2.41-1.598-3.857c0-1.447 0.575-2.834 1.598-3.857s2.41-1.598 3.857-1.598c1.447 0 2.834 0.575 3.857 1.598s1.598 2.41 1.598 3.857zM18.909 22.182c0-0.868 0.345-1.7 0.959-2.314s1.446-0.959 2.314-0.959h13.091c0.868 0 1.7 0.345 2.314 0.959s0.959 1.446 0.959 2.314v6.545c0 0.868-0.345 1.7-0.959 2.314s-1.446 0.959-2.314 0.959h-13.091c-0.868 0-1.7-0.345-2.314-0.959s-0.959-1.446-0.959-2.314v-6.545zM21.091 22.182v2.182c0.868 0 1.7-0.345 2.314-0.959s0.959-1.446 0.959-2.314h-2.182c0 0.289-0.115 0.567-0.32 0.771s-0.482 0.32-0.771 0.32zM36.364 24.364v-2.182c-0.289 0-0.567-0.115-0.771-0.32s-0.319-0.482-0.319-0.771h-2.182c0 0.868 0.345 1.7 0.959 2.314s1.446 0.959 2.314 0.959zM33.091 29.818h2.182c0-0.289 0.115-0.567 0.319-0.771s0.482-0.32 0.771-0.32v-2.182c-0.868 0-1.7 0.345-2.314 0.959s-0.959 1.446-0.959 2.314zM21.091 26.545v2.182c0.289 0 0.567 0.115 0.771 0.32s0.32 0.482 0.32 0.771h2.182c0-0.868-0.345-1.7-0.959-2.314s-1.446-0.959-2.314-0.959zM28.727 28.727c0.868 0 1.7-0.345 2.314-0.959s0.959-1.446 0.959-2.314c0-0.868-0.345-1.7-0.959-2.314s-1.446-0.959-2.314-0.959c-0.868 0-1.7 0.345-2.314 0.959s-0.959 1.446-0.959 2.314c0 0.868 0.345 1.7 0.959 2.314s1.446 0.959 2.314 0.959z"></path>
</symbol>
<symbol id="icon-cat" viewBox="0 0 32 32">
<path fill="#d11f2a" style="fill: var(--color4, #d11f2a)" d="M17.975 11.852h1.056c1.364 2.364 3.92 3.951 6.846 3.951 0.679 0 1.346-0.086 1.975-0.247v14.074c0 1.093-0.883 1.975-1.975 1.975s-1.975-0.883-1.975-1.975v-8.691l-8.395 6.716h3.457c1.093 0 1.975 0.883 1.975 1.975s-0.883 1.975-1.975 1.975h-8.889c-3.272 0-5.926-2.654-5.926-5.926v-13.796c0-0.994-0.741-1.84-1.728-1.963l-0.488-0.062c-1.080-0.136-1.852-1.123-1.716-2.204s1.123-1.852 2.204-1.716l0.488 0.062c2.963 0.37 5.191 2.889 5.191 5.883v5.265c2.123-3.191 5.753-5.296 9.877-5.296zM27.852 13.488c-0.617 0.216-1.284 0.339-1.975 0.339-1.753 0-3.333-0.765-4.42-1.975-0.228-0.253-0.432-0.525-0.611-0.815-0.568-0.914-0.895-1.988-0.895-3.136v-7.241c0-0.364 0.29-0.654 0.654-0.66h0.012c0.204 0 0.395 0.099 0.519 0.259v0.006l0.79 1.049 1.975 2.636h3.951l2.765-3.685v-0.006c0.123-0.161 0.315-0.259 0.519-0.259h0.012c0.364 0.006 0.654 0.296 0.654 0.66v7.241c0 1.068-0.284 2.074-0.778 2.938-0.697 1.222-1.827 2.173-3.173 2.648zM24.889 7.901c0-0.262-0.104-0.513-0.289-0.698s-0.436-0.289-0.698-0.289-0.513 0.104-0.698 0.289c-0.185 0.185-0.289 0.436-0.289 0.698s0.104 0.513 0.289 0.698c0.185 0.185 0.436 0.289 0.698 0.289s0.513-0.104 0.698-0.289c0.185-0.185 0.289-0.436 0.289-0.698zM27.852 8.889c0.262 0 0.513-0.104 0.698-0.289s0.289-0.436 0.289-0.698c0-0.262-0.104-0.513-0.289-0.698s-0.436-0.289-0.698-0.289c-0.262 0-0.513 0.104-0.698 0.289s-0.289 0.436-0.289 0.698c0 0.262 0.104 0.513 0.289 0.698s0.436 0.289 0.698 0.289z"></path>
</symbol>
<symbol id="icon-people" viewBox="0 0 33 32">
<path fill="#d11f2a" style="fill: var(--color4, #d11f2a)" d="M15.686 6.588c0 1.664-0.661 3.26-1.838 4.437s-2.773 1.838-4.437 1.838-3.26-0.661-4.437-1.838c-1.177-1.177-1.838-2.773-1.838-4.437s0.661-3.26 1.838-4.437c1.177-1.177 2.773-1.838 4.437-1.838s3.26 0.661 4.437 1.838c1.177 1.177 1.838 2.773 1.838 4.437zM28.235 8.157c0 1.248-0.496 2.445-1.378 3.328s-2.079 1.378-3.328 1.378c-1.248 0-2.445-0.496-3.328-1.378s-1.378-2.079-1.378-3.328c0-1.248 0.496-2.445 1.378-3.328s2.079-1.378 3.328-1.378c1.248 0 2.445 0.496 3.328 1.378s1.378 2.080 1.378 3.328zM0 19.529c0-0.936 0.372-1.834 1.034-2.496s1.56-1.034 2.496-1.034h11.765c0.496 0 0.968 0.102 1.396 0.287-1.661 1.864-2.576 4.275-2.573 6.772-0.001 1.003 0.146 2 0.436 2.96-1.286 0.585-2.962 0.962-5.142 0.962-9.412 0-9.412-7.059-9.412-7.059v-0.392zM24.315 31.689c1.893-0 3.734-0.623 5.238-1.773s2.588-2.762 3.086-4.588c0.498-1.826 0.381-3.766-0.333-5.52s-1.984-3.224-3.615-4.184c-1.631-0.96-3.533-1.358-5.413-1.131s-3.632 1.066-4.988 2.387c-1.356 1.321-2.239 3.052-2.515 4.925s0.073 3.784 0.991 5.44l-1.045 3.429c-0.042 0.136-0.046 0.281-0.011 0.419s0.106 0.264 0.206 0.365c0.101 0.101 0.227 0.172 0.365 0.207s0.283 0.031 0.419-0.011l3.431-1.045c1.239 0.689 2.667 1.079 4.184 1.079zM21.178 22.278c-0.208 0-0.408-0.083-0.555-0.23s-0.23-0.347-0.23-0.555c0-0.208 0.083-0.408 0.23-0.555s0.347-0.23 0.555-0.23h6.274c0.208 0 0.408 0.083 0.555 0.23s0.23 0.347 0.23 0.555c0 0.208-0.083 0.408-0.23 0.555s-0.347 0.23-0.555 0.23l-6.274 0.002zM24.315 25.415h-3.137c-0.208 0-0.408-0.083-0.555-0.23s-0.23-0.347-0.23-0.555c0-0.208 0.083-0.408 0.23-0.555s0.347-0.23 0.555-0.23h3.137c0.208 0 0.408 0.083 0.555 0.23s0.23 0.347 0.23 0.555c0 0.208-0.083 0.408-0.23 0.555s-0.347 0.23-0.555 0.23z"></path>
</symbol>
<symbol id="icon-book" viewBox="0 0 26 32">
<path fill="#d11f2a" style="fill: var(--color4, #d11f2a)" d="M5.6 32c-1.547 0-2.867-0.547-3.96-1.64s-1.64-2.413-1.64-3.96v-20.8c0-1.547 0.547-2.867 1.64-3.96s2.413-1.64 3.96-1.64h20v24c-0.667 0-1.233 0.234-1.699 0.701s-0.7 1.034-0.701 1.699c0 0.667 0.234 1.234 0.701 1.701s1.034 0.7 1.699 0.699v3.2h-20zM6.4 20.8h3.2v-17.6h-3.2v17.6zM5.6 28.8h14.92c-0.16-0.373-0.286-0.753-0.379-1.139s-0.14-0.806-0.141-1.261c0-0.427 0.040-0.84 0.12-1.24s0.213-0.787 0.4-1.16h-14.92c-0.693 0-1.267 0.234-1.72 0.701s-0.68 1.034-0.68 1.699c0 0.693 0.227 1.267 0.68 1.72s1.027 0.68 1.72 0.68z"></path>
</symbol>
<symbol id="icon-triangle" viewBox="0 0 61 32">
<path d="M60.316 0.563h-59.956l29.978 30.877 29.978-30.877z"></path>
</symbol>
<symbol id="icon-paw5" viewBox="0 0 26 32">
<path   stroke="#d11f2a" stroke-linejoin="miter" stroke-linecap="butt" stroke-miterlimit="4" stroke-width="2.9091" d="M22.607 4.561c-1.413-2.033-3.415-3.050-6.006-3.050-2.557 0-4.937 0.948-7.141 2.845s-3.894 4.186-5.072 6.868c-1.178 2.682-1.766 5.288-1.766 7.816 0 2.734 0.707 5.108 2.12 7.125s3.415 3.024 6.006 3.024c2.557 0 4.937-0.948 7.141-2.845s3.894-4.177 5.072-6.843c1.178-2.665 1.766-5.262 1.766-7.791 0-2.734-0.706-5.117-2.12-7.15z"></path>
</symbol>
<symbol id="icon-paw4" viewBox="0 0 26 32">
<path   stroke="#d11f2a" stroke-linejoin="miter" stroke-linecap="butt" stroke-miterlimit="4" stroke-width="2.7826" d="M6.543 28.356c1.416 1.275 3.106 1.912 5.069 1.912 2.446 0 4.666-0.94 6.662-2.819s3.476-4.094 4.441-6.643c0.965-2.549 1.448-5.017 1.448-7.403 0-1.961-0.306-3.816-0.917-5.565s-1.625-3.26-3.041-4.535c-1.416-1.275-3.106-1.912-5.069-1.912-2.478 0-4.707 0.94-6.686 2.819s-3.451 4.086-4.417 6.619c-0.965 2.533-1.448 5.009-1.448 7.428 0 1.961 0.306 3.816 0.917 5.565s1.625 3.26 3.041 4.535z"></path>
</symbol>
<symbol id="icon-paw3" viewBox="0 0 26 32">
<path   stroke="#d11f2a" stroke-linejoin="miter" stroke-linecap="butt" stroke-miterlimit="4" stroke-width="2.7826" d="M23.373 23.821c0.611-1.749 0.917-3.603 0.917-5.565 0-2.419-0.483-4.894-1.448-7.428s-2.438-4.739-4.417-6.619c-1.979-1.879-4.208-2.819-6.686-2.819-1.963 0-3.653 0.637-5.069 1.912s-2.43 2.786-3.041 4.535c-0.611 1.749-0.917 3.603-0.917 5.565 0 2.386 0.483 4.854 1.448 7.403s2.446 4.764 4.441 6.643 4.216 2.819 6.662 2.819c1.963 0 3.653-0.637 5.069-1.912s2.43-2.786 3.041-4.535z"></path>
</symbol>
<symbol id="icon-paw2" viewBox="0 0 26 32">
<path   stroke="#d11f2a" stroke-linejoin="miter" stroke-linecap="butt" stroke-miterlimit="4" stroke-width="2.9091" d="M23.559 19.041c0 2.734-0.706 5.108-2.12 7.125s-3.415 3.024-6.006 3.024c-2.557 0-4.937-0.948-7.141-2.845s-3.894-4.177-5.072-6.843c-1.178-2.665-1.766-5.262-1.766-7.791 0-2.734 0.707-5.117 2.12-7.15s3.415-3.050 6.006-3.050c2.557 0 4.937 0.948 7.141 2.845s3.894 4.186 5.072 6.868c1.178 2.682 1.766 5.288 1.766 7.816z"></path>
</symbol>
<symbol id="icon-paw1" viewBox="0 0 49 32">
<path fill="#d11f2a" style="fill: var(--color4, #d11f2a); stroke: var(--color4, #d11f2a)" stroke="#d11f2a" stroke-linejoin="miter" stroke-linecap="butt" stroke-miterlimit="4" stroke-width="2.2857" d="M35.19 5.143c-3.622-2.618-6.992-3.926-10.111-3.926-2.353 0-4.904 0.792-7.653 2.376s-5.228 3.544-7.435 5.88c-2.207 2.336-4.051 4.92-5.532 7.752s-2.221 5.403-2.221 7.712c0 3.92 2.419 5.88 7.256 5.88 1.956 0 4.606-0.597 7.95-1.792s5.888-1.792 7.633-1.792c1.665 0 4.078 0.604 7.237 1.812s5.637 1.812 7.435 1.812c1.137 0 2.141-0.074 3.014-0.221s1.725-0.416 2.558-0.805c0.833-0.389 1.474-0.993 1.923-1.812s0.674-1.846 0.674-3.081c0-3.087-1.216-6.504-3.648-10.249s-5.459-6.927-9.080-9.544z"></path>
</symbol>
<symbol id="icon-remove" viewBox="0 0 160 32">
<path fill="#fff" style="fill: var(--color1, #fff)" d="M5.328 26.661v-21.333h149.333v21.333h-149.333z"></path>
</symbol>
<symbol id="icon-logo_icon" viewBox="0 0 32 32">
<path fill="#fff" style="fill: var(--color1, #fff)" d="M31.761 16.27c0 8.676-7.108 15.709-15.876 15.709s-15.876-7.033-15.876-15.709c0-8.676 7.108-15.709 15.876-15.709s15.876 7.033 15.876 15.709z"></path>
<path fill="#181a2a" style="fill: var(--color5, #181a2a); stroke: var(--color5, #181a2a)" stroke="#181a2a" stroke-linejoin="round" stroke-linecap="butt" stroke-miterlimit="4" stroke-width="1.1429" d="M18.423 1.396c-0.057 0.188-0.014 0.392 0.114 0.541s0.324 0.221 0.519 0.191l1.406-0.216c-0.004 0.331-0.040 0.558-0.086 0.717-0.064 0.22-0.154 0.333-0.268 0.441-0.047 0.045-0.087 0.079-0.137 0.122-0.031 0.026-0.065 0.056-0.107 0.092-0.097 0.086-0.211 0.193-0.32 0.33-0.23 0.29-0.395 0.659-0.47 1.192-0.073 0.521-0.055 0.821-0.045 0.984 0.002 0.040 0.004 0.072 0.004 0.097 0 0.001 0 0.003 0 0.004 0 0.056 0 0.153-0.27 0.703-0.002 0.005-0.005 0.010-0.007 0.014-0.269 0.587-0.399 0.894-0.421 1.247-0.008 0.122-0.002 0.255 0.004 0.379 0.001 0.030 0.003 0.060 0.004 0.088 0.004 0.106 0.008 0.236 0.006 0.402-0.445 0.242-0.77 0.362-1.021 0.411-0.279 0.055-0.478 0.024-0.675-0.052-0.211-0.082-0.416-0.212-0.722-0.407-0.024-0.016-0.050-0.032-0.075-0.048-0.333-0.212-0.741-0.464-1.276-0.689-0.146-0.061-0.31-0.060-0.455 0.005s-0.256 0.186-0.307 0.335c-0.189 0.548-0.268 0.98-0.156 1.375 0.055 0.197 0.148 0.349 0.231 0.468 0.037 0.053 0.077 0.106 0.111 0.152l0.009 0.012c0.039 0.051 0.074 0.099 0.11 0.15 0.244 0.351 0.654 1.082 0.614 3.589-0.002 0.151 0.055 0.296 0.159 0.405 2.117 2.205 2.42 5.803 1.037 8.887-0.351 0.764-1.071 1.705-1.958 2.518-0.891 0.818-1.883 1.443-2.742 1.652-0.166 0.040-0.305 0.153-0.379 0.306s-0.076 0.333-0.005 0.488c0.162 0.352 0.508 0.583 0.817 0.738 0.334 0.168 0.75 0.307 1.206 0.42 0.914 0.227 2.063 0.369 3.217 0.393 1.151 0.024 2.341-0.069 3.327-0.33 0.947-0.251 1.883-0.704 2.254-1.54h0l0.003-0.006c0.769-1.793 0.212-3.977-0.554-5.386l-0.001-0.002c-0.167-0.303-0.313-0.559-0.44-0.777-0.024-0.041-0.047-0.081-0.069-0.119-0.097-0.168-0.179-0.309-0.25-0.437-0.174-0.314-0.254-0.5-0.296-0.685s-0.051-0.411-0.017-0.811c0.030-0.352 0.090-0.801 0.175-1.436 0.013-0.096 0.026-0.195 0.040-0.3 0.039-0.292-0.15-0.565-0.437-0.632-0.529-0.123-0.569-0.152-0.594-0.17-0.020-0.015-0.044-0.038-0.141-0.141l-0.002-0.002c-0.049-0.052-0.109-0.115-0.183-0.191 0.049-0.259 0.122-0.433 0.198-0.565 0.088-0.152 0.182-0.261 0.315-0.413 0.036-0.041 0.074-0.085 0.116-0.134 0.189-0.222 0.4-0.497 0.554-0.909 0.094-0.252 0.162-0.541 0.201-0.886 0.034 0.006 0.067 0.012 0.097 0.017 0.158 0.027 0.341 0.052 0.511 0.024 0.244-0.040 0.385-0.172 0.464-0.257 0.016-0.017 0.028-0.030 0.038-0.041 0.029-0.032 0.041-0.046 0.075-0.072 0.020-0.016 0.040-0.033 0.058-0.052 0.202 0.199 0.312 0.403 0.505 0.761 0.091 0.17 0.202 0.375 0.349 0.63 0.317 0.564 0.352 0.777 0.345 0.954-0.005 0.111-0.028 0.236-0.076 0.447-0.007 0.030-0.014 0.062-0.022 0.095-0.043 0.188-0.096 0.421-0.146 0.708-0.035 0.198 0.037 0.399 0.189 0.531 1.272 1.099 1.509 1.515 1.617 1.715 0.007 0.013 0.015 0.028 0.023 0.044 0.059 0.113 0.148 0.284 0.322 0.447 0.179 0.168 0.431 0.319 0.802 0.512 0.044 0.023 0.091 0.040 0.139 0.050 0.787 0.175 1.288 0.507 1.618 0.893 0.336 0.392 0.528 0.88 0.627 1.41 0.043 0.23 0.223 0.411 0.453 0.456 0.057 0.011 0.114 0.013 0.17 0.007-0.584 1.001-1.423 2.040-2.499 3.085l-0.002 0.002c-1.451 1.421-2.558 2.118-4.472 2.859l-0.003 0.001c-6.066 2.385-11.789 0.658-15.386-2.645-0.016-0.014-0.032-0.028-0.049-0.040-3.23-2.364-4.773-6.76-4.199-11.323 0.572-4.545 3.244-9.188 8.354-11.979 0.010-0.005 0.020-0.011 0.029-0.017 1.082-0.677 2.774-1.57 3.905-1.831l0.002-0c0.338-0.079 1.462-0.275 2.592-0.454 0.56-0.088 1.113-0.171 1.558-0.232 0.144-0.020 0.273-0.036 0.384-0.050 0.008 0.076 0.003 0.096 0.001 0.109-0.005 0.024-0.014 0.049-0.064 0.174-0.046 0.114-0.106 0.269-0.175 0.497zM25.118 15.057c0 0 0.002 0.002 0.004 0.004-0.003-0.003-0.004-0.005-0.004-0.004z"></path>
</symbol>
<symbol id="icon-La_cat" viewBox="0 0 35 32">
<path fill="none" stroke="#045c6f" style="stroke: var(--color2, #045c6f)" stroke-linejoin="round" stroke-linecap="round" stroke-miterlimit="10" stroke-width="3.2865" d="M10.779 2.649c0 0-0.894 3.496-5.129 3.413-2.118-0.083-3.134 0.75-3.558 1.666-0.593 1-0.424 2.249 0.254 3.165 0.593 0.916 1.863 1.833 4.15 1.916 0.169 0 1.779 0 1.948 0"></path>
<path fill="none" stroke="#045c6f" style="stroke: var(--color2, #045c6f)" stroke-linejoin="round" stroke-linecap="round" stroke-miterlimit="10" stroke-width="3.2865" d="M8.022 30.136v-15.494c0.085-2.666 2.456-5.081 5.082-5.914s4.57-0.106 4.57-0.106"></path>
<path fill="none" stroke="#045c6f" style="stroke: var(--color2, #045c6f)" stroke-linejoin="round" stroke-linecap="round" stroke-miterlimit="10" stroke-width="3.2865" d="M22.209 30.27c0 0 0.075-4.668 0.149-9.086 0-2.584-1.491-4.668-4.026-4.752h-0.596c-2.535 0.083-4.026 2.084-4.026 4.752 0 4.418 0.149 9.086 0.149 9.086"></path>
<path fill="none" stroke="#045c6f" style="stroke: var(--color2, #045c6f)" stroke-linejoin="round" stroke-linecap="round" stroke-miterlimit="10" stroke-width="3.2865" d="M28.097 19.588c0 3.832-0.085 6.716-0.085 10.547"></path>
<path fill="none" stroke="#045c6f" style="stroke: var(--color2, #045c6f)" stroke-linejoin="round" stroke-linecap="round" stroke-miterlimit="10" stroke-width="3.1135" d="M28.209 4.467c0 0 1.264 0 2.107 0.346 0.421 0.173 0.674-0.26 0.927-0.606l2.191-2.337c0.084-0.087 0.169 0 0.169 0.087v7.531c0 0.606-1.348 4.242-5.393 4.242h-0.169c-4.045 0-5.393-3.636-5.393-4.242v-7.618c0-0.087 0.084-0.087 0.169-0.087l2.191 2.337c0.337 0.346 0.506 0.779 0.927 0.692 0.843-0.346 2.107-0.346 2.107-0.346h0.169z"></path>
</symbol>
<symbol id="icon-to-right" viewBox="0 0 21 32">
<path fill="currentColor" d="M13.445 16.002l-11.733-11.733 3.352-3.352 15.085 15.085-15.085 15.085-3.352-3.352 11.733-11.733z"></path>
</symbol>
<symbol id="icon-to-left" viewBox="0 0 21 32">
<path fill="currentColor" d="M7.888 16.002l11.733-11.733-3.352-3.352-15.085 15.085 15.085 15.085 3.352-3.352-11.733-11.733z"></path>
</symbol>
<symbol id="icon-star" viewBox="0 0 35 32">
<path fill="#ffe62e" d="M7.284 32l2.737-11.832-9.179-7.958 12.126-1.053 4.716-11.158 4.716 11.158 12.126 1.053-9.179 7.958 2.737 11.832-10.4-6.274-10.4 6.274z"></path>
</symbol>
</defs>
</svg>
