<svg width="101" height="101" viewBox="0 0 101 101" fill="none" xmlns="http://www.w3.org/2000/svg">
<rect width="101" height="101" rx="20" fill="#045C6F"/>
<path d="M19.1363 47.1673C19.1363 47.1673 46.7774 35.8234 56.3638 31.8289C60.0388 30.2312 72.5012 25.1183 72.5012 25.1183C72.5012 25.1183 78.2532 22.8816 77.7738 28.3138C77.6139 30.5508 76.3358 38.3796 75.0576 46.8477C73.1402 58.8309 71.0631 71.9324 71.0631 71.9324C71.0631 71.9324 70.7436 75.6073 68.0275 76.2464C65.3114 76.8855 60.8375 74.0097 60.0388 73.3704C59.3995 72.8912 48.0556 65.7012 43.9014 62.1861C42.783 61.2275 41.5048 59.3103 44.0611 57.0734C49.8131 51.8008 56.6834 45.2501 60.8375 41.096C62.7549 39.1785 64.6721 34.7049 56.6833 40.1371C45.3394 47.9662 34.1552 55.3159 34.1552 55.3159C34.1552 55.3159 31.5987 56.9135 26.8055 55.4755C22.0121 54.0377 16.42 52.1203 16.42 52.1203C16.42 52.1203 12.5856 49.7237 19.1363 47.1673V47.1673Z" fill="white"/>
</svg>
