<svg width="101" height="101" viewBox="0 0 101 101" fill="none" xmlns="http://www.w3.org/2000/svg">
<rect width="101" height="101" rx="20" fill="#045C6F"/>
<path d="M73.2063 37.8923C70.3223 37.8923 67.6555 36.9342 65.5221 35.3243C63.0727 33.4774 61.3047 30.7612 60.6825 27.6402C60.5245 26.8698 60.4455 26.0698 60.4356 25.25H52.1885V47.7789L52.1786 60.115C52.1786 63.4139 50.0255 66.209 47.0526 67.1967C46.1834 67.4831 45.255 67.6214 44.2871 67.5621C43.0426 67.493 41.887 67.1177 40.8697 66.5152C38.7165 65.2312 37.2647 62.9003 37.2251 60.2237C37.1659 56.0557 40.5339 52.6482 44.7019 52.6482C45.5216 52.6482 46.3118 52.7865 47.0526 53.0235V46.8703V44.6678C46.2723 44.5492 45.4821 44.49 44.6722 44.49C40.1092 44.49 35.8424 46.3863 32.7905 49.8037C30.4892 52.3815 29.1064 55.6804 28.8891 59.1372C28.6126 63.6707 30.2719 67.9868 33.4917 71.1672C33.9658 71.6314 34.4597 72.066 34.9831 72.4709C37.7486 74.5944 41.1166 75.75 44.6722 75.75C45.4723 75.75 46.2723 75.6907 47.0526 75.5722C50.3712 75.0784 53.433 73.5574 55.8528 71.1672C58.8257 68.2338 60.4652 64.3324 60.485 60.1842L60.4455 41.7541C61.8677 42.8504 63.4085 43.7492 65.0777 44.4505C67.6654 45.5468 70.4111 46.09 73.226 46.09V40.1047V37.8824C73.2359 37.8923 73.2063 37.8923 73.2063 37.8923Z" fill="white"/>
</svg>
