<svg width="80" height="80" viewBox="0 0 80 80" fill="none" xmlns="http://www.w3.org/2000/svg">
<g filter="url(#filter0_d_879_40096)">
<rect x="12" y="11" width="56" height="56" rx="8" fill="#D11F2A" shape-rendering="crispEdges"/>
<path d="M40 21.334L50 31.334M40 21.334L30 31.334M40 21.334V44.6673" stroke="white" stroke-width="2" stroke-linecap="round" stroke-linejoin="round"/>
<path d="M21.1083 59.108C20.8123 59.108 20.5843 59.028 20.4243 58.868C20.2723 58.708 20.1963 58.48 20.1963 58.184V53.924C20.1963 53.62 20.2723 53.392 20.4243 53.24C20.5843 53.088 20.8123 53.012 21.1083 53.012C21.3963 53.012 21.6163 53.088 21.7683 53.24C21.9283 53.392 22.0083 53.62 22.0083 53.924V55.292H24.2523V53.924C24.2523 53.62 24.3283 53.392 24.4803 53.24C24.6323 53.088 24.8563 53.012 25.1523 53.012C25.4403 53.012 25.6643 53.088 25.8243 53.24C25.9843 53.392 26.0643 53.62 26.0643 53.924V58.184C26.0643 58.48 25.9843 58.708 25.8243 58.868C25.6643 59.028 25.4403 59.108 25.1523 59.108C24.8563 59.108 24.6323 59.028 24.4803 58.868C24.3283 58.708 24.2523 58.48 24.2523 58.184V56.696H22.0083V58.184C22.0083 58.48 21.9323 58.708 21.7803 58.868C21.6283 59.028 21.4043 59.108 21.1083 59.108ZM29.6297 59.132C29.1977 59.132 28.8097 59.048 28.4657 58.88C28.1217 58.712 27.8537 58.484 27.6617 58.196C27.4697 57.908 27.3737 57.584 27.3737 57.224C27.3737 56.792 27.4857 56.452 27.7097 56.204C27.9337 55.948 28.2977 55.768 28.8017 55.664C29.3057 55.552 29.9737 55.496 30.8057 55.496H31.4417V56.432H30.8177C30.4097 56.432 30.0777 56.456 29.8217 56.504C29.5737 56.544 29.3937 56.616 29.2817 56.72C29.1777 56.824 29.1257 56.968 29.1257 57.152C29.1257 57.376 29.2017 57.56 29.3537 57.704C29.5137 57.848 29.7417 57.92 30.0377 57.92C30.2697 57.92 30.4737 57.868 30.6497 57.764C30.8337 57.652 30.9777 57.504 31.0817 57.32C31.1857 57.128 31.2377 56.912 31.2377 56.672V55.292C31.2377 54.94 31.1577 54.692 30.9977 54.548C30.8377 54.396 30.5657 54.32 30.1817 54.32C29.9657 54.32 29.7297 54.348 29.4737 54.404C29.2257 54.452 28.9497 54.536 28.6457 54.656C28.4697 54.736 28.3137 54.756 28.1777 54.716C28.0417 54.668 27.9377 54.588 27.8657 54.476C27.7937 54.356 27.7577 54.228 27.7577 54.092C27.7577 53.948 27.7977 53.812 27.8777 53.684C27.9577 53.548 28.0897 53.448 28.2737 53.384C28.6497 53.232 29.0017 53.128 29.3297 53.072C29.6657 53.016 29.9737 52.988 30.2537 52.988C30.8697 52.988 31.3737 53.08 31.7657 53.264C32.1657 53.44 32.4657 53.716 32.6657 54.092C32.8657 54.46 32.9657 54.936 32.9657 55.52V58.184C32.9657 58.48 32.8937 58.708 32.7497 58.868C32.6057 59.028 32.3977 59.108 32.1257 59.108C31.8537 59.108 31.6417 59.028 31.4897 58.868C31.3457 58.708 31.2737 58.48 31.2737 58.184V57.74L31.3577 57.812C31.3097 58.084 31.2057 58.32 31.0457 58.52C30.8937 58.712 30.6977 58.864 30.4577 58.976C30.2177 59.08 29.9417 59.132 29.6297 59.132ZM35.4286 59.108C35.1326 59.108 34.9046 59.028 34.7446 58.868C34.5926 58.7 34.5166 58.468 34.5166 58.172V54.128C34.5166 53.8 34.6006 53.548 34.7686 53.372C34.9446 53.196 35.1966 53.108 35.5246 53.108H38.5126C38.7606 53.108 38.9486 53.168 39.0766 53.288C39.2046 53.408 39.2686 53.584 39.2686 53.816C39.2686 54.048 39.2046 54.224 39.0766 54.344C38.9486 54.464 38.7606 54.524 38.5126 54.524H36.3286V58.172C36.3286 58.796 36.0286 59.108 35.4286 59.108ZM42.9853 59.132C42.3533 59.132 41.8013 59.008 41.3293 58.76C40.8653 58.512 40.5053 58.156 40.2493 57.692C39.9933 57.228 39.8653 56.68 39.8653 56.048C39.8653 55.576 39.9373 55.152 40.0813 54.776C40.2253 54.4 40.4333 54.08 40.7053 53.816C40.9853 53.544 41.3173 53.34 41.7013 53.204C42.0853 53.06 42.5133 52.988 42.9853 52.988C43.6173 52.988 44.1653 53.112 44.6293 53.36C45.1013 53.608 45.4653 53.96 45.7213 54.416C45.9853 54.872 46.1173 55.416 46.1173 56.048C46.1173 56.528 46.0413 56.956 45.8893 57.332C45.7453 57.708 45.5373 58.032 45.2653 58.304C44.9933 58.576 44.6613 58.784 44.2693 58.928C43.8853 59.064 43.4573 59.132 42.9853 59.132ZM42.9853 57.776C43.2493 57.776 43.4773 57.712 43.6693 57.584C43.8613 57.456 44.0133 57.268 44.1253 57.02C44.2373 56.764 44.2933 56.44 44.2933 56.048C44.2933 55.464 44.1733 55.036 43.9333 54.764C43.6933 54.484 43.3773 54.344 42.9853 54.344C42.7293 54.344 42.5013 54.404 42.3013 54.524C42.1093 54.644 41.9573 54.832 41.8453 55.088C41.7413 55.336 41.6893 55.656 41.6893 56.048C41.6893 56.632 41.8093 57.068 42.0493 57.356C42.2893 57.636 42.6013 57.776 42.9853 57.776ZM48.3075 61.268C48.0115 61.268 47.7835 61.188 47.6235 61.028C47.4715 60.876 47.3955 60.648 47.3955 60.344V53.924C47.3955 53.628 47.4715 53.404 47.6235 53.252C47.7835 53.092 48.0035 53.012 48.2835 53.012C48.5795 53.012 48.8035 53.092 48.9555 53.252C49.1075 53.404 49.1835 53.628 49.1835 53.924V54.74L49.0515 54.272C49.1715 53.888 49.4115 53.58 49.7715 53.348C50.1395 53.108 50.5595 52.988 51.0315 52.988C51.5435 52.988 51.9915 53.112 52.3755 53.36C52.7675 53.608 53.0715 53.96 53.2875 54.416C53.5035 54.872 53.6115 55.416 53.6115 56.048C53.6115 56.68 53.5035 57.228 53.2875 57.692C53.0715 58.156 52.7715 58.512 52.3875 58.76C52.0035 59.008 51.5515 59.132 51.0315 59.132C50.5675 59.132 50.1555 59.02 49.7955 58.796C49.4355 58.564 49.1915 58.264 49.0635 57.896H49.2075V60.344C49.2075 60.648 49.1275 60.876 48.9675 61.028C48.8155 61.188 48.5955 61.268 48.3075 61.268ZM50.4915 57.776C50.7475 57.776 50.9715 57.712 51.1635 57.584C51.3635 57.456 51.5155 57.268 51.6195 57.02C51.7315 56.764 51.7875 56.44 51.7875 56.048C51.7875 55.464 51.6675 55.036 51.4275 54.764C51.1875 54.484 50.8755 54.344 50.4915 54.344C50.2355 54.344 50.0075 54.404 49.8075 54.524C49.6155 54.644 49.4635 54.832 49.3515 55.088C49.2395 55.336 49.1835 55.656 49.1835 56.048C49.1835 56.632 49.3035 57.068 49.5435 57.356C49.7835 57.636 50.0995 57.776 50.4915 57.776ZM56.4098 61.268C56.2018 61.268 56.0298 61.212 55.8938 61.1C55.7578 60.988 55.6778 60.84 55.6538 60.656C55.6298 60.48 55.6618 60.292 55.7498 60.092L56.5538 58.316V59.06L54.4298 54.188C54.3498 53.98 54.3218 53.788 54.3458 53.612C54.3778 53.428 54.4658 53.284 54.6098 53.18C54.7618 53.068 54.9698 53.012 55.2338 53.012C55.4498 53.012 55.6218 53.064 55.7498 53.168C55.8858 53.264 56.0098 53.452 56.1218 53.732L57.5378 57.332H57.1538L58.6178 53.72C58.7298 53.448 58.8538 53.264 58.9898 53.168C59.1338 53.064 59.3258 53.012 59.5658 53.012C59.7738 53.012 59.9378 53.068 60.0578 53.18C60.1858 53.284 60.2618 53.424 60.2858 53.6C60.3178 53.776 60.2858 53.968 60.1898 54.176L57.3698 60.572C57.2498 60.844 57.1138 61.028 56.9618 61.124C56.8178 61.22 56.6338 61.268 56.4098 61.268Z" fill="white"/>
</g>
<defs>
<filter id="filter0_d_879_40096" x="0" y="0" width="80" height="80" filterUnits="userSpaceOnUse" color-interpolation-filters="sRGB">
<feFlood flood-opacity="0" result="BackgroundImageFix"/>
<feColorMatrix in="SourceAlpha" type="matrix" values="0 0 0 0 0 0 0 0 0 0 0 0 0 0 0 0 0 0 127 0" result="hardAlpha"/>
<feOffset dy="1"/>
<feGaussianBlur stdDeviation="6"/>
<feComposite in2="hardAlpha" operator="out"/>
<feColorMatrix type="matrix" values="0 0 0 0 0 0 0 0 0 0 0 0 0 0 0 0 0 0 0.12 0"/>
<feBlend mode="normal" in2="BackgroundImageFix" result="effect1_dropShadow_879_40096"/>
<feBlend mode="normal" in="SourceGraphic" in2="effect1_dropShadow_879_40096" result="shape"/>
</filter>
</defs>
</svg>
