<svg width="101" height="101" viewBox="0 0 101 101" fill="none" xmlns="http://www.w3.org/2000/svg">
<rect width="101" height="101" rx="20" fill="#045C6F"/>
<path fill-rule="evenodd" clip-rule="evenodd" d="M36.1635 23.5327C45.6027 21.4227 55.3914 21.4227 64.8306 23.5327L65.8362 23.7552C68.5956 24.372 71.1298 25.7418 73.1575 27.7124C75.1851 29.6829 76.6267 32.1771 77.3221 34.9177C79.718 44.3593 79.718 54.2499 77.3221 63.6916C76.6267 66.4322 75.1851 68.9263 73.1575 70.8969C71.1298 72.8674 68.5956 74.2372 65.8362 74.8541L64.8277 75.0766C58.9157 76.3986 52.8494 76.8968 46.801 76.5568L38.9311 83.599C38.6344 83.8646 38.2719 84.0458 37.8813 84.1235C37.4907 84.2012 37.0864 84.1727 36.7106 84.0408C36.3349 83.909 36.0013 83.6787 35.7449 83.374C35.4885 83.0693 35.3185 82.7014 35.2528 82.3086L33.9506 74.5307C31.4534 73.7537 29.1973 72.3493 27.3978 70.4516C25.5982 68.5539 24.3155 66.2264 23.6721 63.6916C21.276 54.2499 21.276 44.3593 23.6721 34.9177C24.3674 32.1771 25.809 29.6829 27.8367 27.7124C29.8643 25.7418 32.3986 24.372 35.1579 23.7552L36.1635 23.5327Z" fill="white"/>
<path d="M38.8285 34.8586C38.2772 34.7783 37.715 34.8893 37.2355 35.173H37.194C36.0816 35.8256 35.079 36.6473 34.2247 37.6143C33.5127 38.436 33.1271 39.2666 33.0262 40.0675C32.9669 40.5422 33.0085 41.0227 33.1479 41.4766L33.2013 41.5062C34.0022 43.8586 35.0464 46.1219 36.3219 48.2518C37.9666 51.2433 39.9906 54.0101 42.3437 56.4835L42.4149 56.5843L42.5276 56.6674L42.5958 56.7475L42.6789 56.8187C45.1609 59.1789 47.9342 61.2124 50.9313 62.8701C54.3575 64.736 56.4369 65.617 57.6858 65.9848V66.0026C58.0507 66.1153 58.3829 66.1658 58.7181 66.1658C59.7817 66.0872 60.7883 65.6548 61.5777 64.9377C62.5418 64.0834 63.3575 63.0778 63.9923 61.9594V61.9387C64.5886 60.8114 64.3869 59.7495 63.5266 59.0286C61.7987 57.5189 59.9302 56.1779 57.9468 55.024C56.6179 54.3032 55.2682 54.7393 54.7224 55.469L53.5566 56.9403C52.9574 57.67 51.8717 57.5692 51.8717 57.5692L51.842 57.587C43.7408 55.5194 41.5783 47.3174 41.5783 47.3174C41.5783 47.3174 41.4775 46.202 42.228 45.6325L43.6874 44.4578C44.3875 43.8882 44.874 42.5415 44.1235 41.2126C42.9773 39.2273 41.639 37.3594 40.1278 35.6358C39.7982 35.2301 39.3359 34.9538 38.8226 34.8556L38.8285 34.8586ZM52.5184 31.293C52.125 31.293 51.7477 31.4492 51.4696 31.7274C51.1914 32.0055 51.0352 32.3828 51.0352 32.7762C51.0352 33.1695 51.1914 33.5468 51.4696 33.8249C51.7477 34.1031 52.125 34.2594 52.5184 34.2594C56.2679 34.2594 59.3826 35.4845 61.8476 37.8338C63.1143 39.1183 64.1021 40.64 64.7488 42.3071C65.3984 43.9772 65.695 45.76 65.6179 47.5458C65.6014 47.9391 65.7418 48.323 66.0083 48.6128C66.2747 48.9026 66.6454 49.0747 67.0388 49.0913C67.4322 49.1078 67.816 48.9674 68.1058 48.7009C68.3957 48.4344 68.5678 48.0637 68.5843 47.6704C68.6763 45.4737 68.3117 43.2819 67.5134 41.2333C66.7117 39.175 65.4961 37.3032 63.9419 35.7336L63.9122 35.704C60.8539 32.7821 56.9857 31.293 52.5184 31.293Z" fill="#045C6F"/>
<path d="M52.4129 36.169C52.0195 36.169 51.6423 36.3252 51.3641 36.6034C51.086 36.8816 50.9297 37.2588 50.9297 37.6522C50.9297 38.0455 51.086 38.4228 51.3641 38.7009C51.6423 38.9791 52.0195 39.1354 52.4129 39.1354H52.4633C55.1686 39.3282 57.1383 40.23 58.5177 41.7102C59.9327 43.2349 60.6654 45.1304 60.609 47.4739C60.5999 47.8672 60.7475 48.2481 61.0193 48.5326C61.291 48.8172 61.6647 48.9821 62.0581 48.9912C62.4514 49.0002 62.8323 48.8526 63.1168 48.5809C63.4014 48.3091 63.5663 47.9355 63.5754 47.5421C63.6466 44.466 62.6558 41.811 60.6921 39.693V39.6871C58.6838 37.5335 55.928 36.3944 52.6116 36.1719L52.5612 36.166L52.4129 36.169Z" fill="#045C6F"/>
<path d="M52.3557 41.1376C52.1573 41.1201 51.9573 41.1427 51.7677 41.2042C51.5782 41.2657 51.403 41.3647 51.2526 41.4954C51.1021 41.6261 50.9796 41.7858 50.8923 41.9649C50.8049 42.144 50.7546 42.3389 50.7442 42.5379C50.7338 42.7368 50.7637 42.9359 50.8319 43.1231C50.9002 43.3103 51.0055 43.4818 51.1415 43.6275C51.2775 43.7731 51.4415 43.8898 51.6236 43.9706C51.8057 44.0515 52.0023 44.0948 52.2015 44.098C53.4414 44.1633 54.2335 44.5371 54.7318 45.0384C55.2331 45.5427 55.6069 46.3525 55.6751 47.6191C55.6788 47.8182 55.7226 48.0144 55.8037 48.1962C55.8849 48.378 56.0018 48.5416 56.1475 48.6772C56.2932 48.8128 56.4648 48.9178 56.6519 48.9857C56.839 49.0536 57.0379 49.0832 57.2367 49.0726C57.4355 49.0621 57.6302 49.0116 57.809 48.9242C57.9879 48.8369 58.1474 48.7144 58.2779 48.5641C58.4084 48.4138 58.5074 48.2387 58.5688 48.0494C58.6303 47.86 58.653 47.6602 58.6356 47.4619C58.5407 45.6821 57.983 44.1099 56.8409 42.953C55.6929 41.7961 54.1296 41.2325 52.3557 41.1376Z" fill="#045C6F"/>
</svg>
