<svg width="44" height="48" viewBox="0 0 44 48" fill="none" xmlns="http://www.w3.org/2000/svg">
<path d="M22 0C20.8689 0 19.7449 0.389424 18.7764 1.09615L15.7789 3.23077L12.329 3.69231H12.2725L12.2159 3.75C9.91131 4.27644 8.09447 6.12981 7.57841 8.48077L7.52185 8.53846V8.59615L7.06941 12.1731L4.97686 14.9423L4.92031 15V15.0577C3.65488 17.1202 3.59833 19.7812 4.97686 21.75L7.12596 24.8077L7.69152 27.9808L1.86632 37.0385L0 39.8654H8.65296L10.7455 44.8269L12.0463 48L13.9126 45.1154L19.6247 36.3462C21.1587 36.988 22.8907 37.0457 24.3753 36.3462L30.0874 45.1154L31.9537 48L33.2545 44.8269L35.347 39.8654H44L42.1337 37.0385L36.4781 28.2692L36.9306 24.8077L39.0231 21.75L39.0797 21.6923V21.6346C40.3451 19.5721 40.4017 16.9688 39.0231 15L36.9306 11.9423L36.2519 8.48077H36.3085C36.3014 8.4375 36.259 8.40866 36.2519 8.36539C35.9267 5.94952 34.0533 3.98798 31.671 3.69231H31.6144L28.2211 3.23077L25.2237 1.09615C24.2551 0.389424 23.1311 0 22 0ZM22 3.75C22.4171 3.75 22.8271 3.87981 23.1311 4.09615L26.3548 6.46154L26.7506 6.75L27.2031 6.80769L31.162 7.38462H31.2185C32.0315 7.47836 32.597 8.05529 32.6889 8.88462V9L33.4242 13.0962L33.4807 13.5L33.7635 13.8462L36.0823 17.1346C36.5135 17.7476 36.5701 18.7861 36.0257 19.6731L33.4807 23.3077L33.4242 23.7692L32.8586 27.8077V27.8654C32.8233 28.1683 32.7243 28.4495 32.5758 28.6731L32.4627 28.7308V28.7885C32.2012 29.1058 31.8406 29.3149 31.3882 29.3654H31.2751L27.1465 30.1154L26.6941 30.1731L26.3548 30.4615L23.1311 32.8269C22.5302 33.2668 21.4557 33.3245 20.5861 32.7692L17.6452 30.4615L17.3059 30.1731L16.7969 30.1154L12.838 29.5385H12.7815C12.223 29.4736 11.7918 29.1779 11.5373 28.7308C11.4242 28.5288 11.3393 28.2909 11.3111 28.0385V27.9231L10.5758 23.7115L10.5193 23.25L10.2365 22.9038L7.91774 19.6154C7.4865 19.0024 7.42995 17.9062 7.97429 17.0192L10.2365 14.0192L10.5193 13.6731L10.5758 13.1538L11.0848 9.28846C11.0919 9.25962 11.1343 9.25962 11.1414 9.23077C11.3676 8.32933 12.0675 7.61538 12.9512 7.38462C12.9794 7.3774 12.9794 7.33413 13.0077 7.32692L16.7969 6.80769L17.2494 6.75L17.6452 6.46154L20.8689 4.09615C21.1729 3.87981 21.5829 3.75 22 3.75ZM34.4987 31.8462L37.2699 36.1731H32.9152L32.4627 37.3269L31.2185 40.2692L27.3728 34.2692L28.2211 33.6346L31.7841 33V33.0577C31.8265 33.0505 31.8548 33.0072 31.8972 33C32.8728 32.863 33.7564 32.4447 34.4987 31.8462ZM9.50129 31.9038C10.2719 32.6106 11.2545 33.101 12.329 33.2308C12.3503 33.2308 12.3644 33.2308 12.3856 33.2308L15.8355 33.6923L16.6273 34.3269L12.7815 40.2692L11.5373 37.3269L11.0848 36.1731H6.73008L9.50129 31.9038Z" fill="#045C6F"/>
</svg>
