<svg width="42" height="53" viewBox="0 0 42 53" fill="none" xmlns="http://www.w3.org/2000/svg">
<path d="M4.38078 10.48L6.00078 17.38L4.38078 24.25L10.4108 27.97L14.1008 34L21.0008 32.38L27.9008 34L31.5908 27.97L37.6208 24.25L36.0008 17.38L37.6208 10.48L31.6208 6.75998L27.9008 0.72998L21.0008 2.37998L14.1308 0.75998L10.3808 6.75998L4.38078 10.48ZM21.0308 29.5C17.8482 29.5 14.7959 28.2357 12.5455 25.9853C10.2951 23.7348 9.03078 20.6826 9.03078 17.5C9.03078 14.3174 10.2951 11.2651 12.5455 9.0147C14.7959 6.76426 17.8482 5.49998 21.0308 5.49998C27.6308 5.49998 33.0008 10.87 33.0008 17.47C33.0008 24.13 27.6308 29.5 21.0308 29.5ZM20.9708 26.5C15.9908 26.5 12.0008 22.48 12.0008 17.5C12.0008 12.55 15.9908 8.49998 20.9708 8.49998C25.9508 8.49998 30.0008 12.55 30.0008 17.5C30.0008 22.48 25.9508 26.5 20.9708 26.5ZM32.4908 29.8L28.6508 36.52L22.4108 35.11L30.0008 52.6L34.2008 46H41.7008L32.4908 29.8ZM9.39078 30.01L13.1408 36.76L19.5308 35.23L12.0008 52.6L7.80078 46H0.300781L9.39078 30.01Z" fill="#045C6F"/>
</svg>
