<svg width="46" height="46" viewBox="0 0 46 46" fill="none" xmlns="http://www.w3.org/2000/svg">
<path d="M23 0C10.3182 0 0 10.3182 0 23C0 35.6818 10.3182 46 23 46C35.6818 46 46 35.6818 46 23C46 10.3182 35.6818 0 23 0ZM23 3.53846C33.7304 3.53846 42.4615 12.2696 42.4615 23C42.4615 33.7304 33.7304 42.4615 23 42.4615C12.2696 42.4615 3.53846 33.7304 3.53846 23C3.53846 12.2696 12.2696 3.53846 23 3.53846ZM14.1538 15.9231C10.4491 15.9231 7.76803 18.0586 7.76803 18.0586L9.92428 20.8645C9.92428 20.8645 11.8414 19.4615 14.1573 19.4615C16.4732 19.4615 18.3869 20.8645 18.3869 20.8645L20.5431 18.0586C20.5431 18.0586 17.8586 15.9231 14.1538 15.9231ZM31.8462 15.9231C28.1414 15.9231 25.4603 18.0586 25.4603 18.0586L27.6166 20.8645C27.6166 20.8645 29.5337 19.4615 31.8496 19.4615C34.1655 19.4615 36.0792 20.8645 36.0792 20.8645L38.2354 18.0586C38.2354 18.0586 35.5509 15.9231 31.8462 15.9231ZM10.6154 28.3077C10.6154 28.3077 13.455 37.1538 23 37.1538C32.545 37.1538 35.3846 28.3077 35.3846 28.3077H10.6154Z" fill="#045C6F"/>
</svg>
