<svg width="30" height="30" viewBox="0 0 30 30" fill="none" xmlns="http://www.w3.org/2000/svg">
<rect x="0.5" y="0.5" width="29" height="29" rx="14.5" fill="white"/>
<rect x="0.5" y="0.5" width="29" height="29" rx="14.5" stroke="#F0F0F0"/>
<g clip-path="url(#clip0_4553_38597)">
<path fill-rule="evenodd" clip-rule="evenodd" d="M12.7969 14.7637C12.7965 14.598 12.9304 14.4633 13.0961 14.4629L16.4163 14.4546C16.582 14.4542 16.7167 14.5882 16.7171 14.7538C16.7175 14.9195 16.5835 15.0542 16.4178 15.0546L13.0976 15.0629C12.9319 15.0633 12.7973 14.9294 12.7969 14.7637Z" fill="#070707"/>
<path fill-rule="evenodd" clip-rule="evenodd" d="M14.7524 12.7988C14.9181 12.7984 15.0527 12.9324 15.0531 13.0981L15.0615 16.4183C15.0619 16.584 14.9279 16.7186 14.7622 16.719C14.5965 16.7195 14.4619 16.5855 14.4615 16.4198L14.4531 13.0996C14.4527 12.9339 14.5867 12.7992 14.7524 12.7988Z" fill="#070707"/>
<path fill-rule="evenodd" clip-rule="evenodd" d="M17.6994 11.8181C16.0753 10.194 13.4422 10.194 11.8181 11.8181C10.194 13.4422 10.194 16.0754 11.8181 17.6994C13.4422 19.3235 16.0753 19.3235 17.6994 17.6994C19.3235 16.0754 19.3235 13.4422 17.6994 11.8181ZM11.3938 11.3938C13.2522 9.5354 16.2653 9.5354 18.1237 11.3938C19.9661 13.2362 19.982 16.2134 18.1714 18.0753L20.9484 20.8523C21.0656 20.9694 21.0656 21.1594 20.9484 21.2766C20.8313 21.3937 20.6413 21.3937 20.5241 21.2766L17.7267 18.4791C15.8583 19.9734 13.125 19.8549 11.3938 18.1237C9.5354 16.2653 9.5354 13.2522 11.3938 11.3938Z" fill="#070707"/>
</g>
<defs>
<clipPath id="clip0_4553_38597">
<rect width="12" height="12" fill="white" transform="translate(10 10)"/>
</clipPath>
</defs>
</svg>
